{
.appVersion = "3148";
.formatVersion = 3;
axes = (
{
name = Weight;
tag = wght;
}
);
classes = (
{
automatic = 1;
code = "A Aacute Abreve Abreveacute Abrevedotbelow Abrevegrave Abrevehookabove Abrevetilde Acaron Acircumflex Acircumflexacute Acircumflexdotbelow Acircumflexgrave Acircumflexhookabove Acircumflextilde Adieresis Adotbelow Agrave Ahookabove Ainvertedbreve Amacron Aogonek Aring Aringacute Atilde AE AEacute B C Cacute Ccaron Ccedilla Cdotaccent D DZcaron Eth Dcaron Dcroat Dzcaron E Eacute Ebreve Ecaron Ecircumflex Ecircumflexacute Ecircumflexdotbelow Ecircumflexgrave Ecircumflexhookabove Ecircumflextilde Edieresis Edotaccent Edotbelow Egrave Ehookabove Einvertedbreve Emacron Eogonek Etilde Schwa F G Gbreve Gcaron Gcircumflex Gcommaaccent Gdotaccent H Hbar I Iacute Ibreve Icaron Icircumflex Idieresis Idotaccent Idotbelow Igrave Ihookabove Imacron Iogonek Itilde J K Kcommaaccent L Lacute Lcaron Lcommaaccent Lslash M N Nacute Ncaron Ncommaaccent Nhookleft Ntilde Eng O Oacute Obreve Ocaron Ocircumflex Ocircumflexacute Ocircumflexdotbelow Ocircumflexgrave Ocircumflexhookabove Ocircumflextilde Odieresis Odieresismacron Odotbelow Ograve Ohookabove Ohorn Ohornacute Ohorndotbelow Ohorngrave Ohornhookabove Ohorntilde Ohungarumlaut Omacron Oslash Oslashacute Otilde Oogonek OE P Thorn Q R Racute Rcaron Rcommaaccent S Sacute Saltillo Scaron Scedilla Scommaaccent T Tbar Tcaron Tcedilla Tcommaaccent U Uacute Ubreve Ucaron Ucircumflex Udieresis Udieresisacute Udieresiscaron Udieresisgrave Udieresismacron Udotbelow Ugrave Uhookabove Uhorn Uhornacute Uhorndotbelow Uhorngrave Uhornhookabove Uhorntilde Uhungarumlaut Umacron Uogonek Uring Utilde V W Wacute Wcircumflex Wdieresis Wgrave X Y Yacute Ycircumflex Ydieresis Ydotbelow Ygrave Yhookabove Ytilde Z Zacute Zcaron Zdotaccent Delta Omega saltillo.case";
name = Uppercase;
}
);
customParameters = (
{
name = "Use Typo Metrics";
value = 1;
},
{
name = fsType;
value = (
);
},
{
name = "Family Alignment Zones";
value = (
{

glyphs = (
{
color = 4;
glyphname = A;
kernLeft = A;
kernRight = A;
lastChange = "2022-12-17 01:52:53 +0000";
layers = (
{
anchors = (
{
name = bottom;
pos = (323,0);
},
{
name = ogonek;
pos = (581,10);
},
{
name = top;
pos = (323,652);
}
);
background = {
shapes = (
{
closed = 1;
nodes = (
(1,19,o),
(7,-9,o),
(7,-9,c),
(7,-9,o),
(106,0,o),
(235,0,cs),
(235,0,o),
(240,15,o),
(240,38,c),
(149,62,l),
(158,102,o),
(174,154,o),
(192,209,c),
(416,219,l),
(440,149,o),
(460,87,o),
(468,50,c),
(378,29,l),
(378,10,o),
(384,-9,o),
(384,-9,c),
(384,-9,o),
(510,0,o),
(639,0,cs),
(639,0,o),
(644,24,o),
(644,47,c),
(579,67,l),
(529,183,o),
(427,428,o),
(359,652,c),
(345,652,o),
(290,637,o),
(275,627,c),
(275,596,l),
(234,472,o),
(73,91,o),
(57,58,c),
(1,38,l)
);
},
{
closed = 1;
nodes = (
(330,455,o),
(366,362,o),
(397,274,c),
(214,274,l),
(248,369,o),
(285,464,o),
(305,521,c)
);
}
);
};
hints = (
{
horizontal = 1;
place = (214, 60);
place = (214, 60);
type = Stem;
},
{
horizontal = 1;
place = (-9, 21);
target = up;
type = BottomGhost;
},
{
horizontal = 1;
place = (0, 21);
target = up;
type = BottomGhost;
},
{
horizontal = 1;
place = (652, -20);
target = down;
type = TopGhost;
}
);
layerId = UUID0;
shapes = (
{
closed = 1;
nodes = (
(47,-6,o),
(127,0,o),
(235,0,c),
(238,9,o),
(240,25,o),
(240,38,c),
(149,62,l),
(158,102,o),
(174,154,o),
(192,209,c),
(416,219,l),
(440,149,o),
(460,87,o),
(468,50,c),
(378,29,l),
(378,14,o),
(381,0,o),
(384,-9,c),
(414,-7,o),
(522,0,o),
(639,0,c),
(641,9,o),
(644,29,o),
(644,47,c),
(579,67,l),
(530,182,o),
(429,423,o),
(361,645,c),
(359,652,l),
(345,652,o),
(290,637,o),
(275,627,c),
(275,596,l),
(234,472,o),
(73,91,o),
(57,58,c),
(1,38,l),
(1,21,o),
(5,0,o),
(7,-9,c)
);
},
{
closed = 1;
nodes = (
(248,369,o),
(287,473,o),
(305,521,c),
(313,499,l),
(338,436,o),
(369,353,o),
(397,274,c),
(214,274,l)
);
}
);
width = 645;
},
{
anchors = (
{
name = bottom;
pos = (325,0);
},
{
name = ogonek;
pos = (665,10);
},
{
name = top;
pos = (343,660);
}
);
layerId = "013925A1-B736-4B8B-AD25-E95AD017ACB4";
shapes = (
{
closed = 1;
nodes = (
(83,-3,o),
(161,-2,o),
(238,0,c),
(242,13,o),
(243,25,o),
(243,38,c),
(163,56,l),
(163,104,o),
(168,153,o),
(175,203,c),
(336,220,l),
(348,160,o),
(359,103,o),
(366,60,c),
(300,42,l),
(300,26,o),
(302,11,o),
(306,-5,c),
(430,-3,o),
(549,-2,o),
(673,0,c),
(678,15,o),
(679,29,o),
(679,44,c),
(645,57,l),
(624,111,o),
(508,505,o),
(481,649,c),
(461,665,l),
(380,663,o),
(299,662,o),
(218,660,c),
(210,630,l),
(166,471,o),
(76,166,o),
(39,54,c),
(0,42,l),
(0,26,o),
(2,11,o),
(6,-5,c)
);
},
{
closed = 1;
nodes = (
(205,355,o),
(226,430,o),
(247,504,c),
(261,504,l),
(281,455,o),
(303,370,o),
(323,282,c),
(190,282,l)
);
}
);
width = 679;
},
{
anchors = (
{
name = bottom;
pos = (328,0);
},
{
name = ogonek;
pos = (586,10);
},
{
name = top;
pos = (328,652);
}
);
background = {
shapes = (
{
closed = 1;
nodes = (
(73,-3,o),
(128,-2,o),
(194,-2,c),
(195,2,o),
(195,9,o),
(195,12,c),
(97,16,l),
(167,216,o),
(272,484,o),
(322,620,c),
(324,614,l),
(400,414,o),
(477,217,o),
(551,16,c),
(451,10,l),
(450,6,o),
(450,-1,o),
(451,-4,c),
(512,-3,o),
(572,-2,o),
(633,-1,c),
(634,2,o),
(634,10,o),
(633,13,c),
(571,17,l),
(492,225,o),
(412,431,o),
(333,639,c),
(331,645,l),
(328,644,o),
(312,639,o),
(309,638,c),
(309,632,l),
(231,426,o),
(153,221,o),
(76,15,c),
(5,8,l),
(5,6,o),
(6,-2,o),
(7,-6,c)
);
},
{
closed = 1;
nodes = (
(479,232,l),
(473,248,l),
(176,248,l),
(169,229,l)
);
}
);
};
hints = (
{
horizontal = 1;
place = (214, 60);
place = (214, 60);
type = Stem;
},
{
horizontal = 1;
place = (-9, 21);
target = up;
type = BottomGhost;
},
{
horizontal = 1;
place = (0, 21);
target = up;
type = BottomGhost;
},
{
horizontal = 1;
place = (652, -20);
target = down;
type = TopGhost;
},
{
horizontal = 1;
place = (-10, 21);
target = up;
type = BottomGhost;
},
{
horizontal = 1;
place = (-1, 21);
target = up;
type = BottomGhost;
},
{
horizontal = 1;
place = (651, -20);
target = down;
type = TopGhost;
},
{
horizontal = 1;
place = (185, 21);
target = up;
type = BottomGhost;
},
{
horizontal = 1;
place = (189, 21);
target = up;
type = BottomGhost;
},
{
horizontal = 1;
place = (651, -20);
target = down;
type = TopGhost;
}
);
layerId = "897B5A99-9760-4657-AC3F-5CEB049E61B1";
shapes = (
{
closed = 1;
nodes = (
(73,-3,o),
(128,-2,o),
(194,-2,c),
(195,2,o),
(195,9,o),
(195,12,c),
(97,16,l),
(120,82,o),
(147,155,o),
(175,229,c),
(470,232,l),
(497,160,o),
(524,88,o),
(551,16,c),
(451,10,l),
(450,6,o),
(450,-1,o),
(451,-4,c),
(512,-3,o),
(572,-2,o),
(633,-1,c),
(634,2,o),
(634,10,o),
(633,13,c),
(571,17,l),
(492,225,o),
(412,431,o),
(333,639,c),
(331,645,l),
(324,643,o),
(316,640,o),
(309,638,c),
(309,632,l),
(231,426,o),
(153,221,o),
(76,15,c),
(5,8,l),
(5,6,o),
(6,-2,o),
(7,-6,c)
);
},
{
closed = 1;
nodes = (
(235,391,o),
(290,533,o),
(322,620,c),
(324,614,l),
(371,491,o),
(418,370,o),
(464,248,c),
(182,248,l)
);
}
);
width = 639;
}
);
unicode = 65;
},
{
color = 4;
glyphname = AE;
kernLeft = A;
kernRight = E;
lastChange = "2022-12-16 16:04:31 +0000";
layers = (
{
anchors = (
{
name = bottom;
pos = (425,0);
},
{
name = top;
pos = (425,640);
}
);
background = {
shapes = (
{
closed = 1;
nodes = (
(47,-6,o),
(127,0,o),
(235,0,c),
(238,9,o),
(240,25,o),
(240,38,c),
(149,62,l),
(170,160,o),
(263,407,o),
(316,548,c),
(318,550,o),
(324,553,o),
(327,553,c),
(371,443,o),
(453,124,o),
(468,50,c),
(378,29,l),
(378,14,o),
(381,0,o),
(384,-9,c),
(410,-7,o),
(497,-2,o),
(597,0,c),
(652,-1,o),
(703,-3,o),
(762,-6,c),
(771,4,l),
(771,159,l),
(771,170,l),
(755,175,o),
(740,177,o),
(724,178,c),
(693,74,l),
(662,68,o),
(621,63,o),
(573,60,c),
(529,166,o),
(464,377,o),
(402,575,c),
(478,582,o),
(534,585,o),
(610,585,c),
(648,476,l),
(652,465,l),
(668,465,o),
(683,467,o),
(699,473,c),
(693,646,l),
(693,652,l),
(588,652,o),
(484,652,o),
(379,652,cs),
(365,652,o),
(300,637,o),
(285,627,c),
(248,515,o),
(109,168,o),
(57,58,c),
(1,38,l),
(1,21,o),
(5,0,o),
(7,-9,c)
);
},
{
closed = 1;
nodes = (
(672,285,l),
(672,353,l),
(656,368,l),
(210,273,l),
(190,215,l)
);
}
);
};
hints = (
{
place = (426, 85);
place = (426, 85);
type = Stem;
},
{
horizontal = 1;
place = (0, 57);
place = (0, 57);
type = Stem;
},
{
horizontal = 1;
place = (292, 51);
place = (292, 51);
type = Stem;
},
{
horizontal = 1;
place = (292, 65);
place = (292, 65);
type = Stem;
},
{
horizontal = 1;
place = (-9, 21);
target = up;
type = BottomGhost;
},
{
horizontal = 1;
place = (649, -20);
target = down;
type = TopGhost;
},
{
horizontal = 1;
place = (640, -20);
target = down;
type = TopGhost;
}
);
layerId = UUID0;
shapes = (
{
closed = 1;
nodes = (
(47,-6,o),
(127,0,o),
(235,0,c),
(238,9,o),
(240,25,o),
(240,38,c),
(149,62,l),
(157,98,o),
(174,153,o),
(195,216,c),
(419,248,l),
(442,161,o),
(461,82,o),
(468,50,c),
(378,29,l),
(378,14,o),
(381,0,o),
(384,-9,c),
(410,-7,o),
(497,-2,o),
(597,0,cs),
(652,-1,o),
(703,-3,o),
(762,-6,c),
(771,4,l),
(771,166,l),
(771,170,l),
(755,175,o),
(740,177,o),
(724,178,c),
(693,74,l),
(662,68,o),
(621,63,o),
(573,60,c),
(553,109,o),
(528,179,o),
(502,260,c),
(672,285,l),
(672,353,l),
(656,368,l),
(479,330,l),
(454,408,o),
(428,493,o),
(402,575,c),
(476,580,o),
(534,581,o),
(606,581,c),
(646,465,l),
(650,454,l),
(666,454,o),
(681,456,o),
(697,462,c),
(691,641,l),
(691,647,l),
(586,644,o),
(472,641,o),
(367,640,c),
(353,640,o),
(298,626,o),
(283,616,c),
(246,504,o),
(109,168,o),
(57,58,c),
(1,38,l),
(1,21,o),
(5,0,o),
(7,-9,c)
);
},
{
closed = 1;
nodes = (
(249,370,o),
(288,474,o),
(316,548,c),
(318,550,o),
(324,553,o),
(327,553,c),
(347,503,o),
(375,408,o),
(401,314,c),
(215,274,l)
);
}
);
width = 849;
},
{
anchors = (
{
name = bottom;
pos = (435,0);
},
{
name = top;
pos = (435,660);
}
);
background = {
shapes = (
{
closed = 1;
nodes = (
(77,-2,o),
(147,-3,o),
(218,0,c),
(222,13,o),
(223,25,o),
(223,38,c),
(173,56,l),
(183,187,o),
(247,369,o),
(316,553,c),
(320,558,o),
(326,561,o),
(331,563,c),
(345,391,o),
(359,218,o),
(373,46,c),
(333,38,l),
(333,22,o),
(335,11,o),
(339,-5,c),
(434,-2,o),
(529,0,o),
(624,3,cs),
(697,5,o),
(775,0,o),
(829,-2,c),
(836,8,l),
(845,182,l),
(841,191,l),
(810,195,o),
(780,198,o),
(749,198,c),
(712,86,l),
(691,82,o),
(634,72,o),
(585,69,c),
(552,365,o),
(545,406,o),
(537,587,c),
(552,589,o),
(613,596,o),
(640,596,c),
(671,469,l),
(682,462,l),
(713,462,o),
(743,464,o),
(774,468,c),
(784,656,l),
(775,665,l),
(724,662,o),
(513,660,o),
(335,660,c),
(313,654,o),
(292,643,o),
(271,631,c),
(231,493,o),
(165,323,o),
(49,50,c),
(0,38,l),
(0,22,o),
(2,11,o),
(6,-5,c)
);
},
{
closed = 1;
nodes = (
(764,280,l),
(768,366,l),
(752,377,l),
(202,282,l),
(194,214,l)
);
}
);
};
layerId = "013925A1-B736-4B8B-AD25-E95AD017ACB4";
shapes = (
{
closed = 1;
nodes = (
(77,-2,o),
(147,-3,o),
(218,0,c),
(222,13,o),
(223,25,o),
(223,38,c),
(173,56,l),
(177,103,o),
(187,157,o),
(202,215,c),
(358,233,l),
(363,171,o),
(368,108,o),
(373,46,c),
(333,38,l),
(333,22,o),
(335,11,o),
(339,-5,c),
(434,-2,o),
(529,3,o),
(624,3,cs),
(697,3,o),
(775,0,o),
(829,-2,c),
(836,8,l),
(845,182,l),
(841,191,l),
(810,195,o),
(780,198,o),
(749,198,c),
(712,86,l),
(691,82,o),
(634,72,o),
(585,69,c),
(576,147,o),
(569,207,o),
(564,257,c),
(764,280,l),
(768,366,l),
(752,377,l),
(554,343,l),
(546,427,o),
(542,485,o),
(537,587,c),
(552,589,o),
(613,596,o),
(640,596,c),
(671,469,l),
(682,462,l),
(713,462,o),
(743,464,o),
(774,468,c),
(784,656,l),
(775,665,l),
(724,662,o),
(513,660,o),
(335,660,c),
(313,654,o),
(292,643,o),
(271,631,c),
(231,493,o),
(165,323,o),
(49,50,c),
(0,38,l),
(0,22,o),
(2,11,o),
(6,-5,c)
);
},
{
closed = 1;
nodes = (
(248,370,o),
(282,461,o),
(316,553,c),
(320,558,o),
(326,561,o),
(331,563,c),
(338,478,o),
(345,393,o),
(352,308,c),
(223,286,l)
);
}
);
width = 870;
},
{
anchors = (
{
name = bottom;
pos = (446,0);
},
{
name = top;
pos = (446,640);
}
);
background = {
shapes = (
{
closed = 1;
nodes = (
(426,352,o),
(490,152,o),
(535,16,c),
(451,10,l),
(450,6,o),
(450,-1,o),
(451,-4,c),
(512,-3,o),
(572,-2,o),
(633,-1,c),
(634,2,o),
(634,10,o),
(633,13,c),
(555,17,l),
(486,225,o),
(416,431,o),
(347,639,c),
(345,639,o),
(343,639,o),
(340,640,c),
(334,639,o),
(327,636,o),
(324,635,c),
(240,426,o),
(157,221,o),
(76,15,c),
(5,8,l),
(5,6,o),
(6,-2,o),
(7,-6,c),
(73,-3,o),
(128,-2,o),
(194,-2,c),
(195,2,o),
(195,9,o),
(195,12,c),
(97,16,l),
(138,127,o),
(243,391,o),
(335,620,c),
(339,609,l)
);
},
{
closed = 1;
nodes = (
(175,234,l),
(650,324,l),
(650,333,l),
(639,341,l),
(177,252,l)
);
},
{
closed = 1;
nodes = (
(331,620,l),
(462,627,o),
(560,629,o),
(655,629,c),
(673,464,l),
(674,456,l),
(678,456,o),
(684,457,o),
(687,458,c),
(678,631,l),
(677,647,l),
(579,646,o),
(435,640,o),
(326,640,c)
);
},
{
closed = 1;
nodes = (
(549,0,l),
(623,0,o),
(712,-2,o),
(788,-3,c),
(790,53,l),
(793,134,l),
(795,190,l),
(793,191,o),
(785,193,o),
(782,193,c),
(769,20,l),
(740,17,o),
(619,17,o),
(561,17,c)
);
}
);
};
hints = (
{
place = (426, 85);
place = (426, 85);
type = Stem;
},
{
horizontal = 1;
place = (0, 57);
place = (0, 57);
type = Stem;
},
{
horizontal = 1;
place = (292, 51);
place = (292, 51);
type = Stem;
},
{
horizontal = 1;
place = (292, 65);
place = (292, 65);
type = Stem;
},
{
horizontal = 1;
place = (-9, 21);
target = up;
type = BottomGhost;
},
{
horizontal = 1;
place = (649, -20);
target = down;
type = TopGhost;
},
{
horizontal = 1;
place = (640, -20);
target = down;
type = TopGhost;
},
{
horizontal = 1;
place = (214, 60);
place = (214, 60);
type = Stem;
},
{
horizontal = 1;
place = (-9, 21);
target = up;
type = BottomGhost;
},
{
horizontal = 1;
place = (0, 21);
target = up;
type = BottomGhost;
},
{
horizontal = 1;
place = (652, -20);
target = down;
type = TopGhost;
},
{
horizontal = 1;
place = (-10, 21);
target = up;
type = BottomGhost;
},
{
horizontal = 1;
place = (-1, 21);
target = up;
type = BottomGhost;
},
{
horizontal = 1;
place = (651, -20);
target = down;
type = TopGhost;
},
{
horizontal = 1;
place = (185, 21);
target = up;
type = BottomGhost;
},
{
horizontal = 1;
place = (189, 21);
target = up;
type = BottomGhost;
},
{
horizontal = 1;
place = (651, -20);
target = down;
type = TopGhost;
},
{
horizontal = 1;
place = (214, 60);
place = (214, 60);
type = Stem;
},
{
horizontal = 1;
place = (-9, 21);
target = up;
type = BottomGhost;
},
{
horizontal = 1;
place = (0, 21);
target = up;
type = BottomGhost;
},
{
horizontal = 1;
place = (652, -20);
target = down;
type = TopGhost;
},
{
horizontal = 1;
place = (-10, 21);
target = up;
type = BottomGhost;
},
{
horizontal = 1;
place = (-1, 21);
target = up;
type = BottomGhost;
},
{
horizontal = 1;
place = (651, -20);
target = down;
type = TopGhost;
},
{
horizontal = 1;
place = (185, 21);
target = up;
type = BottomGhost;
},
{
horizontal = 1;
place = (189, 21);
target = up;
type = BottomGhost;
},
{
horizontal = 1;
place = (651, -20);
target = down;
type = TopGhost;
},
{
place = (147, 86);
place = (147, 86);
type = Stem;
},
{
horizontal = 1;
place = (0, 57);
place = (0, 57);
type = Stem;
},
{
horizontal = 1;
place = (295, 60);
place = (295, 60);
type = Stem;
},
{
horizontal = 1;
place = (586, 54);
place = (586, 54);
type = Stem;
},
{
horizontal = 1;
place = (462, -20);
target = down;
type = TopGhost;
},
{
horizontal = 1;
place = (649, -20);
target = down;
type = TopGhost;
},
{
horizontal = 1;
place = (-9, 21);
target = up;
type = BottomGhost;
},
{
place = (158, 83);
place = (158, 83);
type = Stem;
},
{
horizontal = 1;
place = (0, 57);
place = (0, 57);
type = Stem;
},
{
horizontal = 1;
place = (649, -20);
target = down;
type = TopGhost;
},
{
horizontal = 1;
place = (640, -20);
target = down;
type = TopGhost;
},
{
horizontal = 1;
place = (-9, 21);
target = up;
type = BottomGhost;
},
{
place = (149, 83);
place = (149, 83);
type = Stem;
},
{
horizontal = 1;
place = (-9, 21);
target = up;
type = BottomGhost;
},
{
horizontal = 1;
place = (0, 21);
target = up;
type = BottomGhost;
},
{
horizontal = 1;
place = (649, -20);
target = down;
type = TopGhost;
},
{
horizontal = 1;
place = (640, -20);
target = down;
type = TopGhost;
},
{
place = (150, 85);
place = (150, 85);
type = Stem;
},
{
place = (559, 86);
place = (559, 86);
type = Stem;
},
{
horizontal = 1;
place = (296, 63);
place = (296, 63);
type = Stem;
},
{
horizontal = 1;
place = (-9, 21);
target = up;
type = BottomGhost;
},
{
horizontal = 1;
place = (0, 21);
target = up;
type = BottomGhost;
},
{
horizontal = 1;
place = (649, -20);
target = down;
type = TopGhost;
},
{
horizontal = 1;
place = (640, -20);
target = down;
type = TopGhost;
}
);
layerId = "897B5A99-9760-4657-AC3F-5CEB049E61B1";
shapes = (
{
closed = 1;
nodes = (
(73,-3,o),
(128,-2,o),
(194,-2,c),
(195,2,o),
(195,9,o),
(195,12,c),
(97,16,l),
(115,65,o),
(145,143,o),
(182,235,c),
(447,285,l),
(482,178,o),
(511,88,o),
(535,16,c),
(451,10,l),
(450,6,o),
(450,-1,o),
(451,-4,c),
(477,-3,o),
(572,-2,o),
(633,-1,cs),
(685,-1,o),
(746,-2,o),
(795,-3,c),
(797,53,l),
(800,134,l),
(802,190,l),
(800,191,o),
(792,193,o),
(789,193,c),
(776,20,l),
(747,17,o),
(619,17,o),
(555,17,c),
(525,108,o),
(495,198,o),
(464,289,c),
(650,324,l),
(650,333,l),
(639,341,l),
(458,306,l),
(423,411,o),
(388,516,o),
(352,623,c),
(473,627,o),
(565,629,o),
(655,629,c),
(674,456,l),
(675,456,l),
(677,456,o),
(684,457,o),
(687,458,c),
(678,631,l),
(677,647,l),
(579,645,o),
(435,641,o),
(338,640,c),
(335,639,o),
(329,637,o),
(324,635,c),
(240,426,o),
(157,221,o),
(76,15,c),
(5,8,l),
(5,6,o),
(6,-2,o),
(7,-6,c)
);
},
{
closed = 1;
nodes = (
(232,362,o),
(282,488,o),
(329,605,c),
(331,610,o),
(333,615,o),
(335,620,c),
(377,496,o),
(411,393,o),
(441,303,c),
(189,254,l)
);
}
);
width = 892;
}
);
metricLeft = A;
metricRight = E;
unicode = 198;
},
{
color = 4;
glyphname = B;
kernLeft = H;
kernRight = B;
lastChange = "2022-12-16 16:04:31 +0000";
layers = (
{
anchors = (
{
name = bottom;
pos = (292,0);
},
{
name = center;
pos = (292,320);
},
{
name = top;
pos = (292,640);
}
);
background = {
shapes = (
{
closed = 1;
nodes = (
(554,298,o),
(468,323,o),
(425,335,c),
(462,365,o),
(489,396,o),
(489,396,c),
(508,429,o),
(518,464,o),
(518,498,cs),
(518,555,o),
(491,609,o),
(435,641,c),
(414,647,o),
(391,652,o),
(345,652,cs),
(272,652,o),
(170,640,o),
(64,640,c),
(58,596,l),
(139,574,l),
(139,574,o),
(150,527,o),
(150,356,cs),
(150,243,o),
(145,125,o),
(141,57,c),
(59,38,l),
(65,-9,l),
(125,-9,o),
(272,-12,o),
(346,-12,cs),
(410,-12,o),
(452,1,o),
(475,13,c),
(506,40,o),
(554,89,o),
(554,183,c)
);
},
{
closed = 1;
nodes = (
(439,261,o),
(456,208,o),
(456,155,cs),
(456,129,o),
(452,103,o),
(445,78,c),
(432,67,o),
(413,54,o),
(392,43,c),
(331,43,o),
(274,51,o),
(237,59,c),
(235,117,o),
(232,207,o),
(231,292,c),
(288,301,o),
(361,302,o),
(395,302,c)
);
},
{
closed = 1;
nodes = (
(231,405,o),
(231,524,o),
(234,583,c),
(280,592,o),
(337,597,o),
(381,597,cs),
(420,567,o),
(433,518,o),
(433,469,cs),
(433,442,o),
(429,415,o),
(423,392,c),
(410,379,o),
(388,366,o),
(366,358,c),
(348,355,o),
(324,353,o),
(299,353,cs),
(276,353,o),
(252,355,o),
(231,358,c)
);
}
);
};
hints = (
{
place = (151, 81);
place = (151, 81);
type = Stem;
},
{
place = (434, 85);
place = (434, 85);
type = Stem;
},
{
place = (457, 98);
place = (457, 98);
type = Stem;
},
{
horizontal = 1;
place = (-12, 55);
place = (-12, 55);
type = Stem;
},
{
horizontal = 1;
place = (652, -20);
target = down;
type = TopGhost;
},
{
horizontal = 1;
place = (640, -20);
target = down;
type = TopGhost;
},
{
horizontal = 1;
place = (-9, 21);
target = up;
type = BottomGhost;
}
);
layerId = UUID0;
shapes = (
{
closed = 1;
nodes = (
(410,-12,o),
(452,1,o),
(475,13,c),
(506,40,o),
(554,89,o),
(554,183,cs),
(554,298,o),
(468,323,o),
(425,335,c),
(455,360,o),
(471,376,o),
(489,396,c),
(508,429,o),
(518,464,o),
(518,498,cs),
(518,555,o),
(491,609,o),
(435,641,c),
(414,647,o),
(391,652,o),
(345,652,cs),
(272,652,o),
(170,640,o),
(64,640,c),
(60,625,o),
(58,611,o),
(58,596,c),
(139,574,l),
(149,511,o),
(150,429,o),
(150,356,cs),
(150,243,o),
(145,125,o),
(141,57,c),
(59,38,l),
(59,22,o),
(61,7,o),
(65,-9,c),
(93,-9,o),
(141,-10,o),
(192,-10,cs),
(248,-11,o),
(307,-12,o),
(346,-12,cs)
);
},
{
closed = 1;
nodes = (
(331,43,o),
(274,51,o),
(237,59,c),
(235,117,o),
(232,207,o),
(231,292,c),
(256,296,o),
(285,298,o),
(312,300,cs),
(345,302,o),
(376,302,o),
(395,302,c),
(439,261,o),
(456,208,o),
(456,155,cs),
(456,129,o),
(452,103,o),
(445,78,c),
(432,67,o),
(413,54,o),
(392,43,c)
);
},
{
closed = 1;
nodes = (
(231,405,o),
(231,524,o),
(234,583,c),
(258,588,o),
(286,591,o),
(312,594,cs),
(336,596,o),
(360,597,o),
(381,597,c),
(420,567,o),
(433,518,o),
(433,469,cs),
(433,442,o),
(429,415,o),
(423,392,c),
(410,379,o),
(388,366,o),
(366,358,c),
(348,355,o),
(324,353,o),
(299,353,cs),
(276,353,o),
(252,355,o),
(231,358,c)
);
}
);
width = 583;
},
{
anchors = (
{
name = bottom;
pos = (338,0);
},
{
name = center;
pos = (338,330);
},
{
name = top;
pos = (338,660);
}
);
layerId = "013925A1-B736-4B8B-AD25-E95AD017ACB4";
shapes = (
{
closed = 1;
nodes = (
(452,-12,o),
(504,-1,o),
(563,19,c),
(586,36,o),
(662,93,o),
(662,189,c),
(662,307,o),
(554,333,o),
(492,345,c),
(529,355,o),
(561,374,o),
(584,399,cs),
(612,430,o),
(628,469,o),
(628,510,cs),
(628,605,o),
(531,651,o),
(507,661,c),
(488,664,o),
(456,666,o),
(430,666,cs),
(322,666,o),
(153,664,o),
(30,660,c),
(26,647,o),
(25,635,o),
(25,622,c),
(79,602,l),
(86,513,o),
(87,393,o),
(87,290,cs),
(87,216,o),
(84,124,o),
(79,49,c),
(25,38,l),
(25,24,o),
(26,9,o),
(30,-5,c),
(90,-2,o),
(149,0,o),
(209,0,c),
(260,-5,o),
(340,-12,o),
(398,-12,cs)
);
},
{
closed = 1;
nodes = (
(367,59,o),
(343,58,o),
(318,57,c),
(314,119,o),
(313,177,o),
(313,305,c),
(326,305,o),
(340,305,o),
(353,305,cs),
(366,305,o),
(379,305,o),
(393,305,c),
(404,295,o),
(437,262,o),
(437,186,cs),
(437,142,o),
(434,113,o),
(431,94,c),
(421,84,o),
(408,71,o),
(392,60,c)
);
},
{
closed = 1;
nodes = (
(313,442,o),
(315,530,o),
(319,591,c),
(324,593,o),
(334,596,o),
(349,599,cs),
(360,601,o),
(372,603,o),
(386,604,c),
(406,570,o),
(418,504,o),
(418,447,cs),
(418,422,o),
(416,415,o),
(411,398,c),
(403,390,o),
(395,382,o),
(387,374,c),
(375,374,o),
(362,374,o),
(350,374,c),
(338,374,o),
(325,374,o),
(313,374,c)
);
}
);
width = 675;
},
{
anchors = (
{
name = bottom;
pos = (266,0);
},
{
name = center;
pos = (266,320);
},
{
name = top;
pos = (266,640);
}
);
background = {
shapes = (
{
closed = 1;
nodes = (
(120,-1,o),
(195,2,o),
(230,1,c),
(196,14,l),
(163,21,l),
(162,89,o),
(160,242,o),
(161,330,cs),
(161,433,o),
(163,547,o),
(166,620,c),
(283,632,l),
(283,638,o),
(282,644,o),
(281,646,c),
(198,641,o),
(123,638,o),
(36,640,c),
(35,636,o),
(34,631,o),
(34,627,c),
(143,619,l),
(145,533,o),
(142,409,o),
(143,330,cs),
(143,241,o),
(142,112,o),
(142,19,c),
(35,7,l),
(35,1,o),
(36,-4,o),
(37,-6,c)
);
},
{
closed = 1;
nodes = (
(406,6,o),
(507,64,o),
(507,174,cs),
(507,219,o),
(484,276,o),
(445,313,c),
(414,331,o),
(342,346,o),
(295,343,c),
(257,341,o),
(198,337,o),
(153,337,c),
(153,326,l),
(201,327,o),
(269,324,o),
(301,326,cs),
(343,326,o),
(392,314,o),
(430,298,c),
(467,265,o),
(485,216,o),
(485,174,cs),
(486,103,o),
(437,42,o),
(339,17,c),
(250,6,o),
(214,14,o),
(156,22,c),
(149,3,l),
(204,1,o),
(244,-8,o),
(311,-3,cs)
);
},
{
closed = 1;
nodes = (
(380,337,o),
(471,390,o),
(471,491,cs),
(471,544,o),
(443,588,o),
(406,621,c),
(378,637,o),
(322,649,o),
(280,646,c),
(246,644,o),
(166,638,o),
(149,638,c),
(149,636,l),
(154,619,l),
(193,626,o),
(257,629,o),
(286,631,cs),
(323,631,o),
(357,624,o),
(393,607,c),
(428,578,o),
(451,542,o),
(451,491,cs),
(451,426,o),
(408,370,o),
(320,347,c),
(240,337,o),
(183,341,o),
(151,341,c),
(151,324,l),
(173,324,o),
(196,324,o),
(222,324,c),
(245,324,o),
(270,327,o),
(295,329,cs)
);
}
);
};
hints = (
{
place = (151, 81);
place = (151, 81);
type = Stem;
},
{
place = (434, 85);
place = (434, 85);
type = Stem;
},
{
place = (457, 98);
place = (457, 98);
type = Stem;
},
{
horizontal = 1;
place = (-12, 55);
place = (-12, 55);
type = Stem;
},
{
horizontal = 1;
place = (652, -20);
target = down;
type = TopGhost;
},
{
horizontal = 1;
place = (640, -20);
target = down;
type = TopGhost;
},
{
horizontal = 1;
place = (-9, 21);
target = up;
type = BottomGhost;
},
{
place = (146, 83);
place = (146, 83);
type = Stem;
},
{
horizontal = 1;
place = (-9, 21);
target = up;
type = BottomGhost;
},
{
horizontal = 1;
place = (0, 21);
target = up;
type = BottomGhost;
},
{
horizontal = 1;
place = (649, -20);
target = down;
type = TopGhost;
},
{
horizontal = 1;
place = (640, -20);
target = down;
type = TopGhost;
},
{
place = (147, 85);
place = (147, 85);
type = Stem;
},
{
place = (556, 86);
place = (556, 86);
type = Stem;
},
{
horizontal = 1;
place = (296, 63);
place = (296, 63);
type = Stem;
},
{
horizontal = 1;
place = (-9, 21);
target = up;
type = BottomGhost;
},
{
horizontal = 1;
place = (0, 21);
target = up;
type = BottomGhost;
},
{
horizontal = 1;
place = (649, -20);
target = down;
type = TopGhost;
},
{
horizontal = 1;
place = (640, -20);
target = down;
type = TopGhost;
}
);
layerId = "897B5A99-9760-4657-AC3F-5CEB049E61B1";
shapes = (
{
closed = 1;
nodes = (
(379,-6,o),
(430,20,o),
(449,34,c),
(489,74,o),
(513,119,o),
(513,182,cs),
(513,270,o),
(445,330,o),
(376,342,c),
(381,346,o),
(417,374,o),
(428,386,c),
(458,429,o),
(470,459,o),
(470,491,cs),
(470,550,o),
(440,599,o),
(396,628,c),
(375,640,o),
(328,646,o),
(286,646,cs),
(214,646,o),
(117,640,o),
(48,640,c),
(47,636,o),
(46,631,o),
(46,627,c),
(143,619,l),
(145,533,o),
(143,409,o),
(143,330,cs),
(143,226,o),
(142,121,o),
(142,17,c),
(35,9,l),
(35,3,o),
(36,-2,o),
(37,-4,c),
(93,-3,o),
(132,-3,o),
(151,-2,c),
(177,-3,o),
(251,-6,o),
(322,-6,cs)
);
},
{
closed = 1;
nodes = (
(329,10,o),
(217,11,o),
(163,17,c),
(162,87,o),
(160,234,o),
(161,322,c),
(232,323,o),
(265,324,o),
(286,324,cs),
(330,324,o),
(368,323,o),
(388,319,c),
(443,297,o),
(492,255,o),
(492,178,cs),
(492,132,o),
(476,94,o),
(440,52,c),
(429,44,o),
(402,27,o),
(356,15,c)
);
},
{
closed = 1;
nodes = (
(161,442,o),
(163,550,o),
(166,620,c),
(200,623,o),
(245,627,o),
(284,627,cs),
(324,627,o),
(367,619,o),
(379,614,c),
(420,588,o),
(449,542,o),
(449,491,cs),
(449,437,o),
(411,392,o),
(386,373,cs),
(362,354,o),
(343,346,o),
(339,344,c),
(311,343,o),
(286,342,o),
(251,342,cs),
(220,342,o),
(193,342,o),
(161,342,c)
);
}
);
width = 531;
}
);
metricLeft = H;
metricRight = "=H/2";
unicode = 66;
},
{
color = 4;
glyphname = C;
kernLeft = O;
kernRight = C;
lastChange = "2022-12-16 16:04:31 +0000";
layers = (
{
anchors = (
{
name = bottom;
pos = (310,0);
},
{
name = top;
pos = (328,652);
}
);
background = {
shapes = (
{
closed = 1;
nodes = (
(489,636,o),
(394,652,o),
(342,652,cs),
(263,643,o),
(190,600,o),
(135,540,cs),
(74,473,o),
(35,385,o),
(35,297,cs),
(35,153,o),
(156,-12,o),
(305,-12,cs),
(405,-2,o),
(491,37,o),
(561,92,c),
(554,103,l),
(546,118,l),
(540,129,l),
(477,104,o),
(385,62,o),
(313,62,c),
(198,108,o),
(133,204,o),
(133,326,cs),
(133,429,o),
(170,512,o),
(215,557,c),
(244,568,o),
(291,574,o),
(340,574,cs),
(389,574,o),
(419,566,o),
(453,551,c),
(479,450,l),
(484,444,l),
(532,450,l),
(538,609,l),
(534,618,l)
);
}
);
};
hints = (
{
place = (40, 98);
place = (40, 98);
type = Stem;
},
{
horizontal = 1;
place = (574, 78);
place = (574, 78);
type = Stem;
},
{
horizontal = 1;
place = (-12, 21);
target = up;
type = BottomGhost;
}
);
layerId = UUID0;
shapes = (
{
closed = 1;
nodes = (
(405,-2,o),
(491,37,o),
(561,92,c),
(540,129,l),
(477,104,o),
(385,62,o),
(313,62,c),
(198,108,o),
(133,204,o),
(133,326,cs),
(133,429,o),
(170,512,o),
(215,557,c),
(244,568,o),
(291,574,o),
(340,574,cs),
(389,574,o),
(419,566,o),
(453,551,c),
(479,450,l),
(484,444,l),
(532,450,l),
(538,609,l),
(534,618,l),
(489,636,o),
(394,652,o),
(342,652,cs),
(263,643,o),
(190,600,o),
(135,540,cs),
(74,473,o),
(35,385,o),
(35,297,cs),
(35,153,o),
(156,-12,o),
(305,-12,cs)
);
}
);
width = 601;
},
{
anchors = (
{
name = bottom;
pos = (324,0);
},
{
name = top;
pos = (344,660);
}
);
background = {
shapes = (
{
closed = 1;
nodes = (
(556,660,o),
(486,670,o),
(421,670,cs),
(298,670,o),
(162,634,o),
(94,584,c),
(53,508,o),
(34,433,o),
(34,320,cs),
(34,104,o),
(137,-11,o),
(359,-11,cs),
(428,-11,o),
(529,-1,o),
(624,32,c),
(604,117,l),
(415,80,o),
(420,77,o),
(358,77,c),
(312,111,o),
(284,191,o),
(284,336,cs),
(284,446,o),
(299,528,o),
(315,577,c),
(333,581,o),
(352,584,o),
(370,585,cs),
(389,587,o),
(407,588,o),
(426,588,c),
(463,426,l),
(468,402,l),
(604,410,l),
(626,625,l),
(627,637,l)
);
}
);
};
layerId = "013925A1-B736-4B8B-AD25-E95AD017ACB4";
shapes = (
{
closed = 1;
nodes = (
(468,-11,o),
(563,20,o),
(665,95,c),
(634,149,l),
(542,105,o),
(450,77,o),
(358,77,c),
(312,111,o),
(284,191,o),
(284,336,cs),
(284,446,o),
(299,528,o),
(315,577,c),
(333,581,o),
(352,584,o),
(370,585,cs),
(389,587,o),
(407,588,o),
(426,588,c),
(463,426,l),
(468,402,l),
(604,410,l),
(626,625,l),
(627,637,l),
(556,660,o),
(486,670,o),
(421,670,cs),
(298,670,o),
(162,634,o),
(94,584,c),
(53,508,o),
(34,433,o),
(34,320,cs),
(34,104,o),
(137,-11,o),
(359,-11,cs)
);
}
);
width = 672;
},
{
anchors = (
{
name = bottom;
pos = (310,0);
},
{
name = top;
pos = (328,652);
}
);
associatedMasterId = UUID0;
attr = {
axisRules = (
{
min = 112;
}
);
};
background = {
shapes = (
{
closed = 1;
nodes = (
(489,636,o),
(394,652,o),
(342,652,cs),
(263,643,o),
(190,600,o),
(135,540,cs),
(74,473,o),
(35,385,o),
(35,297,cs),
(35,153,o),
(156,-12,o),
(305,-12,cs),
(405,-2,o),
(491,37,o),
(561,92,c),
(554,103,l),
(546,118,l),
(540,129,l),
(477,104,o),
(385,62,o),
(313,62,c),
(198,108,o),
(133,204,o),
(133,326,cs),
(133,429,o),
(170,512,o),
(215,557,c),
(244,568,o),
(291,574,o),
(340,574,cs),
(389,574,o),
(419,566,o),
(453,551,c),
(479,450,l),
(484,444,l),
(532,450,l),
(538,609,l),
(534,618,l)
);
}
);
};
hints = (
{
place = (40, 98);
place = (40, 98);
type = Stem;
},
{
horizontal = 1;
place = (574, 78);
place = (574, 78);
type = Stem;
},
{
horizontal = 1;
place = (-12, 21);
target = up;
type = BottomGhost;
}
);
layerId = "44D89361-07AC-473A-B92E-5719C952F74F";
name = "[65]";
shapes = (
{
closed = 1;
nodes = (
(402,-2,o),
(487,36,o),
(556,88,c),
(552,203,l),
(501,209,l),
(473,102,l),
(421,82,o),
(362,62,o),
(313,62,c),
(198,108,o),
(133,204,o),
(133,326,cs),
(133,429,o),
(170,512,o),
(215,557,c),
(244,568,o),
(291,574,o),
(340,574,cs),
(389,574,o),
(419,566,o),
(453,551,c),
(479,450,l),
(484,444,l),
(532,450,l),
(538,609,l),
(534,618,l),
(489,636,o),
(394,652,o),
(342,652,c),
(263,643,o),
(190,600,o),
(135,540,cs),
(74,473,o),
(35,385,o),
(35,297,cs),
(35,153,o),
(156,-12,o),
(305,-12,c)
);
}
);
width = 601;
},
{
anchors = (
{
name = bottom;
pos = (324,0);
},
{
name = top;
pos = (324,660);
}
);
associatedMasterId = "013925A1-B736-4B8B-AD25-E95AD017ACB4";
attr = {
axisRules = (
{
min = 112;
}
);
};
layerId = "F9149FDF-6002-4A51-A7BF-E3CE4B373D55";
name = "[65]";
shapes = (
{
closed = 1;
nodes = (
(428,-11,o),
(529,-1,o),
(624,32,c),
(624,249,l),
(488,257,l),
(452,85,l),
(431,79,o),
(409,77,o),
(358,77,c),
(312,111,o),
(284,191,o),
(284,336,cs),
(284,446,o),
(299,528,o),
(315,577,c),
(333,581,o),
(352,584,o),
(370,585,cs),
(389,587,o),
(407,588,o),
(426,588,c),
(463,426,l),
(468,402,l),
(604,410,l),
(626,625,l),
(627,637,l),
(556,660,o),
(486,670,o),
(421,670,cs),
(298,670,o),
(162,634,o),
(94,584,c),
(53,508,o),
(34,433,o),
(34,320,cs),
(34,104,o),
(137,-11,o),
(359,-11,cs)
);
}
);
width = 672;
},
{
anchors = (
{
name = bottom;
pos = (301,0);
},
{
name = top;
pos = (319,652);
}
);
background = {
shapes = (
{
closed = 1;
nodes = (
(480,636,o),
(385,652,o),
(333,652,cs),
(254,643,o),
(181,600,o),
(126,540,cs),
(65,473,o),
(26,385,o),
(26,297,cs),
(26,153,o),
(147,-12,o),
(296,-12,cs),
(396,-2,o),
(482,37,o),
(552,92,c),
(545,103,l),
(537,118,l),
(531,129,l),
(468,104,o),
(376,62,o),
(304,62,c),
(189,108,o),
(124,204,o),
(124,326,cs),
(124,429,o),
(161,512,o),
(206,557,c),
(235,568,o),
(282,574,o),
(331,574,cs),
(380,574,o),
(410,566,o),
(444,551,c),
(470,450,l),
(475,444,l),
(523,450,l),
(529,609,l),
(525,618,l)
);
}
);
};
hints = (
{
place = (40, 98);
place = (40, 98);
type = Stem;
},
{
horizontal = 1;
place = (574, 78);
place = (574, 78);
type = Stem;
},
{
horizontal = 1;
place = (-12, 21);
target = up;
type = BottomGhost;
},
{
place = (42, 84);
place = (42, 84);
type = Stem;
},
{
horizontal = 1;
place = (-12, 69);
place = (-12, 69);
type = Stem;
},
{
horizontal = 1;
place = (406, 56);
place = (406, 56);
type = Stem;
},
{
place = (32, 86);
place = (32, 86);
type = Stem;
},
{
place = (339, 80);
place = (339, 80);
type = Stem;
},
{
horizontal = 1;
place = (474, -20);
target = down;
type = TopGhost;
},
{
horizontal = 1;
place = (462, -20);
target = down;
type = TopGhost;
},
{
horizontal = 1;
place = (-12, 21);
target = up;
type = BottomGhost;
},
{
horizontal = 1;
place = (-212, 21);
target = up;
type = BottomGhost;
},
{
place = (55, 80);
place = (55, 80);
type = Stem;
},
{
place = (367, 82);
place = (367, 82);
type = Stem;
},
{
horizontal = 1;
place = (-12, 21);
target = up;
type = BottomGhost;
},
{
horizontal = 1;
place = (462, -20);
target = down;
type = TopGhost;
},
{
place = (42, 84);
place = (42, 84);
type = Stem;
},
{
horizontal = 1;
place = (-12, 69);
place = (-12, 69);
type = Stem;
},
{
horizontal = 1;
place = (205, 41);
place = (205, 41);
type = Stem;
},
{
horizontal = 1;
place = (462, -20);
target = down;
type = TopGhost;
},
{
place = (485, 84);
place = (485, 84);
type = Stem;
},
{
horizontal = 1;
place = (-12, 69);
place = (-12, 69);
type = Stem;
},
{
horizontal = 1;
place = (205, 41);
place = (205, 41);
type = Stem;
},
{
horizontal = 1;
place = (462, -20);
target = down;
type = TopGhost;
}
);
layerId = "897B5A99-9760-4657-AC3F-5CEB049E61B1";
shapes = (
{
closed = 1;
nodes = (
(394,-6,o),
(469,12,o),
(530,64,c),
(520,78,l),
(456,33,o),
(393,9,o),
(283,15,c),
(134,43,o),
(71,159,o),
(73,300,cs),
(74,381,o),
(101,485,o),
(152,555,c),
(203,593,o),
(269,623,o),
(328,627,cs),
(370,630,o),
(453,613,o),
(490,600,c),
(495,451,l),
(499,447,l),
(511,449,l),
(511,611,l),
(511,616,l),
(451,634,o),
(384,648,o),
(335,646,cs),
(272,645,o),
(178,604,o),
(137,566,c),
(85,494,o),
(54,384,o),
(54,295,cs),
(54,89,o),
(188,-5,o),
(314,-6,cs)
);
}
);
width = 592;
},
{
anchors = (
{
name = bottom;
pos = (329,0);
},
{
name = top;
pos = (347,652);
}
);
associatedMasterId = "897B5A99-9760-4657-AC3F-5CEB049E61B1";
attr = {
axisRules = (
{
min = 112;
}
);
};
background = {
shapes = (
{
closed = 1;
nodes = (
(508,636,o),
(413,652,o),
(361,652,cs),
(282,643,o),
(209,600,o),
(154,540,cs),
(93,473,o),
(54,385,o),
(54,297,cs),
(54,153,o),
(175,-12,o),
(324,-12,cs),
(424,-2,o),
(510,37,o),
(580,92,c),
(573,103,l),
(565,118,l),
(559,129,l),
(496,104,o),
(404,62,o),
(332,62,c),
(217,108,o),
(152,204,o),
(152,326,cs),
(152,429,o),
(189,512,o),
(234,557,c),
(263,568,o),
(310,574,o),
(359,574,cs),
(408,574,o),
(438,566,o),
(472,551,c),
(498,450,l),
(503,444,l),
(551,450,l),
(557,609,l),
(553,618,l)
);
}
);
};
hints = (
{
place = (40, 98);
place = (40, 98);
type = Stem;
},
{
horizontal = 1;
place = (574, 78);
place = (574, 78);
type = Stem;
},
{
horizontal = 1;
place = (-12, 21);
target = up;
type = BottomGhost;
}
);
layerId = "7138B02B-620A-4DBD-A88E-2CD912CE6D6C";
name = "[65]";
shapes = (
{
closed = 1;
nodes = (
(421,-2,o),
(506,36,o),
(575,88,c),
(571,203,l),
(520,209,l),
(492,102,l),
(440,82,o),
(381,62,o),
(332,62,c),
(217,108,o),
(152,204,o),
(152,326,cs),
(152,429,o),
(189,512,o),
(234,557,c),
(263,568,o),
(310,574,o),
(359,574,cs),
(408,574,o),
(438,566,o),
(472,551,c),
(498,450,l),
(503,444,l),
(551,450,l),
(557,609,l),
(553,618,l),
(508,636,o),
(413,652,o),
(361,652,c),
(282,643,o),
(209,600,o),
(154,540,cs),
(93,473,o),
(54,385,o),
(54,297,cs),
(54,153,o),
(175,-12,o),
(324,-12,c)
);
}
);
width = 620;
}
);
metricLeft = O;
unicode = 67;
},
{
color = 4;
glyphname = D;
kernLeft = H;
kernRight = O;
lastChange = "2022-12-16 16:04:31 +0000";
layers = (
{
anchors = (
{
name = bottom;
pos = (354,0);
},
{
name = center;
pos = (354,320);
},
{
name = top;
pos = (354,640);
}
);
background = {
shapes = (
{
closed = 1;
nodes = (
(242,143,o),
(241,273,o),
(241,355,cs),
(241,464,o),
(253,542,o),
(258,573,c),
(286,582,o),
(344,591,o),
(395,591,c),
(510,545,o),
(575,436,o),
(575,314,cs),
(575,211,o),
(518,115,o),
(473,70,c),
(437,57,o),
(400,52,o),
(362,52,cs),
(323,52,o),
(283,58,o),
(248,67,c)
);
},
{
closed = 1;
nodes = (
(64,-9,c),
(176,-9,o),
(234,-12,o),
(366,-12,cs),
(533,8,o),
(673,177,o),
(673,343,cs),
(673,487,o),
(552,652,o),
(403,652,c),
(340,652,o),
(236,640,o),
(69,640,cs),
(69,640,o),
(64,625,o),
(64,602,c),
(149,568,l),
(153,540,o),
(162,468,o),
(162,351,cs),
(162,240,o),
(155,126,o),
(150,59,c),
(58,38,l),
(58,19,o),
(64,-9,o)
);
}
);
};
hints = (
{
place = (151, 91);
place = (151, 91);
type = Stem;
},
{
place = (163, 79);
place = (163, 79);
type = Stem;
},
{
place = (576, 98);
place = (576, 98);
type = Stem;
},
{
horizontal = 1;
place = (-12, 64);
place = (-12, 64);
type = Stem;
},
{
horizontal = 1;
place = (591, 61);
place = (591, 61);
type = Stem;
},
{
horizontal = 1;
place = (640, -20);
target = down;
type = TopGhost;
},
{
horizontal = 1;
place = (-9, 21);
target = up;
type = BottomGhost;
}
);
layerId = UUID0;
shapes = (
{
closed = 1;
nodes = (
(300,-12,o),
(331,-12,o),
(366,-12,c),
(418,-6,o),
(467,15,o),
(510,45,cs),
(606,112,o),
(673,228,o),
(673,343,cs),
(673,487,o),
(552,652,o),
(403,652,c),
(340,652,o),
(236,640,o),
(69,640,cs),
(69,640,o),
(64,625,o),
(64,602,c),
(149,568,l),
(153,540,o),
(162,468,o),
(162,351,cs),
(162,240,o),
(155,127,o),
(150,59,c),
(58,38,l),
(58,22,o),
(60,7,o),
(64,-9,c),
(97,-9,o),
(228,-11,o),
(273,-12,cs)
);
},
{
closed = 1;
nodes = (
(323,52,o),
(283,58,o),
(248,67,c),
(242,143,o),
(241,273,o),
(241,355,cs),
(241,464,o),
(253,542,o),
(258,573,c),
(286,582,o),
(344,591,o),
(395,591,c),
(510,545,o),
(575,436,o),
(575,314,cs),
(575,211,o),
(518,115,o),
(473,70,c),
(437,57,o),
(400,52,o),
(362,52,cs)
);
}
);
width = 707;
},
{
anchors = (
{
name = bottom;
pos = (373,0);
},
{
name = center;
pos = (373,330);
},
{
name = top;
pos = (373,660);
}
);
background = {
shapes = (
{
closed = 1;
nodes = (
(29,9,o),
(27,24,o),
(25,38,c),
(79,54,l),
(84,129,o),
(87,216,o),
(87,290,cs),
(87,393,o),
(87,513,o),
(80,602,c),
(25,622,l),
(27,635,o),
(28,647,o),
(30,660,c),
(159,664,o),
(304,665,o),
(433,665,cs),
(626,665,o),
(721,526,o),
(721,359,cs),
(721,266,o),
(692,161,o),
(634,60,c),
(559,12,o),
(481,-8,o),
(390,-8,cs),
(370,-8,o),
(350,-7,o),
(329,-5,cs),
(315,-4,o),
(172,0,o),
(139,0,cs),
(107,0,o),
(71,-2,o),
(31,-5,c)
);
},
{
closed = 1;
nodes = (
(326,66,o),
(336,66,o),
(347,66,cs),
(374,66,o),
(405,68,o),
(422,74,c),
(450,147,o),
(471,252,o),
(471,356,cs),
(471,454,o),
(452,555,o),
(402,593,c),
(383,593,o),
(332,590,o),
(320,585,c),
(315,509,o),
(313,402,o),
(313,333,c),
(313,255,ls),
(313,186,o),
(314,132,o),
(318,67,c)
);
}
);
};
layerId = "013925A1-B736-4B8B-AD25-E95AD017ACB4";
shapes = (
{
closed = 1;
nodes = (
(167,0,o),
(383,-8,o),
(390,-8,cs),
(481,-8,o),
(559,12,o),
(634,60,c),
(692,161,o),
(721,266,o),
(721,359,cs),
(721,526,o),
(626,665,o),
(433,665,cs),
(304,665,o),
(159,664,o),
(30,660,c),
(26,647,o),
(25,635,o),
(25,622,c),
(80,602,l),
(87,513,o),
(87,393,o),
(87,290,cs),
(87,216,o),
(84,129,o),
(79,54,c),
(25,38,l),
(25,24,o),
(27,9,o),
(31,-5,c),
(67,-3,o),
(103,0,o),
(139,0,cs)
);
},
{
closed = 1;
nodes = (
(336,66,o),
(326,66,o),
(318,67,c),
(314,132,o),
(313,186,o),
(313,255,cs),
(313,408,o),
(315,512,o),
(320,585,c),
(332,590,o),
(383,593,o),
(402,593,c),
(452,555,o),
(471,454,o),
(471,356,cs),
(471,252,o),
(450,147,o),
(422,74,c),
(405,68,o),
(374,66,o),
(347,66,cs)
);
}
);
width = 745;
},
{
anchors = (
{
name = bottom;
pos = (354,0);
},
{
name = center;
pos = (354,320);
},
{
name = top;
pos = (354,640);
}
);
background = {
shapes = (
{
closed = 1;
nodes = (
(135,3,o),
(167,0,o),
(217,0,cs),
(265,0,o),
(314,0,o),
(362,0,cs),
(415,0,o),
(502,41,o),
(554,97,c),
(610,167,o),
(643,230,o),
(643,348,cs),
(644,508,o),
(520,645,o),
(366,647,cs),
(362,647,ls),
(317,646,o),
(144,640,o),
(38,640,c),
(37,636,o),
(35,631,o),
(35,627,c),
(135,619,l),
(137,531,o),
(135,409,o),
(135,330,cs),
(135,225,o),
(134,121,o),
(134,19,c),
(37,11,l),
(37,5,o),
(38,-2,o),
(39,-4,c)
);
},
{
closed = 1;
nodes = (
(343,16,o),
(195,18,o),
(155,20,c),
(154,122,o),
(154,222,o),
(153,324,cs),
(152,442,o),
(155,549,o),
(158,620,c),
(272,627,o),
(310,629,o),
(367,629,cs),
(506,629,o),
(625,500,o),
(624,346,cs),
(624,243,o),
(589,168,o),
(541,111,cs),
(498,60,o),
(411,22,o),
(373,19,cs)
);
}
);
};
hints = (
{
place = (151, 91);
place = (151, 91);
type = Stem;
},
{
place = (163, 79);
place = (163, 79);
type = Stem;
},
{
place = (576, 98);
place = (576, 98);
type = Stem;
},
{
horizontal = 1;
place = (-12, 64);
place = (-12, 64);
type = Stem;
},
{
horizontal = 1;
place = (591, 61);
place = (591, 61);
type = Stem;
},
{
horizontal = 1;
place = (640, -20);
target = down;
type = TopGhost;
},
{
horizontal = 1;
place = (-9, 21);
target = up;
type = BottomGhost;
},
{
place = (147, 86);
place = (147, 86);
type = Stem;
},
{
horizontal = 1;
place = (0, 57);
place = (0, 57);
type = Stem;
},
{
horizontal = 1;
place = (295, 60);
place = (295, 60);
type = Stem;
},
{
horizontal = 1;
place = (586, 54);
place = (586, 54);
type = Stem;
},
{
horizontal = 1;
place = (462, -20);
target = down;
type = TopGhost;
},
{
horizontal = 1;
place = (649, -20);
target = down;
type = TopGhost;
},
{
horizontal = 1;
place = (-9, 21);
target = up;
type = BottomGhost;
},
{
place = (158, 83);
place = (158, 83);
type = Stem;
},
{
horizontal = 1;
place = (0, 57);
place = (0, 57);
type = Stem;
},
{
horizontal = 1;
place = (649, -20);
target = down;
type = TopGhost;
},
{
horizontal = 1;
place = (640, -20);
target = down;
type = TopGhost;
},
{
horizontal = 1;
place = (-9, 21);
target = up;
type = BottomGhost;
},
{
place = (149, 83);
place = (149, 83);
type = Stem;
},
{
horizontal = 1;
place = (-9, 21);
target = up;
type = BottomGhost;
},
{
horizontal = 1;
place = (0, 21);
target = up;
type = BottomGhost;
},
{
horizontal = 1;
place = (649, -20);
target = down;
type = TopGhost;
},
{
horizontal = 1;
place = (640, -20);
target = down;
type = TopGhost;
},
{
place = (150, 85);
place = (150, 85);
type = Stem;
},
{
place = (559, 86);
place = (559, 86);
type = Stem;
},
{
horizontal = 1;
place = (296, 63);
place = (296, 63);
type = Stem;
},
{
horizontal = 1;
place = (-9, 21);
target = up;
type = BottomGhost;
},
{
horizontal = 1;
place = (0, 21);
target = up;
type = BottomGhost;
},
{
horizontal = 1;
place = (649, -20);
target = down;
type = TopGhost;
},
{
horizontal = 1;
place = (640, -20);
target = down;
type = TopGhost;
},
{
place = (82, 98);
place = (82, 98);
type = Stem;
},
{
place = (564, 98);
place = (564, 98);
type = Stem;
},
{
horizontal = 1;
place = (574, 78);
place = (574, 78);
type = Stem;
},
{
horizontal = 1;
place = (-12, 21);
target = up;
type = BottomGhost;
},
{
place = (102, 80);
place = (102, 80);
type = Stem;
},
{
place = (414, 82);
place = (414, 82);
type = Stem;
},
{
horizontal = 1;
place = (-12, 21);
target = up;
type = BottomGhost;
},
{
horizontal = 1;
place = (462, -20);
target = down;
type = TopGhost;
},
{
place = (89, 84);
place = (89, 84);
type = Stem;
},
{
horizontal = 1;
place = (-12, 69);
place = (-12, 69);
type = Stem;
},
{
horizontal = 1;
place = (205, 41);
place = (205, 41);
type = Stem;
},
{
horizontal = 1;
place = (462, -20);
target = down;
type = TopGhost;
}
);
layerId = "897B5A99-9760-4657-AC3F-5CEB049E61B1";
shapes = (
{
closed = 1;
nodes = (
(265,0,o),
(317,0,o),
(370,0,c),
(411,4,o),
(471,25,o),
(524,70,cs),
(589,125,o),
(643,215,o),
(643,348,cs),
(644,508,o),
(520,647,o),
(366,647,cs),
(317,647,o),
(144,640,o),
(38,640,c),
(37,636,o),
(35,631,o),
(35,627,c),
(135,619,l),
(137,531,o),
(135,409,o),
(135,330,cs),
(135,225,o),
(134,121,o),
(134,19,c),
(37,11,l),
(37,5,o),
(38,-2,o),
(39,-4,c),
(135,3,o),
(167,0,o),
(217,0,cs)
);
},
{
closed = 1;
nodes = (
(343,16,o),
(195,18,o),
(155,20,c),
(154,122,o),
(154,222,o),
(153,324,cs),
(152,442,o),
(155,549,o),
(158,620,c),
(272,627,o),
(310,629,o),
(367,629,cs),
(506,629,o),
(625,500,o),
(624,346,cs),
(624,237,o),
(579,142,o),
(511,84,cs),
(473,51,o),
(424,28,o),
(373,19,c)
);
}
);
width = 707;
}
);
metricLeft = H;
unicode = 68;
},
{
color = 3;
glyphname = Eth;
kernLeft = H;
kernRight = O;
lastChange = "2022-12-16 16:04:31 +0000";
layers = (
{
hints = (
{
place = (163, 79);
place = (163, 79);
type = Stem;
},
{
place = (576, 98);
place = (576, 98);
type = Stem;
},
{
horizontal = 1;
place = (-12, 64);
place = (-12, 64);
type = Stem;
},
{
horizontal = 1;
place = (291, 53);
place = (291, 53);
type = Stem;
},
{
horizontal = 1;
place = (591, 61);
place = (591, 61);
type = Stem;
},
{
horizontal = 1;
place = (640, -20);
target = down;
type = TopGhost;
},
{
horizontal = 1;
place = (-9, 21);
target = up;
type = BottomGhost;
}
);
layerId = UUID0;
shapes = (
{
closed = 1;
nodes = (
(403,332,l),
(389,344,l),
(73,344,l),
(66,301,l),
(73,292,l),
(192,292,o),
(360,291,o),
(396,289,c)
);
},
{
ref = D;
}
);
width = 707;
},
{
layerId = "013925A1-B736-4B8B-AD25-E95AD017ACB4";
shapes = (
{
closed = 1;
nodes = (
(428,363,l),
(418,372,l),
(28,372,l),
(25,294,l),
(36,281,l),
(165,284,o),
(295,287,o),
(424,289,c)
);
},
{
pos = (40,0);
ref = D;
}
);
width = 785;
},
{
hints = (
{
place = (163, 79);
place = (163, 79);
type = Stem;
},
{
place = (576, 98);
place = (576, 98);
type = Stem;
},
{
horizontal = 1;
place = (-12, 64);
place = (-12, 64);
type = Stem;
},
{
horizontal = 1;
place = (291, 53);
place = (291, 53);
type = Stem;
},
{
horizontal = 1;
place = (591, 61);
place = (591, 61);
type = Stem;
},
{
horizontal = 1;
place = (640, -20);
target = down;
type = TopGhost;
},
{
horizontal = 1;
place = (-9, 21);
target = up;
type = BottomGhost;
}
);
layerId = "897B5A99-9760-4657-AC3F-5CEB049E61B1";
shapes = (
{
closed = 1;
nodes = (
(388,337,l),
(383,343,l),
(77,339,l),
(73,328,l),
(76,322,l),
(183,324,o),
(286,323,o),
(384,323,c)
);
},
{
ref = D;
}
);
width = 707;
}
);
metricLeft = D;
metricRight = D;
unicode = 208;
},
{
color = 4;
glyphname = E;
kernLeft = H;
kernRight = E;
lastChange = "2022-12-16 16:04:31 +0000";
layers = (
{
anchors = (
{
name = bottom;
pos = (313,0);
},
{
name = ogonek;
pos = (563,10);
},
{
name = top;
pos = (313,640);
},
{
name = topleft;
pos = (20,640);
}
);
background = {
shapes = (
{
closed = 1;
nodes = (
(234,435,o),
(236,514,o),
(239,574,c),
(263,576,o),
(357,586,o),
(429,586,c),
(466,473,l),
(470,462,l),
(501,462,o),
(517,470,o),
(517,470,c),
(511,649,l),
(511,649,o),
(345,640,o),
(64,640,cs),
(64,640,o),
(58,623,o),
(58,596,c),
(141,574,l),
(145,398,o),
(145,234,o),
(146,54,c),
(60,38,l),
(60,19,o),
(66,-9,o),
(66,-9,c),
(66,-9,o),
(184,0,o),
(305,0,cs),
(445,0,o),
(540,-6,o),
(540,-6,c),
(547,170,l),
(547,170,o),
(531,178,o),
(500,178,c),
(469,74,l),
(419,64,o),
(317,57,o),
(230,57,c),
(230,122,o),
(230,213,o),
(231,295,c),
(303,294,o),
(362,292,o),
(426,289,c),
(452,310,l),
(452,358,l),
(232,353,l)
);
}
);
};
hints = (
{
place = (147, 86);
place = (147, 86);
type = Stem;
},
{
horizontal = 1;
place = (0, 57);
place = (0, 57);
type = Stem;
},
{
horizontal = 1;
place = (295, 60);
place = (295, 60);
type = Stem;
},
{
horizontal = 1;
place = (586, 54);
place = (586, 54);
type = Stem;
},
{
horizontal = 1;
place = (462, -20);
target = down;
type = TopGhost;
},
{
horizontal = 1;
place = (649, -20);
target = down;
type = TopGhost;
},
{
horizontal = 1;
place = (-9, 21);
target = up;
type = BottomGhost;
}
);
layerId = UUID0;
shapes = (
{
closed = 1;
nodes = (
(146,-4,o),
(225,0,o),
(305,0,cs),
(383,0,o),
(462,-2,o),
(540,-6,c),
(540,4,l),
(547,164,l),
(547,170,l),
(531,175,o),
(516,177,o),
(500,178,c),
(469,74,l),
(419,64,o),
(317,57,o),
(230,57,c),
(231,295,l),
(446,289,l),
(452,332,l),
(426,357,l),
(232,353,l),
(234,435,o),
(236,514,o),
(239,574,c),
(263,576,o),
(357,586,o),
(429,586,c),
(466,473,l),
(470,462,l),
(486,462,o),
(501,464,o),
(517,470,c),
(511,641,l),
(511,649,l),
(362,643,o),
(213,640,o),
(64,640,c),
(60,625,o),
(58,611,o),
(58,596,c),
(141,574,l),
(143,484,o),
(144,397,o),
(145,310,cs),
(145,226,o),
(146,142,o),
(146,54,c),
(60,38,l),
(60,22,o),
(62,7,o),
(66,-9,c)
);
}
);
width = 625;
},
{
anchors = (
{
name = bottom;
pos = (308,0);
},
{
name = ogonek;
pos = (573,10);
},
{
name = top;
pos = (319,660);
},
{
name = topleft;
pos = (18,660);
}
);
background = {
shapes = (
{
closed = 1;
nodes = (
(313,425,o),
(317,540,o),
(320,587,c),
(335,589,o),
(396,596,o),
(423,596,c),
(454,459,l),
(465,452,l),
(499,454,o),
(533,456,o),
(567,458,c),
(577,656,l),
(568,665,l),
(517,662,o),
(306,660,o),
(128,660,cs),
(30,660,l),
(25,622,l),
(79,602,l),
(86,513,o),
(87,393,o),
(87,290,cs),
(87,216,o),
(84,124,o),
(79,49,c),
(25,38,l),
(30,-5,l),
(63,-3,o),
(180,0,o),
(319,0,c),
(401,0,o),
(505,-3,o),
(567,-5,c),
(574,5,l),
(583,189,l),
(579,198,l),
(477,205,l),
(440,83,l),
(419,79,o),
(362,69,o),
(313,66,c),
(313,288,l),
(515,283,l),
(519,355,l),
(500,371,l),
(313,359,l)
);
}
);
};
layerId = "013925A1-B736-4B8B-AD25-E95AD017ACB4";
shapes = (
{
closed = 1;
nodes = (
(63,-3,o),
(180,0,o),
(319,0,c),
(401,0,o),
(505,-3,o),
(567,-5,c),
(574,5,l),
(583,189,l),
(579,198,l),
(545,200,o),
(511,203,o),
(477,205,c),
(440,83,l),
(419,79,o),
(362,69,o),
(313,66,c),
(313,288,l),
(515,283,l),
(519,355,l),
(500,371,l),
(313,359,l),
(313,425,o),
(317,540,o),
(320,587,c),
(335,589,o),
(396,596,o),
(423,596,c),
(454,459,l),
(465,452,l),
(499,454,o),
(533,456,o),
(567,458,c),
(577,656,l),
(568,665,l),
(517,662,o),
(304,660,o),
(30,660,c),
(26,647,o),
(25,635,o),
(25,622,c),
(79,602,l),
(86,513,o),
(87,393,o),
(87,290,cs),
(87,216,o),
(84,124,o),
(79,49,c),
(25,38,l),
(25,24,o),
(27,9,o),
(30,-5,c)
);
}
);
width = 608;
},
{
anchors = (
{
name = bottom;
pos = (302,0);
},
{
name = ogonek;
pos = (543,10);
},
{
name = top;
pos = (302,652);
},
{
name = topleft;
pos = (21,652);
}
);
background = {
shapes = (
{
closed = 1;
nodes = (
(135,1,o),
(167,0,o),
(285,0,cs),
(359,0,o),
(438,-2,o),
(514,-3,c),
(516,53,l),
(519,134,l),
(521,190,l),
(519,191,o),
(511,193,o),
(508,193,c),
(495,20,l),
(442,14,o),
(195,16,o),
(155,18,c),
(154,84,o),
(152,242,o),
(153,330,cs),
(153,433,o),
(155,546,o),
(158,620,c),
(272,627,o),
(370,629,o),
(463,629,c),
(483,462,l),
(487,462,o),
(493,463,o),
(496,464,c),
(485,647,l),
(389,646,o),
(147,640,o),
(38,640,c),
(37,636,o),
(35,631,o),
(35,627,c),
(135,619,l),
(137,531,o),
(135,409,o),
(135,330,cs),
(135,225,o),
(134,121,o),
(134,16,c),
(37,9,l),
(37,3,o),
(38,-4,o),
(39,-6,c)
);
},
{
closed = 1;
nodes = (
(220,327,o),
(348,326,o),
(430,326,c),
(434,339,l),
(429,345,l),
(390,344,o),
(225,342,o),
(145,342,c),
(141,330,l),
(144,324,l)
);
}
);
};
hints = (
{
place = (147, 86);
place = (147, 86);
type = Stem;
},
{
horizontal = 1;
place = (0, 57);
place = (0, 57);
type = Stem;
},
{
horizontal = 1;
place = (295, 60);
place = (295, 60);
type = Stem;
},
{
horizontal = 1;
place = (586, 54);
place = (586, 54);
type = Stem;
},
{
horizontal = 1;
place = (462, -20);
target = down;
type = TopGhost;
},
{
horizontal = 1;
place = (649, -20);
target = down;
type = TopGhost;
},
{
horizontal = 1;
place = (-9, 21);
target = up;
type = BottomGhost;
},
{
place = (158, 83);
place = (158, 83);
type = Stem;
},
{
horizontal = 1;
place = (0, 57);
place = (0, 57);
type = Stem;
},
{
horizontal = 1;
place = (649, -20);
target = down;
type = TopGhost;
},
{
horizontal = 1;
place = (640, -20);
target = down;
type = TopGhost;
},
{
horizontal = 1;
place = (-9, 21);
target = up;
type = BottomGhost;
},
{
place = (149, 83);
place = (149, 83);
type = Stem;
},
{
horizontal = 1;
place = (-9, 21);
target = up;
type = BottomGhost;
},
{
horizontal = 1;
place = (0, 21);
target = up;
type = BottomGhost;
},
{
horizontal = 1;
place = (649, -20);
target = down;
type = TopGhost;
},
{
horizontal = 1;
place = (640, -20);
target = down;
type = TopGhost;
},
{
place = (150, 85);
place = (150, 85);
type = Stem;
},
{
place = (559, 86);
place = (559, 86);
type = Stem;
},
{
horizontal = 1;
place = (296, 63);
place = (296, 63);
type = Stem;
},
{
horizontal = 1;
place = (-9, 21);
target = up;
type = BottomGhost;
},
{
horizontal = 1;
place = (0, 21);
target = up;
type = BottomGhost;
},
{
horizontal = 1;
place = (649, -20);
target = down;
type = TopGhost;
},
{
horizontal = 1;
place = (640, -20);
target = down;
type = TopGhost;
}
);
layerId = "897B5A99-9760-4657-AC3F-5CEB049E61B1";
shapes = (
{
closed = 1;
nodes = (
(135,1,o),
(167,0,o),
(285,0,cs),
(359,0,o),
(438,-2,o),
(514,-3,c),
(516,53,l),
(519,134,l),
(521,190,l),
(519,191,o),
(511,193,o),
(508,193,c),
(495,20,l),
(442,14,o),
(195,16,o),
(155,18,c),
(153,324,l),
(399,326,l),
(402,335,l),
(392,345,l),
(153,342,l),
(153,442,o),
(155,549,o),
(158,620,c),
(272,627,o),
(370,629,o),
(465,629,c),
(483,464,l),
(484,456,l),
(488,456,o),
(494,457,o),
(497,458,c),
(488,631,l),
(487,647,l),
(389,646,o),
(147,640,o),
(38,640,c),
(37,636,o),
(35,631,o),
(35,627,c),
(135,619,l),
(137,531,o),
(135,409,o),
(135,330,cs),
(135,225,o),
(134,121,o),
(134,16,c),
(37,9,l),
(37,3,o),
(38,-4,o),
(39,-6,c)
);
}
);
width = 611;
}
);
metricLeft = H;
unicode = 69;
},
{
color = 4;
glyphname = Schwa;
kernRight = O;
lastChange = "2022-12-16 16:05:27 +0000";
layers = (
{
layerId = UUID0;
shapes = (
{
closed = 1;
nodes = (
(339,2,o),
(433,40,o),
(484,83,c),
(514,133,o),
(539,260,o),
(539,335,c),
(539,529,o),
(449,644,o),
(318,644,cs),
(269,644,o),
(165,635,o),
(151,631,c),
(104,602,o),
(65,569,o),
(35,539,c),
(52,511,l),
(103,533,o),
(263,564,o),
(329,564,c),
(394,526,o),
(432,477,o),
(439,350,c),
(318,346,o),
(142,336,o),
(79,326,c),
(43,261,l),
(57,100,o),
(151,-12,o),
(217,-12,c)
);
},
{
closed = 1;
nodes = (
(167,94,o),
(146,212,o),
(146,264,c),
(208,279,o),
(349,289,o),
(442,295,c),
(437,219,o),
(412,108,o),
(382,74,c),
(361,65,o),
(302,60,o),
(202,60,c)
);
}
);
width = 576;
},
{
background = {
shapes = (
{
closed = 1;
nodes = (
(335,668,o),
(215,658,o),
(170,644,c),
(127,630,o),
(77,604,o),
(39,586,c),
(61,522,l),
(131,543,o),
(291,571,o),
(349,571,c),
(377,548,o),
(404,522,o),
(412,387,c),
(304,387,o),
(169,384,o),
(60,362,c),
(34,303,l),
(34,148,o),
(115,-12,o),
(238,-12,cs),
(392,-12,o),
(514,21,o),
(601,63,c),
(639,125,o),
(658,241,o),
(658,336,cs),
(658,566,o),
(572,668,o),
(386,668,cs)
);
},
{
closed = 1;
nodes = (
(415,222,o),
(404,100,o),
(393,59,c),
(382,54,o),
(376,52,o),
(309,52,c),
(280,78,o),
(261,202,o),
(258,303,c),
(319,310,o),
(377,314,o),
(415,317,c)
);
}
);
};
layerId = "013925A1-B736-4B8B-AD25-E95AD017ACB4";
shapes = (
{
closed = 1;
nodes = (
(392,-12,o),
(514,21,o),
(601,63,c),
(639,125,o),
(658,241,o),
(658,336,cs),
(658,582,o),
(560,672,o),
(350,672,cs),
(296,672,o),
(235,662,o),
(170,644,c),
(127,630,o),
(77,604,o),
(39,586,c),
(61,522,l),
(131,543,o),
(291,571,o),
(349,571,c),
(377,548,o),
(404,522,o),
(412,387,c),
(304,387,o),
(169,384,o),
(60,362,c),
(34,303,l),
(34,148,o),
(115,-12,o),
(238,-12,cs)
);
},
{
closed = 1;
nodes = (
(280,78,o),
(261,202,o),
(258,303,c),
(319,310,o),
(377,314,o),
(415,317,c),
(415,222,o),
(404,100,o),
(393,59,c),
(382,54,o),
(376,52,o),
(309,52,c)
);
}
);
width = 692;
},
{
background = {
shapes = (
{
closed = 1;
nodes = (
(341,2,o),
(435,40,o),
(486,83,c),
(516,133,o),
(541,260,o),
(541,335,c),
(541,529,o),
(451,644,o),
(320,644,cs),
(271,644,o),
(167,635,o),
(153,631,c),
(106,602,o),
(67,569,o),
(37,539,c),
(54,511,l),
(105,533,o),
(265,564,o),
(331,564,c),
(396,526,o),
(434,477,o),
(441,350,c),
(320,346,o),
(144,336,o),
(81,326,c),
(45,261,l),
(59,100,o),
(153,-12,o),
(219,-12,c)
);
},
{
closed = 1;
nodes = (
(169,94,o),
(148,212,o),
(148,264,c),
(210,279,o),
(351,289,o),
(444,295,c),
(439,219,o),
(414,108,o),
(384,74,c),
(363,65,o),
(304,60,o),
(204,60,c)
);
}
);
};
hints = (
{
place = (573.605, -118.79);
place = (573.605, -118.79);
type = Stem;
},
{
horizontal = 1;
place = (654.97, -97.578);
place = (654.97, -97.578);
type = Stem;
},
{
horizontal = 1;
place = (348.096, -57.981);
place = (348.096, -57.981);
type = Stem;
},
{
horizontal = 1;
place = (-15.345, 21);
target = up;
type = BottomGhost;
}
);
layerId = "897B5A99-9760-4657-AC3F-5CEB049E61B1";
shapes = (
{
closed = 1;
nodes = (
(325,-6,o),
(427,41,o),
(456,70,c),
(514,128,o),
(548,268,o),
(548,346,c),
(548,508,o),
(451,647,o),
(295,647,cs),
(223,647,o),
(130,623,o),
(68,587,cs),
(65,585,o),
(61,583,o),
(58,581,c),
(68,565,l),
(151,615,o),
(255,630,o),
(334,626,c),
(474,586,o),
(526,462,o),
(526,337,c),
(382,332,o),
(212,319,o),
(67,299,c),
(54,279,l),
(54,119,o),
(112,-6,o),
(283,-6,c)
);
},
{
closed = 1;
nodes = (
(137,17,o),
(74,114,o),
(74,279,c),
(221,300,o),
(376,312,o),
(525,316,c),
(519,250,o),
(485,123,o),
(441,82,c),
(420,61,o),
(327,15,o),
(277,13,c)
);
}
);
width = 604;
}
);
metricLeft = O;
metricRight = O;
unicode = 399;
},
{
color = 4;
glyphname = F;
kernLeft = H;
kernRight = F;
lastChange = "2022-12-16 16:04:31 +0000";
layers = (
{
background = {
shapes = (
{
closed = 1;
nodes = (
(301,284,o),
(348,282,o),
(410,279,c),
(435,300,l),
(435,350,l),
(230,343,l),
(230,573,l),
(235,573,o),
(342,586,o),
(422,586,c),
(462,462,l),
(492,462,o),
(507,470,o),
(507,470,c),
(501,649,l),
(501,649,o),
(340,640,o),
(64,640,cs),
(64,640,o),
(58,623,o),
(58,596,c),
(147,574,l),
(145,391,o),
(146,227,o),
(142,53,c),
(60,38,l),
(60,19,o),
(66,-9,o),
(66,-9,c),
(66,-9,o),
(217,0,o),
(346,0,cs),
(346,0,o),
(351,15,o),
(351,38,c),
(237,67,l),
(231,285,l)
);
}
);
};
hints = (
{
place = (148, 83);
place = (148, 83);
type = Stem;
},
{
horizontal = 1;
place = (285, 61);
place = (285, 61);
type = Stem;
},
{
horizontal = 1;
place = (586, 54);
place = (586, 54);
type = Stem;
},
{
horizontal = 1;
place = (462, -20);
target = down;
type = TopGhost;
},
{
horizontal = 1;
place = (649, -20);
target = down;
type = TopGhost;
},
{
horizontal = 1;
place = (-9, 21);
target = up;
type = BottomGhost;
},
{
horizontal = 1;
place = (0, 21);
target = up;
type = BottomGhost;
}
);
layerId = UUID0;
shapes = (
{
closed = 1;
nodes = (
(159,-4,o),
(253,0,o),
(346,0,c),
(350,13,o),
(351,25,o),
(351,38,c),
(237,67,l),
(231,285,l),
(429,279,l),
(435,324,l),
(409,349,l),
(230,343,l),
(230,420,o),
(230,496,o),
(230,573,c),
(235,573,o),
(342,586,o),
(422,586,c),
(458,475,l),
(462,462,l),
(477,462,o),
(494,464,o),
(507,470,c),
(501,635,l),
(501,649,l),
(355,643,o),
(210,640,o),
(64,640,c),
(60,625,o),
(58,611,o),
(58,596,c),
(147,574,l),
(146,484,o),
(146,399,o),
(145,315,cs),
(145,228,o),
(144,142,o),
(142,53,c),
(60,38,l),
(60,22,o),
(62,7,o),
(66,-9,c)
);
}
);
width = 543;
},
{
layerId = "013925A1-B736-4B8B-AD25-E95AD017ACB4";
shapes = (
{
closed = 1;
nodes = (
(163,-3,o),
(294,-2,o),
(426,0,c),
(430,13,o),
(431,25,o),
(431,38,c),
(315,76,l),
(315,268,l),
(517,263,l),
(521,337,l),
(501,353,l),
(315,341,l),
(315,407,o),
(319,540,o),
(322,587,c),
(337,591,o),
(367,596,o),
(404,596,c),
(435,461,l),
(446,454,l),
(481,456,o),
(516,458,o),
(551,460,c),
(561,659,l),
(552,668,l),
(378,665,o),
(204,663,o),
(30,660,c),
(26,647,o),
(25,635,o),
(25,622,c),
(85,594,l),
(89,500,o),
(89,373,o),
(89,290,cs),
(89,218,o),
(86,132,o),
(81,58,c),
(25,42,l),
(25,26,o),
(27,11,o),
(31,-5,c)
);
}
);
width = 574;
},
{
background = {
shapes = (
{
closed = 1;
nodes = (
(410,279,l),
(435,300,l),
(435,350,l),
(230,343,l),
(230,420,o),
(230,496,o),
(230,573,c),
(235,573,o),
(342,586,o),
(422,586,c),
(458,475,l),
(462,462,l),
(477,462,o),
(494,464,o),
(507,470,c),
(501,635,l),
(501,649,l),
(355,643,o),
(210,640,o),
(64,640,c),
(60,625,o),
(58,611,o),
(58,596,c),
(147,574,l),
(146,484,o),
(146,399,o),
(145,315,cs),
(145,228,o),
(144,142,o),
(142,53,c),
(60,38,l),
(60,22,o),
(62,7,o),
(66,-9,c),
(159,-4,o),
(253,0,o),
(346,0,c),
(350,13,o),
(351,25,o),
(351,38,c),
(237,67,l),
(231,285,l)
);
}
);
};
hints = (
{
place = (148, 83);
place = (148, 83);
type = Stem;
},
{
horizontal = 1;
place = (285, 61);
place = (285, 61);
type = Stem;
},
{
horizontal = 1;
place = (586, 54);
place = (586, 54);
type = Stem;
},
{
horizontal = 1;
place = (462, -20);
target = down;
type = TopGhost;
},
{
horizontal = 1;
place = (649, -20);
target = down;
type = TopGhost;
},
{
horizontal = 1;
place = (-9, 21);
target = up;
type = BottomGhost;
},
{
horizontal = 1;
place = (0, 21);
target = up;
type = BottomGhost;
},
{
place = (147, 86);
place = (147, 86);
type = Stem;
},
{
horizontal = 1;
place = (0, 57);
place = (0, 57);
type = Stem;
},
{
horizontal = 1;
place = (295, 60);
place = (295, 60);
type = Stem;
},
{
horizontal = 1;
place = (586, 54);
place = (586, 54);
type = Stem;
},
{
horizontal = 1;
place = (462, -20);
target = down;
type = TopGhost;
},
{
horizontal = 1;
place = (649, -20);
target = down;
type = TopGhost;
},
{
horizontal = 1;
place = (-9, 21);
target = up;
type = BottomGhost;
},
{
place = (158, 83);
place = (158, 83);
type = Stem;
},
{
horizontal = 1;
place = (0, 57);
place = (0, 57);
type = Stem;
},
{
horizontal = 1;
place = (649, -20);
target = down;
type = TopGhost;
},
{
horizontal = 1;
place = (640, -20);
target = down;
type = TopGhost;
},
{
horizontal = 1;
place = (-9, 21);
target = up;
type = BottomGhost;
},
{
place = (149, 83);
place = (149, 83);
type = Stem;
},
{
horizontal = 1;
place = (-9, 21);
target = up;
type = BottomGhost;
},
{
horizontal = 1;
place = (0, 21);
target = up;
type = BottomGhost;
},
{
horizontal = 1;
place = (649, -20);
target = down;
type = TopGhost;
},
{
horizontal = 1;
place = (640, -20);
target = down;
type = TopGhost;
},
{
place = (150, 85);
place = (150, 85);
type = Stem;
},
{
place = (559, 86);
place = (559, 86);
type = Stem;
},
{
horizontal = 1;
place = (296, 63);
place = (296, 63);
type = Stem;
},
{
horizontal = 1;
place = (-9, 21);
target = up;
type = BottomGhost;
},
{
horizontal = 1;
place = (0, 21);
target = up;
type = BottomGhost;
},
{
horizontal = 1;
place = (649, -20);
target = down;
type = TopGhost;
},
{
horizontal = 1;
place = (640, -20);
target = down;
type = TopGhost;
}
);
layerId = "897B5A99-9760-4657-AC3F-5CEB049E61B1";
shapes = (
{
closed = 1;
nodes = (
(135,1,o),
(167,0,o),
(285,0,c),
(286,3,o),
(287,9,o),
(287,11,c),
(155,18,l),
(153,314,l),
(399,316,l),
(402,325,l),
(392,335,l),
(153,332,l),
(153,432,o),
(155,549,o),
(158,620,c),
(272,627,o),
(370,629,o),
(465,629,c),
(483,464,l),
(484,456,l),
(488,456,o),
(494,457,o),
(497,458,c),
(488,631,l),
(487,647,l),
(389,646,o),
(147,640,o),
(38,640,c),
(37,636,o),
(35,631,o),
(35,627,c),
(135,619,l),
(137,531,o),
(135,409,o),
(135,330,cs),
(135,225,o),
(134,121,o),
(134,16,c),
(37,9,l),
(37,3,o),
(38,-4,o),
(39,-6,c)
);
}
);
width = 543;
}
);
metricLeft = H;
unicode = 70;
userData = {
KernOnName = F;
};
},
{
color = 4;
glyphname = G;
kernLeft = O;
kernRight = G;
lastChange = "2022-12-16 16:04:31 +0000";
layers = (
{
anchors = (
{
name = bottom;
pos = (327,0);
},
{
name = top;
pos = (339,652);
}
);
background = {
shapes = (
{
closed = 1;
nodes = (
(35,153,o),
(156,-12,o),
(305,-12,c),
(376,-5,o),
(436,9,o),
(489,37,c),
(508,-13,l),
(556,-2,l),
(553,21,o),
(551,50,o),
(551,92,cs),
(551,137,o),
(553,188,o),
(557,240,c),
(613,261,l),
(606,307,l),
(528,302,o),
(470,299,o),
(375,298,c),
(370,261,l),
(466,227,l),
(478,99,l),
(478,95,l),
(426,77,o),
(366,62,o),
(313,62,c),
(198,108,o),
(133,204,o),
(133,326,cs),
(133,429,o),
(170,512,o),
(215,557,c),
(246,568,o),
(296,574,o),
(348,574,cs),
(400,574,o),
(432,566,o),
(468,551,c),
(496,450,l),
(501,444,l),
(552,450,l),
(558,609,l),
(554,618,l),
(504,636,o),
(399,652,o),
(342,652,c),
(175,632,o),
(35,463,o),
(35,297,cs)
);
}
);
};
hints = (
{
place = (40, 98);
place = (40, 98);
type = Stem;
},
{
horizontal = 1;
place = (574, 78);
place = (574, 78);
type = Stem;
},
{
horizontal = 1;
place = (-12, 21);
target = up;
type = BottomGhost;
},
{
horizontal = 1;
place = (-13, 21);
target = up;
type = BottomGhost;
}
);
layerId = UUID0;
shapes = (
{
closed = 1;
nodes = (
(556,-2,l),
(553,21,o),
(551,50,o),
(551,92,cs),
(551,137,o),
(553,188,o),
(557,240,c),
(613,261,l),
(606,307,l),
(528,302,o),
(470,299,o),
(375,298,c),
(370,261,l),
(466,227,l),
(478,95,l),
(426,77,o),
(366,62,o),
(313,62,c),
(198,108,o),
(133,204,o),
(133,326,cs),
(133,429,o),
(170,512,o),
(215,557,c),
(246,568,o),
(296,574,o),
(348,574,cs),
(400,574,o),
(432,566,o),
(468,551,c),
(496,450,l),
(501,444,l),
(552,450,l),
(558,609,l),
(554,618,l),
(504,636,o),
(399,652,o),
(342,652,c),
(279,644,o),
(219,616,o),
(170,573,cs),
(89,504,o),
(35,400,o),
(35,297,cs),
(35,153,o),
(156,-12,o),
(305,-12,c),
(376,-5,o),
(436,9,o),
(489,37,c),
(508,-13,l)
);
}
);
width = 659;
},
{
anchors = (
{
name = bottom;
pos = (350,0);
},
{
name = top;
pos = (369,660);
}
);
background = {
shapes = (
{
closed = 1;
nodes = (
(375,-12,o),
(529,-1,o),
(624,32,c),
(624,249,l),
(488,257,l),
(452,85,l),
(431,79,o),
(409,77,o),
(358,77,c),
(312,111,o),
(284,191,o),
(284,336,cs),
(284,446,o),
(299,528,o),
(315,577,c),
(352,585,o),
(389,588,o),
(426,588,c),
(468,402,l),
(604,410,l),
(627,637,l),
(556,660,o),
(486,670,o),
(421,670,cs),
(311,670,o),
(184,634,o),
(94,584,c),
(53,508,o),
(34,433,o),
(34,320,cs),
(34,109,o),
(112,-12,o),
(306,-12,cs)
);
},
{
closed = 1;
nodes = (
(649,-2,l),
(646,22,o),
(644,52,o),
(644,95,cs),
(644,142,o),
(646,204,o),
(650,258,c),
(707,279,l),
(700,327,l),
(391,317,l),
(386,279,l),
(445,254,l),
(452,85,l),
(515,-13,l)
);
}
);
};
layerId = "013925A1-B736-4B8B-AD25-E95AD017ACB4";
shapes = (
{
closed = 1;
nodes = (
(649,-2,l),
(646,22,o),
(644,52,o),
(644,95,cs),
(644,142,o),
(646,204,o),
(650,258,c),
(707,279,l),
(700,327,l),
(597,324,o),
(494,320,o),
(391,317,c),
(386,279,l),
(445,254,l),
(452,85,l),
(431,79,o),
(409,77,o),
(358,77,c),
(312,111,o),
(284,191,o),
(284,336,cs),
(284,446,o),
(299,528,o),
(315,577,c),
(333,581,o),
(351,584,o),
(369,585,cs),
(388,587,o),
(407,588,o),
(426,588,c),
(466,410,l),
(468,402,l),
(604,410,l),
(626,623,l),
(627,637,l),
(556,660,o),
(486,670,o),
(421,670,cs),
(311,670,o),
(184,634,o),
(94,584,c),
(53,508,o),
(34,433,o),
(34,320,cs),
(34,109,o),
(112,-12,o),
(306,-12,cs),
(350,-12,o),
(428,-8,o),
(498,13,c),
(515,-13,l)
);
}
);
width = 722;
},
{
anchors = (
{
name = bottom;
pos = (320,0);
},
{
name = top;
pos = (320,652);
}
);
background = {
shapes = (
{
closed = 1;
nodes = (
(523,-9,l),
(523,2,o),
(520,45,o),
(521,106,cs),
(524,249,l),
(598,254,l),
(596,270,l),
(534,266,o),
(471,264,o),
(410,264,c),
(408,251,l),
(503,249,l),
(504,222,o),
(504,107,o),
(504,68,c),
(449,32,o),
(364,9,o),
(284,15,c),
(134,40,o),
(73,160,o),
(73,299,cs),
(73,380,o),
(101,484,o),
(152,555,c),
(203,593,o),
(270,623,o),
(329,627,cs),
(371,630,o),
(462,612,o),
(503,599,c),
(512,445,l),
(516,441,l),
(526,443,l),
(526,609,l),
(526,615,l),
(460,634,o),
(386,648,o),
(336,646,cs),
(273,645,o),
(178,604,o),
(137,566,c),
(85,493,o),
(54,383,o),
(54,294,cs),
(54,90,o),
(188,-6,o),
(315,-6,cs),
(382,-6,o),
(462,17,o),
(505,47,c),
(509,-12,l)
);
}
);
};
hints = (
{
place = (40, 98);
place = (40, 98);
type = Stem;
},
{
horizontal = 1;
place = (574, 78);
place = (574, 78);
type = Stem;
},
{
horizontal = 1;
place = (-12, 21);
target = up;
type = BottomGhost;
},
{
horizontal = 1;
place = (-13, 21);
target = up;
type = BottomGhost;
},
{
place = (40, 98);
place = (40, 98);
type = Stem;
},
{
horizontal = 1;
place = (574, 78);
place = (574, 78);
type = Stem;
},
{
horizontal = 1;
place = (-12, 21);
target = up;
type = BottomGhost;
},
{
place = (42, 84);
place = (42, 84);
type = Stem;
},
{
horizontal = 1;
place = (-12, 69);
place = (-12, 69);
type = Stem;
},
{
horizontal = 1;
place = (406, 56);
place = (406, 56);
type = Stem;
},
{
place = (32, 86);
place = (32, 86);
type = Stem;
},
{
place = (339, 80);
place = (339, 80);
type = Stem;
},
{
horizontal = 1;
place = (474, -20);
target = down;
type = TopGhost;
},
{
horizontal = 1;
place = (462, -20);
target = down;
type = TopGhost;
},
{
horizontal = 1;
place = (-12, 21);
target = up;
type = BottomGhost;
},
{
horizontal = 1;
place = (-212, 21);
target = up;
type = BottomGhost;
},
{
place = (55, 80);
place = (55, 80);
type = Stem;
},
{
place = (367, 82);
place = (367, 82);
type = Stem;
},
{
horizontal = 1;
place = (-12, 21);
target = up;
type = BottomGhost;
},
{
horizontal = 1;
place = (462, -20);
target = down;
type = TopGhost;
},
{
place = (42, 84);
place = (42, 84);
type = Stem;
},
{
horizontal = 1;
place = (-12, 69);
place = (-12, 69);
type = Stem;
},
{
horizontal = 1;
place = (205, 41);
place = (205, 41);
type = Stem;
},
{
horizontal = 1;
place = (462, -20);
target = down;
type = TopGhost;
},
{
place = (485, 84);
place = (485, 84);
type = Stem;
},
{
horizontal = 1;
place = (-12, 69);
place = (-12, 69);
type = Stem;
},
{
horizontal = 1;
place = (205, 41);
place = (205, 41);
type = Stem;
},
{
horizontal = 1;
place = (462, -20);
target = down;
type = TopGhost;
}
);
layerId = "897B5A99-9760-4657-AC3F-5CEB049E61B1";
shapes = (
{
closed = 1;
nodes = (
(523,-9,l),
(523,2,o),
(520,45,o),
(521,106,cs),
(522,154,o),
(523,201,o),
(524,249,c),
(598,254,l),
(596,270,l),
(534,266,o),
(471,265,o),
(410,265,c),
(409,251,l),
(503,249,l),
(504,62,l),
(458,36,o),
(354,9,o),
(282,14,c),
(145,35,o),
(73,144,o),
(73,299,cs),
(73,380,o),
(101,484,o),
(152,555,c),
(203,593,o),
(270,623,o),
(329,627,cs),
(371,630,o),
(462,612,o),
(503,599,c),
(512,445,l),
(516,441,l),
(526,443,l),
(526,609,l),
(526,615,l),
(460,634,o),
(386,648,o),
(336,646,cs),
(273,645,o),
(178,604,o),
(137,566,c),
(85,493,o),
(54,383,o),
(54,294,cs),
(54,126,o),
(148,-6,o),
(315,-6,cs),
(362,-6,o),
(463,17,o),
(505,42,c),
(509,-12,l)
);
}
);
width = 652;
}
);
metricLeft = O;
unicode = 71;
},
{
color = 4;
glyphname = H;
kernLeft = H;
kernRight = H;
lastChange = "2022-12-16 16:04:31 +0000";
layers = (
{
background = {
shapes = (
{
closed = 1;
nodes = (
(58,19,o),
(64,-9,o),
(64,-9,c),
(64,-9,o),
(175,0,o),
(320,0,cs),
(320,0,o),
(325,15,o),
(325,38,c),
(230,72,l),
(230,135,o),
(230,210,o),
(231,288,c),
(555,304,l),
(553,212,o),
(551,122,o),
(547,56,c),
(458,38,l),
(458,19,o),
(464,-9,o),
(464,-9,c),
(464,-9,o),
(591,0,o),
(720,0,cs),
(720,0,o),
(725,15,o),
(725,38,c),
(646,70,l),
(642,239,o),
(643,406,o),
(641,581,c),
(725,602,l),
(725,621,o),
(719,649,o),
(719,649,c),
(719,649,o),
(608,640,o),
(463,640,cs),
(463,640,o),
(458,625,o),
(458,602,c),
(559,568,l),
(558,508,o),
(558,434,o),
(556,359,c),
(232,359,l),
(234,444,o),
(237,524,o),
(240,584,c),
(325,602,l),
(325,621,o),
(319,649,o),
(319,649,c),
(319,649,o),
(192,640,o),
(63,640,cs),
(63,640,o),
(58,625,o),
(58,602,c),
(141,568,l),
(145,396,o),
(145,235,o),
(146,59,c),
(58,38,l)
);
}
);
};
hints = (
{
place = (147, 85);
place = (147, 85);
type = Stem;
},
{
place = (556, 86);
place = (556, 86);
type = Stem;
},
{
horizontal = 1;
place = (296, 63);
place = (296, 63);
type = Stem;
},
{
horizontal = 1;
place = (-9, 21);
target = up;
type = BottomGhost;
},
{
horizontal = 1;
place = (0, 21);
target = up;
type = BottomGhost;
},
{
horizontal = 1;
place = (649, -20);
target = down;
type = TopGhost;
},
{
horizontal = 1;
place = (640, -20);
target = down;
type = TopGhost;
}
);
layerId = UUID0;
shapes = (
{
closed = 1;
nodes = (
(149,-3,o),
(235,0,o),
(320,0,c),
(324,13,o),
(325,25,o),
(325,38,c),
(230,72,l),
(230,135,o),
(230,210,o),
(231,288,c),
(555,304,l),
(553,212,o),
(551,122,o),
(547,56,c),
(458,38,l),
(458,22,o),
(460,7,o),
(464,-9,c),
(549,-4,o),
(635,0,o),
(720,0,c),
(724,13,o),
(725,25,o),
(725,38,c),
(646,70,l),
(644,156,o),
(643,242,o),
(643,328,cs),
(642,411,o),
(642,495,o),
(641,581,c),
(725,602,l),
(725,618,o),
(723,633,o),
(719,649,c),
(634,643,o),
(548,640,o),
(463,640,c),
(459,627,o),
(458,615,o),
(458,602,c),
(559,568,l),
(558,508,o),
(558,434,o),
(556,359,c),
(232,359,l),
(234,444,o),
(237,524,o),
(240,584,c),
(325,602,l),
(324,618,o),
(322,633,o),
(319,649,c),
(234,644,o),
(148,640,o),
(63,640,c),
(59,627,o),
(58,615,o),
(58,602,c),
(141,568,l),
(143,487,o),
(144,409,o),
(145,330,cs),
(145,241,o),
(145,152,o),
(146,59,c),
(58,38,l),
(58,22,o),
(60,7,o),
(64,-9,c)
);
}
);
width = 783;
},
{
layerId = "013925A1-B736-4B8B-AD25-E95AD017ACB4";
shapes = (
{
closed = 1;
nodes = (
(139,-3,o),
(248,-2,o),
(357,0,c),
(361,13,o),
(363,25,o),
(363,38,c),
(318,57,l),
(314,119,o),
(313,178,o),
(313,282,c),
(474,288,l),
(474,215,o),
(471,123,o),
(466,49,c),
(422,38,l),
(422,24,o),
(423,9,o),
(427,-5,c),
(536,-3,o),
(646,-2,o),
(755,0,c),
(759,13,o),
(761,25,o),
(761,38,c),
(705,57,l),
(701,120,o),
(700,182,o),
(700,333,cs),
(700,402,o),
(702,538,o),
(707,613,c),
(761,622,l),
(761,636,o),
(759,651,o),
(755,665,c),
(646,663,o),
(536,662,o),
(427,660,c),
(423,647,o),
(422,635,o),
(422,622,c),
(467,602,l),
(472,535,o),
(474,449,o),
(474,367,c),
(313,367,l),
(314,440,o),
(317,548,o),
(320,613,c),
(363,622,l),
(363,636,o),
(361,651,o),
(357,665,c),
(248,663,o),
(139,662,o),
(30,660,c),
(26,647,o),
(25,635,o),
(25,622,c),
(79,602,l),
(86,513,o),
(87,393,o),
(87,290,cs),
(87,216,o),
(84,124,o),
(79,49,c),
(25,38,l),
(25,24,o),
(26,9,o),
(30,-5,c)
);
}
);
width = 786;
},
{
hints = (
{
place = (147, 85);
place = (147, 85);
type = Stem;
},
{
place = (556, 86);
place = (556, 86);
type = Stem;
},
{
horizontal = 1;
place = (296, 63);
place = (296, 63);
type = Stem;
},
{
horizontal = 1;
place = (-9, 21);
target = up;
type = BottomGhost;
},
{
horizontal = 1;
place = (0, 21);
target = up;
type = BottomGhost;
},
{
horizontal = 1;
place = (649, -20);
target = down;
type = TopGhost;
},
{
horizontal = 1;
place = (640, -20);
target = down;
type = TopGhost;
}
);
layerId = "897B5A99-9760-4657-AC3F-5CEB049E61B1";
shapes = (
{
closed = 1;
nodes = (
(120,-1,o),
(195,2,o),
(282,0,c),
(283,4,o),
(284,10,o),
(284,14,c),
(160,18,l),
(159,86,o),
(157,237,o),
(158,321,c),
(567,326,l),
(566,226,o),
(567,113,o),
(565,18,c),
(436,8,l),
(436,4,o),
(437,-2,o),
(438,-6,c),
(525,-1,o),
(600,2,o),
(683,0,c),
(684,2,o),
(685,9,o),
(685,13,c),
(586,20,l),
(584,106,o),
(585,242,o),
(585,328,cs),
(584,411,o),
(584,532,o),
(585,621,c),
(688,633,l),
(688,639,o),
(687,644,o),
(686,646,c),
(603,641,o),
(528,638,o),
(441,640,c),
(440,636,o),
(439,630,o),
(439,626,c),
(566,621,l),
(567,548,o),
(570,422,o),
(567,342,c),
(158,342,l),
(158,433,o),
(160,547,o),
(163,622,c),
(285,632,l),
(285,636,o),
(284,642,o),
(283,646,c),
(196,641,o),
(121,638,o),
(38,640,c),
(37,638,o),
(36,633,o),
(36,627,c),
(140,621,l),
(142,534,o),
(139,409,o),
(140,330,cs),
(140,241,o),
(139,112,o),
(139,19,c),
(35,7,l),
(35,2,o),
(36,-4,o),
(37,-6,c)
);
}
);
width = 723;
}
);
unicode = 72;
userData = {
KernOnName = H;
};
},
{
color = 3;
glyphname = Hbar;
kernLeft = H;
kernRight = H;
lastChange = "2022-12-16 16:04:31 +0000";
layers = (
{
layerId = UUID0;
shapes = (
{
closed = 1;
nodes = (
(223,446,o),
(562,446,o),
(723,446,c),
(728,498,l),
(714,509,l),
(604,501,o),
(225,495,o),
(61,495,c),
(56,444,l),
(63,435,l)
);
},
{
ref = H;
}
);
width = 783;
},
{
layerId = "013925A1-B736-4B8B-AD25-E95AD017ACB4";
shapes = (
{
closed = 1;
nodes = (
(246,450,o),
(682,451,o),
(760,451,c),
(770,528,l),
(750,544,l),
(644,539,o),
(169,531,o),
(28,531,c),
(18,456,l),
(34,441,l)
);
},
{
ref = H;
}
);
width = 786;
},
{
layerId = "897B5A99-9760-4657-AC3F-5CEB049E61B1";
shapes = (
{
closed = 1;
nodes = (
(220,464,o),
(512,464,o),
(673,464,c),
(677,477,l),
(672,483,l),
(554,481,o),
(225,479,o),
(61,479,c),
(57,467,l),
(60,461,l)
);
},
{
ref = H;
}
);
width = 783;
}
);
unicode = 294;
},
{
color = 4;
glyphname = I;
kernLeft = H;
kernRight = H;
lastChange = "2022-12-16 16:04:31 +0000";
layers = (
{
anchors = (
{
name = bottom;
pos = (194,0);
},
{
name = ogonek;
pos = (344,10);
},
{
name = top;
pos = (194,652);
},
{
name = topleft;
pos = (26,652);
}
);
background = {
shapes = (
{
closed = 1;
nodes = (
(152,483,o),
(152,381,o),
(152,280,cs),
(152,206,o),
(150,131,o),
(144,57,c),
(58,38,l),
(58,19,o),
(64,-9,o),
(64,-9,c),
(64,-9,o),
(190,0,o),
(319,0,cs),
(319,0,o),
(324,15,o),
(324,38,c),
(241,70,l),
(235,158,o),
(235,257,o),
(235,358,cs),
(235,432,o),
(237,508,o),
(243,582,c),
(324,602,l),
(324,621,o),
(318,649,o),
(318,649,c),
(318,649,o),
(208,640,o),
(63,640,cs),
(63,640,o),
(58,625,o),
(58,602,c),
(146,571,l)
);
}
);
};
hints = (
{
place = (146, 83);
place = (146, 83);
type = Stem;
},
{
horizontal = 1;
place = (-9, 21);
target = up;
type = BottomGhost;
},
{
horizontal = 1;
place = (0, 21);
target = up;
type = BottomGhost;
},
{
horizontal = 1;
place = (649, -20);
target = down;
type = TopGhost;
},
{
horizontal = 1;
place = (640, -20);
target = down;
type = TopGhost;
}
);
layerId = UUID0;
shapes = (
{
closed = 1;
nodes = (
(149,-4,o),
(234,0,o),
(319,0,c),
(323,13,o),
(324,25,o),
(324,38,c),
(241,70,l),
(235,158,o),
(235,257,o),
(235,358,cs),
(235,432,o),
(237,508,o),
(243,582,c),
(324,602,l),
(324,618,o),
(321,633,o),
(318,649,c),
(233,643,o),
(148,640,o),
(63,640,c),
(59,627,o),
(58,615,o),
(58,602,c),
(146,571,l),
(152,483,o),
(152,381,o),
(152,280,cs),
(152,206,o),
(150,131,o),
(144,57,c),
(58,38,l),
(58,22,o),
(60,7,o),
(64,-9,c)
);
}
);
width = 382;
},
{
anchors = (
{
name = bottom;
pos = (197,0);
},
{
name = ogonek;
pos = (361,10);
},
{
name = top;
pos = (197,660);
},
{
name = topleft;
pos = (20,660);
}
);
layerId = "013925A1-B736-4B8B-AD25-E95AD017ACB4";
shapes = (
{
closed = 1;
nodes = (
(143,-3,o),
(256,-2,o),
(369,0,c),
(373,13,o),
(375,25,o),
(375,38,c),
(318,57,l),
(314,124,o),
(313,187,o),
(313,255,cs),
(313,368,o),
(316,502,o),
(320,613,c),
(375,622,l),
(375,636,o),
(373,651,o),
(369,665,c),
(256,663,o),
(143,662,o),
(30,660,c),
(26,647,o),
(25,635,o),
(25,622,c),
(79,602,l),
(86,513,o),
(87,393,o),
(87,290,cs),
(87,216,o),
(84,124,o),
(79,49,c),
(25,38,l),
(25,24,o),
(26,9,o),
(30,-5,c)
);
}
);
width = 400;
},
{
anchors = (
{
name = bottom;
pos = (157,0);
},
{
name = ogonek;
pos = (336,10);
},
{
name = top;
pos = (150,652);
},
{
name = topleft;
pos = (18,652);
}
);
background = {
shapes = (
{
closed = 1;
nodes = (
(144,483,o),
(144,381,o),
(144,280,cs),
(144,206,o),
(142,131,o),
(136,57,c),
(50,38,l),
(50,19,o),
(56,-9,o),
(56,-9,c),
(56,-9,o),
(182,0,o),
(311,0,cs),
(311,0,o),
(316,15,o),
(316,38,c),
(233,70,l),
(227,158,o),
(227,257,o),
(227,358,cs),
(227,432,o),
(229,508,o),
(235,582,c),
(316,602,l),
(316,621,o),
(310,649,o),
(310,649,c),
(310,649,o),
(200,640,o),
(55,640,cs),
(55,640,o),
(50,625,o),
(50,602,c),
(138,571,l)
);
}
);
};
hints = (
{
place = (146, 83);
place = (146, 83);
type = Stem;
},
{
horizontal = 1;
place = (-9, 21);
target = up;
type = BottomGhost;
},
{
horizontal = 1;
place = (0, 21);
target = up;
type = BottomGhost;
},
{
horizontal = 1;
place = (649, -20);
target = down;
type = TopGhost;
},
{
horizontal = 1;
place = (640, -20);
target = down;
type = TopGhost;
},
{
place = (147, 85);
place = (147, 85);
type = Stem;
},
{
place = (556, 86);
place = (556, 86);
type = Stem;
},
{
horizontal = 1;
place = (296, 63);
place = (296, 63);
type = Stem;
},
{
horizontal = 1;
place = (-9, 21);
target = up;
type = BottomGhost;
},
{
horizontal = 1;
place = (0, 21);
target = up;
type = BottomGhost;
},
{
horizontal = 1;
place = (649, -20);
target = down;
type = TopGhost;
},
{
horizontal = 1;
place = (640, -20);
target = down;
type = TopGhost;
}
);
layerId = "897B5A99-9760-4657-AC3F-5CEB049E61B1";
shapes = (
{
closed = 1;
nodes = (
(117,-1,o),
(192,2,o),
(279,0,c),
(280,4,o),
(281,9,o),
(281,13,c),
(160,21,l),
(159,89,o),
(157,242,o),
(158,330,cs),
(158,433,o),
(160,547,o),
(163,620,c),
(280,632,l),
(280,638,o),
(279,644,o),
(278,646,c),
(195,641,o),
(120,638,o),
(33,640,c),
(32,636,o),
(31,631,o),
(31,627,c),
(140,619,l),
(142,533,o),
(139,409,o),
(140,330,cs),
(140,241,o),
(139,112,o),
(139,19,c),
(32,7,l),
(32,1,o),
(33,-4,o),
(34,-6,c)
);
}
);
width = 298;
}
);
unicode = 73;
},
{
color = 4;
glyphname = J;
kernLeft = J;
kernRight = J;
lastChange = "2022-12-16 16:04:31 +0000";
layers = (
{
anchors = (
{
name = bottom;
pos = (189,0);
},
{
name = top;
pos = (189,640);
}
);
background = {
shapes = (
{
closed = 1;
nodes = (
(237,109,o),
(233,429,o),
(240,583,c),
(320,602,l),
(320,621,o),
(314,649,o),
(314,649,c),
(314,649,o),
(194,640,o),
(65,640,cs),
(65,640,o),
(60,625,o),
(60,602,c),
(141,569,l),
(146,389,o),
(147,250,o),
(147,60,cs),
(147,-17,o),
(123,-121,o),
(123,-121,c),
(75,-122,o),
(2,-122,o),
(2,-122,c),
(-6,-132,o),
(-9,-140,o),
(-9,-140,c),
(6,-172,o),
(32,-212,o),
(32,-212,c),
(100,-198,o),
(160,-173,o),
(160,-173,c),
(166,-167,o),
(219,-83,o),
(224,-30,c)
);
}
);
};
hints = (
{
place = (147, 93);
place = (147, 93);
type = Stem;
},
{
horizontal = 1;
place = (649, -20);
target = down;
type = TopGhost;
},
{
horizontal = 1;
place = (640, -20);
target = down;
type = TopGhost;
},
{
horizontal = 1;
place = (-212, 21);
target = up;
type = BottomGhost;
}
);
layerId = UUID0;
shapes = (
{
closed = 1;
nodes = (
(75,-203,o),
(117,-190,o),
(160,-173,c),
(192,-125,o),
(216,-78,o),
(224,-30,c),
(237,109,o),
(233,429,o),
(240,583,c),
(314,602,l),
(313,618,o),
(312,633,o),
(308,649,c),
(225,643,o),
(142,640,o),
(59,640,c),
(55,627,o),
(54,615,o),
(54,602,c),
(141,569,l),
(143,481,o),
(145,402,o),
(146,323,cs),
(147,241,o),
(147,157,o),
(147,60,cs),
(146,0,o),
(136,-61,o),
(123,-121,c),
(83,-121,o),
(42,-122,o),
(2,-122,c),
(-3,-128,o),
(-7,-134,o),
(-9,-140,c),
(3,-164,o),
(16,-188,o),
(32,-212,c)
);
}
);
width = 378;
},
{
anchors = (
{
name = bottom;
pos = (197,0);
},
{
name = top;
pos = (197,660);
}
);
layerId = "013925A1-B736-4B8B-AD25-E95AD017ACB4";
shapes = (
{
closed = 1;
nodes = (
(77,-141,o),
(140,-103,o),
(193,-63,cs),
(256,-15,o),
(305,35,o),
(305,57,cs),
(305,206,o),
(307,485,o),
(314,613,c),
(368,622,l),
(368,636,o),
(366,651,o),
(362,665,c),
(250,663,o),
(137,662,o),
(25,660,c),
(21,647,o),
(20,635,o),
(20,622,c),
(74,602,l),
(79,547,o),
(83,491,o),
(86,436,cs),
(90,372,o),
(92,308,o),
(92,249,cs),
(92,189,o),
(89,134,o),
(83,90,cs),
(75,34,o),
(31,-52,o),
(-10,-110,c),
(-10,-115,o),
(-10,-119,o),
(-10,-124,c),
(2,-135,o),
(13,-147,o),
(25,-158,c)
);
}
);
width = 393;
},
{
anchors = (
{
name = bottom;
pos = (149,0);
},
{
name = top;
pos = (149,640);
}
);
background = {
shapes = (
{
closed = 1;
nodes = (
(113,-1,o),
(188,2,o),
(275,0,c),
(276,4,o),
(278,11,o),
(278,15,c),
(156,23,l),
(155,91,o),
(153,242,o),
(154,330,cs),
(154,433,o),
(156,546,o),
(159,619,c),
(276,631,l),
(276,637,o),
(275,644,o),
(274,646,c),
(191,641,o),
(116,638,o),
(29,640,c),
(28,636,o),
(26,629,o),
(26,625,c),
(136,617,l),
(138,531,o),
(135,409,o),
(136,330,cs),
(136,241,o),
(135,114,o),
(135,21,c),
(28,9,l),
(28,3,o),
(29,-4,o),
(30,-6,c)
);
}
);
};
hints = (
{
place = (147, 93);
place = (147, 93);
type = Stem;
},
{
horizontal = 1;
place = (649, -20);
target = down;
type = TopGhost;
},
{
horizontal = 1;
place = (640, -20);
target = down;
type = TopGhost;
},
{
horizontal = 1;
place = (-212, 21);
target = up;
type = BottomGhost;
},
{
place = (108, 76);
place = (108, 76);
type = Stem;
},
{
horizontal = 1;
place = (-212, 21);
target = up;
type = BottomGhost;
},
{
horizontal = 1;
place = (669, -20);
target = down;
type = TopGhost;
},
{
place = (146, 83);
place = (146, 83);
type = Stem;
},
{
horizontal = 1;
place = (-9, 21);
target = up;
type = BottomGhost;
},
{
horizontal = 1;
place = (0, 21);
target = up;
type = BottomGhost;
},
{
horizontal = 1;
place = (649, -20);
target = down;
type = TopGhost;
},
{
horizontal = 1;
place = (640, -20);
target = down;
type = TopGhost;
},
{
place = (147, 85);
place = (147, 85);
type = Stem;
},
{
place = (556, 86);
place = (556, 86);
type = Stem;
},
{
horizontal = 1;
place = (296, 63);
place = (296, 63);
type = Stem;
},
{
horizontal = 1;
place = (-9, 21);
target = up;
type = BottomGhost;
},
{
horizontal = 1;
place = (0, 21);
target = up;
type = BottomGhost;
},
{
horizontal = 1;
place = (649, -20);
target = down;
type = TopGhost;
},
{
horizontal = 1;
place = (640, -20);
target = down;
type = TopGhost;
}
);
layerId = "897B5A99-9760-4657-AC3F-5CEB049E61B1";
shapes = (
{
closed = 1;
nodes = (
(70,-178,o),
(102,-168,o),
(125,-128,cs),
(136,-110,o),
(155,-65,o),
(158,-40,c),
(157,150,o),
(158,498,o),
(163,619,c),
(265,631,l),
(265,637,o),
(264,644,o),
(263,646,c),
(180,641,o),
(105,638,o),
(18,640,c),
(17,636,o),
(15,629,o),
(15,625,c),
(140,617,l),
(142,531,o),
(139,409,o),
(140,330,cs),
(141,204,o),
(140,46,o),
(139,-22,cs),
(138,-81,o),
(104,-134,o),
(91,-145,c),
(50,-164,o),
(18,-163,o),
(2,-163,c),
(1,-164,o),
(-1,-168,o),
(-2,-170,c),
(0,-174,o),
(1,-176,o),
(4,-180,c)
);
}
);
width = 298;
}
);
unicode = 74;
},
{
color = 4;
glyphname = K;
kernLeft = H;
kernRight = K;
lastChange = "2022-12-16 16:04:31 +0000";
layers = (
{
anchors = (
{
name = bottom;
pos = (354,0);
},
{
name = top;
pos = (376,640);
}
);
background = {
shapes = (
{
closed = 1;
nodes = (
(58,38,l),
(58,19,o),
(64,-9,o),
(64,-9,c),
(64,-9,o),
(179,0,o),
(324,0,cs),
(324,0,o),
(329,15,o),
(329,38,c),
(233,72,l),
(233,134,o),
(234,216,o),
(235,293,c),
(271,291,o),
(305,282,o),
(305,282,c),
(437,88,o),
(496,-3,o),
(511,-12,c),
(587,-12,o),
(658,5,o),
(658,5,c),
(658,5,o),
(667,22,o),
(667,44,c),
(567,67,l),
(495,156,o),
(400,285,o),
(368,332,c),
(535,584,l),
(624,602,l),
(624,631,o),
(618,649,o),
(618,649,c),
(521,642,o),
(470,640,o),
(470,640,c),
(408,517,o),
(343,410,o),
(314,359,c),
(236,359,l),
(238,446,o),
(240,523,o),
(244,584,c),
(329,602,l),
(329,621,o),
(323,649,o),
(323,649,c),
(323,649,o),
(192,640,o),
(63,640,cs),
(63,640,o),
(58,625,o),
(58,602,c),
(145,568,l),
(149,396,o),
(149,235,o),
(150,59,c)
);
}
);
};
hints = (
{
place = (151, 85);
place = (151, 85);
type = Stem;
},
{
horizontal = 1;
place = (0, 21);
target = up;
type = BottomGhost;
},
{
horizontal = 1;
place = (-12, 21);
target = up;
type = BottomGhost;
},
{
horizontal = 1;
place = (649, -20);
target = down;
type = TopGhost;
},
{
horizontal = 1;
place = (640, -20);
target = down;
type = TopGhost;
}
);
layerId = UUID0;
shapes = (
{
closed = 1;
nodes = (
(560,-12,o),
(609,-5,o),
(658,5,c),
(664,18,o),
(667,31,o),
(667,44,c),
(567,67,l),
(495,156,o),
(400,285,o),
(368,332,c),
(424,416,o),
(479,500,o),
(535,584,c),
(624,602,l),
(624,618,o),
(622,633,o),
(618,649,c),
(569,645,o),
(519,642,o),
(470,640,c),
(408,517,o),
(343,410,o),
(314,359,c),
(288,359,o),
(262,359,o),
(236,359,c),
(238,446,o),
(240,523,o),
(244,584,c),
(329,602,l),
(329,618,o),
(326,633,o),
(323,649,c),
(236,643,o),
(150,641,o),
(63,640,c),
(59,627,o),
(58,615,o),
(58,602,c),
(145,568,l),
(147,479,o),
(148,393,o),
(149,307,cs),
(149,226,o),
(150,144,o),
(150,59,c),
(58,38,l),
(58,22,o),
(61,7,o),
(64,-9,c),
(151,-3,o),
(237,0,o),
(324,0,c),
(328,13,o),
(329,25,o),
(329,38,c),
(233,72,l),
(233,134,o),
(234,216,o),
(235,293,c),
(258,291,o),
(282,288,o),
(305,282,c),
(437,88,o),
(496,-3,o),
(511,-12,c)
);
}
);
width = 668;
},
{
anchors = (
{
name = bottom;
pos = (398,0);
},
{
name = top;
pos = (402,660);
}
);
background = {
shapes = (
{
closed = 1;
nodes = (
(357,0,l),
(363,38,l),
(318,57,l),
(314,124,o),
(313,187,o),
(313,255,cs),
(313,333,l),
(313,402,o),
(317,537,o),
(320,613,c),
(363,622,l),
(357,665,l),
(30,660,l),
(25,622,l),
(79,602,l),
(86,513,o),
(87,393,o),
(87,290,cs),
(87,216,o),
(84,124,o),
(79,49,c),
(25,38,l),
(30,-5,l)
);
},
{
closed = 1;
nodes = (
(614,-12,o),
(697,-6,o),
(727,0,c),
(727,40,l),
(683,53,l),
(649,78,o),
(520,347,o),
(473,401,c),
(366,310,l),
(418,87,o),
(447,25,o),
(465,-12,c)
);
},
{
closed = 1;
nodes = (
(349,269,o),
(394,286,o),
(435,323,c),
(473,392,o),
(563,521,o),
(640,614,c),
(692,625,l),
(685,670,l),
(478,660,l),
(456,567,o),
(404,423,o),
(369,349,c),
(346,343,o),
(320,341,o),
(294,341,c),
(294,253,l)
);
}
);
};
layerId = "013925A1-B736-4B8B-AD25-E95AD017ACB4";
shapes = (
{
closed = 1;
nodes = (
(614,-12,o),
(697,-6,o),
(727,0,c),
(729,13,o),
(729,27,o),
(727,40,c),
(683,53,l),
(650,77,o),
(529,328,o),
(479,394,c),
(523,462,o),
(585,547,o),
(640,614,c),
(692,625,l),
(692,640,o),
(689,655,o),
(685,670,c),
(616,667,o),
(547,663,o),
(478,660,c),
(456,567,o),
(404,423,o),
(369,349,c),
(352,344,o),
(333,342,o),
(313,341,c),
(313,412,o),
(317,540,o),
(320,613,c),
(363,622,l),
(363,636,o),
(361,651,o),
(357,665,c),
(248,663,o),
(139,662,o),
(30,660,c),
(26,647,o),
(25,635,o),
(25,622,c),
(79,602,l),
(86,513,o),
(87,393,o),
(87,290,cs),
(87,216,o),
(84,124,o),
(79,49,c),
(25,38,l),
(25,24,o),
(26,9,o),
(30,-5,c),
(139,-3,o),
(248,-2,o),
(357,0,c),
(361,13,o),
(363,25,o),
(363,38,c),
(318,57,l),
(314,116,o),
(313,176,o),
(313,259,c),
(334,265,o),
(354,273,o),
(373,282,c),
(421,82,o),
(448,23,o),
(465,-12,c)
);
}
);
width = 716;
},
{
anchors = (
{
name = bottom;
pos = (334,0);
},
{
name = top;
pos = (356,640);
}
);
background = {
shapes = (
{
closed = 1;
nodes = (
(122,-1,o),
(197,2,o),
(284,0,c),
(285,4,o),
(287,11,o),
(287,15,c),
(165,23,l),
(164,91,o),
(162,242,o),
(163,330,cs),
(163,433,o),
(165,546,o),
(168,619,c),
(285,631,l),
(285,637,o),
(284,644,o),
(283,646,c),
(200,641,o),
(125,638,o),
(38,640,c),
(37,636,o),
(35,629,o),
(35,625,c),
(145,617,l),
(147,531,o),
(144,409,o),
(145,330,cs),
(145,241,o),
(144,114,o),
(144,21,c),
(37,9,l),
(37,3,o),
(38,-4,o),
(39,-6,c)
);
},
{
closed = 1;
nodes = (
(160,335,l),
(200,335,o),
(259,335,o),
(288,335,c),
(345,247,o),
(469,75,o),
(524,-7,c),
(557,-6,o),
(606,-3,o),
(634,0,c),
(635,4,o),
(636,9,o),
(636,14,c),
(537,14,l),
(492,70,o),
(345,281,o),
(309,337,c),
(304,345,l),
(510,622,l),
(603,632,l),
(603,637,o),
(602,645,o),
(601,647,c),
(499,641,l),
(473,600,o),
(341,421,o),
(288,353,c),
(160,353,l)
);
}
);
};
hints = (
{
place = (151, 85);
place = (151, 85);
type = Stem;
},
{
horizontal = 1;
place = (0, 21);
target = up;
type = BottomGhost;
},
{
horizontal = 1;
place = (-12, 21);
target = up;
type = BottomGhost;
},
{
horizontal = 1;
place = (649, -20);
target = down;
type = TopGhost;
},
{
horizontal = 1;
place = (640, -20);
target = down;
type = TopGhost;
},
{
place = (146, 83);
place = (146, 83);
type = Stem;
},
{
horizontal = 1;
place = (-9, 21);
target = up;
type = BottomGhost;
},
{
horizontal = 1;
place = (0, 21);
target = up;
type = BottomGhost;
},
{
horizontal = 1;
place = (649, -20);
target = down;
type = TopGhost;
},
{
horizontal = 1;
place = (640, -20);
target = down;
type = TopGhost;
},
{
place = (147, 85);
place = (147, 85);
type = Stem;
},
{
place = (556, 86);
place = (556, 86);
type = Stem;
},
{
horizontal = 1;
place = (296, 63);
place = (296, 63);
type = Stem;
},
{
horizontal = 1;
place = (-9, 21);
target = up;
type = BottomGhost;
},
{
horizontal = 1;
place = (0, 21);
target = up;
type = BottomGhost;
},
{
horizontal = 1;
place = (649, -20);
target = down;
type = TopGhost;
},
{
horizontal = 1;
place = (640, -20);
target = down;
type = TopGhost;
},
{
place = (114, 78);
place = (114, 78);
type = Stem;
},
{
horizontal = 1;
place = (43, 21);
target = up;
type = BottomGhost;
},
{
horizontal = 1;
place = (767, -20);
target = down;
type = TopGhost;
},
{
horizontal = 1;
place = (55, 21);
target = up;
type = BottomGhost;
},
{
horizontal = 1;
place = (509, -20);
target = down;
type = TopGhost;
},
{
horizontal = 1;
place = (505, -20);
target = down;
type = TopGhost;
},
{
horizontal = 1;
place = (51, 21);
target = up;
type = BottomGhost;
},
{
horizontal = 1;
place = (55, 21);
target = up;
type = BottomGhost;
},
{
place = (126, 73);
place = (126, 73);
type = Stem;
},
{
horizontal = 1;
place = (767, -20);
target = down;
type = TopGhost;
},
{
horizontal = 1;
place = (51, 21);
target = up;
type = BottomGhost;
},
{
horizontal = 1;
place = (55, 21);
target = up;
type = BottomGhost;
}
);
layerId = "897B5A99-9760-4657-AC3F-5CEB049E61B1";
shapes = (
{
closed = 1;
nodes = (
(557,-6,o),
(606,-3,o),
(634,0,c),
(635,4,o),
(636,9,o),
(636,14,c),
(537,14,l),
(493,72,o),
(344,281,o),
(304,345,c),
(373,437,o),
(441,530,o),
(510,622,c),
(603,632,l),
(603,637,o),
(602,645,o),
(601,647,c),
(567,645,o),
(533,643,o),
(499,641,c),
(473,600,o),
(340,421,o),
(287,353,c),
(246,353,o),
(204,353,o),
(163,353,c),
(163,449,o),
(165,551,o),
(168,619,c),
(285,631,l),
(285,637,o),
(284,644,o),
(283,646,c),
(200,641,o),
(125,638,o),
(38,640,c),
(37,636,o),
(35,629,o),
(35,625,c),
(145,617,l),
(147,531,o),
(144,409,o),
(145,330,cs),
(145,241,o),
(144,114,o),
(144,21,c),
(37,9,l),
(37,3,o),
(38,-4,o),
(39,-6,c),
(122,-1,o),
(197,2,o),
(284,0,c),
(285,4,o),
(287,11,o),
(287,15,c),
(165,23,l),
(164,85,o),
(163,273,o),
(163,335,c),
(204,335,o),
(246,335,o),
(287,335,c),
(334,269,o),
(469,75,o),
(524,-7,c)
);
}
);
width = 648;
}
);
metricLeft = H;
unicode = 75;
},
{
color = 4;
glyphname = L;
kernLeft = H;
kernRight = L;
lastChange = "2022-12-16 16:04:31 +0000";
layers = (
{
anchors = (
{
name = bottom;
pos = (303,0);
},
{
name = top;
pos = (202,640);
},
{
name = topright;
pos = (398,460);
}
);
background = {
shapes = (
{
closed = 1;
nodes = (
(240,145,o),
(240,257,o),
(240,358,cs),
(240,432,o),
(242,508,o),
(248,582,c),
(329,602,l),
(329,621,o),
(323,649,o),
(323,649,c),
(323,649,o),
(208,640,o),
(63,640,cs),
(63,640,o),
(58,625,o),
(58,602,c),
(151,571,l),
(157,483,o),
(157,381,o),
(157,280,cs),
(157,206,o),
(155,128,o),
(149,54,c),
(62,38,l),
(62,19,o),
(68,-9,o),
(68,-9,c),
(68,-9,o),
(185,0,o),
(303,0,cs),
(440,0,o),
(532,-6,o),
(532,-6,c),
(539,190,l),
(539,190,o),
(524,198,o),
(494,198,c),
(464,74,l),
(421,64,o),
(319,57,o),
(246,57,c)
);
}
);
};
hints = (
{
place = (158, 83);
place = (158, 83);
type = Stem;
},
{
horizontal = 1;
place = (0, 57);
place = (0, 57);
type = Stem;
},
{
horizontal = 1;
place = (649, -20);
target = down;
type = TopGhost;
},
{
horizontal = 1;
place = (640, -20);
target = down;
type = TopGhost;
},
{
horizontal = 1;
place = (-9, 21);
target = up;
type = BottomGhost;
}
);
layerId = UUID0;
shapes = (
{
closed = 1;
nodes = (
(145,-4,o),
(225,0,o),
(303,0,cs),
(379,0,o),
(456,-2,o),
(532,-6,c),
(533,7,l),
(539,177,l),
(539,190,l),
(524,196,o),
(509,198,o),
(494,198,c),
(464,74,l),
(421,64,o),
(319,57,o),
(246,57,c),
(240,145,o),
(240,257,o),
(240,308,cs),
(240,432,o),
(242,508,o),
(248,582,c),
(329,602,l),
(329,618,o),
(326,633,o),
(323,649,c),
(236,643,o),
(150,641,o),
(63,640,c),
(59,627,o),
(58,615,o),
(58,602,c),
(151,571,l),
(157,483,o),
(157,381,o),
(157,280,cs),
(157,206,o),
(155,128,o),
(149,54,c),
(62,38,l),
(62,22,o),
(64,7,o),
(68,-9,c)
);
}
);
width = 550;
},
{
anchors = (
{
name = bottom;
pos = (313,0);
},
{
name = top;
pos = (201,660);
},
{
name = topright;
pos = (425,472);
}
);
background = {
shapes = (
{
closed = 1;
nodes = (
(357,0,l),
(363,38,l),
(318,57,l),
(314,124,o),
(313,187,o),
(313,255,cs),
(313,333,l),
(313,402,o),
(317,537,o),
(320,613,c),
(374,622,l),
(368,665,l),
(30,660,l),
(25,622,l),
(79,602,l),
(86,513,o),
(87,393,o),
(87,290,cs),
(87,216,o),
(84,124,o),
(79,49,c),
(25,38,l),
(30,-5,l)
);
},
{
closed = 1;
nodes = (
(572,5,l),
(585,256,l),
(578,265,l),
(464,272,l),
(425,75,l),
(402,69,o),
(346,66,o),
(317,66,c),
(313,0,l),
(394,0,o),
(496,-2,o),
(565,-5,c)
);
}
);
};
layerId = "013925A1-B736-4B8B-AD25-E95AD017ACB4";
shapes = (
{
closed = 1;
nodes = (
(136,-3,o),
(243,-2,o),
(349,0,cs),
(423,-1,o),
(506,-2,o),
(565,-5,c),
(572,5,l),
(585,256,l),
(578,265,l),
(540,267,o),
(502,270,o),
(464,272,c),
(425,75,l),
(402,69,o),
(347,66,o),
(317,66,c),
(314,131,o),
(313,193,o),
(313,333,cs),
(313,402,o),
(317,537,o),
(320,613,c),
(374,622,l),
(374,636,o),
(372,651,o),
(368,665,c),
(255,663,o),
(143,662,o),
(30,660,c),
(26,647,o),
(25,635,o),
(25,622,c),
(79,602,l),
(86,513,o),
(87,393,o),
(87,290,cs),
(87,216,o),
(84,124,o),
(79,49,c),
(25,38,l),
(25,24,o),
(26,9,o),
(30,-5,c)
);
}
);
width = 585;
},
{
anchors = (
{
name = bottom;
pos = (298,0);
},
{
name = top;
pos = (154,640);
},
{
name = topright;
pos = (393,460);
}
);
background = {
shapes = (
{
closed = 1;
nodes = (
(154,84,o),
(152,242,o),
(153,330,cs),
(153,433,o),
(155,546,o),
(158,619,c),
(285,631,l),
(285,637,o),
(284,644,o),
(283,646,c),
(200,641,o),
(125,638,o),
(38,640,c),
(37,636,o),
(35,629,o),
(35,625,c),
(135,617,l),
(137,531,o),
(134,409,o),
(135,330,cs),
(135,241,o),
(134,100,o),
(134,7,c),
(165,8,o),
(256,0,o),
(285,0,cs),
(359,0,o),
(438,-2,o),
(514,-3,c),
(515,7,l),
(521,177,l),
(521,190,l),
(519,191,o),
(511,193,o),
(508,193,c),
(495,20,l),
(442,14,o),
(195,16,o),
(155,18,c)
);
},
{
closed = 1;
nodes = (
(37,9,l),
(37,3,o),
(38,-4,o),
(39,-6,c),
(112,-1,o),
(184,2,o),
(271,0,c),
(136,16,l)
);
}
);
};
hints = (
{
place = (158, 83);
place = (158, 83);
type = Stem;
},
{
horizontal = 1;
place = (0, 57);
place = (0, 57);
type = Stem;
},
{
horizontal = 1;
place = (649, -20);
target = down;
type = TopGhost;
},
{
horizontal = 1;
place = (640, -20);
target = down;
type = TopGhost;
},
{
horizontal = 1;
place = (-9, 21);
target = up;
type = BottomGhost;
},
{
place = (149, 83);
place = (149, 83);
type = Stem;
},
{
horizontal = 1;
place = (-9, 21);
target = up;
type = BottomGhost;
},
{
horizontal = 1;
place = (0, 21);
target = up;
type = BottomGhost;
},
{
horizontal = 1;
place = (649, -20);
target = down;
type = TopGhost;
},
{
horizontal = 1;
place = (640, -20);
target = down;
type = TopGhost;
},
{
place = (150, 85);
place = (150, 85);
type = Stem;
},
{
place = (559, 86);
place = (559, 86);
type = Stem;
},
{
horizontal = 1;
place = (296, 63);
place = (296, 63);
type = Stem;
},
{
horizontal = 1;
place = (-9, 21);
target = up;
type = BottomGhost;
},
{
horizontal = 1;
place = (0, 21);
target = up;
type = BottomGhost;
},
{
horizontal = 1;
place = (649, -20);
target = down;
type = TopGhost;
},
{
horizontal = 1;
place = (640, -20);
target = down;
type = TopGhost;
}
);
layerId = "897B5A99-9760-4657-AC3F-5CEB049E61B1";
shapes = (
{
closed = 1;
nodes = (
(135,1,o),
(167,0,o),
(285,0,cs),
(359,0,o),
(438,-2,o),
(514,-3,c),
(516,53,l),
(519,134,l),
(521,190,l),
(519,191,o),
(511,193,o),
(508,193,c),
(495,20,l),
(442,14,o),
(195,16,o),
(155,18,c),
(154,84,o),
(152,242,o),
(153,330,cs),
(153,433,o),
(155,546,o),
(158,620,c),
(285,632,l),
(285,638,o),
(284,644,o),
(283,646,c),
(200,641,o),
(125,638,o),
(38,640,c),
(37,636,o),
(35,631,o),
(35,627,c),
(135,619,l),
(137,531,o),
(135,409,o),
(135,330,cs),
(135,225,o),
(134,121,o),
(134,16,c),
(37,9,l),
(37,3,o),
(38,-4,o),
(39,-6,c)
);
}
);
width = 545;
}
);
metricLeft = H;
unicode = 76;
},
{
color = 3;
glyphname = Lslash;
kernLeft = H;
kernRight = L;
lastChange = "2022-12-16 16:04:31 +0000";
layers = (
{
background = {
shapes = (
{
closed = 1;
nodes = (
(249,140,o),
(249,245,o),
(249,341,c),
(328,378,o),
(404,411,o),
(424,420,c),
(420,451,l),
(403,456,l),
(382,445,o),
(318,414,o),
(249,382,c),
(249,448,o),
(251,516,o),
(257,582,c),
(338,602,l),
(338,621,o),
(332,649,o),
(332,649,c),
(332,649,o),
(217,640,o),
(72,640,cs),
(72,640,o),
(67,625,o),
(67,602,c),
(160,571,l),
(164,501,o),
(166,423,o),
(166,343,c),
(121,322,o),
(80,304,o),
(58,294,c),
(65,264,l),
(75,258,l),
(99,270,o),
(131,286,o),
(166,302,c),
(166,280,ls),
(166,206,o),
(164,128,o),
(158,54,c),
(71,38,l),
(71,19,o),
(77,-9,o),
(77,-9,c),
(77,-9,o),
(194,0,o),
(312,0,cs),
(449,0,o),
(541,-6,o),
(541,-6,c),
(548,190,l),
(548,190,o),
(533,198,o),
(503,198,c),
(473,74,l),
(430,64,o),
(328,57,o),
(255,57,c)
);
}
);
};
hints = (
{
place = (158, 83);
place = (158, 83);
type = Stem;
},
{
horizontal = 1;
place = (0, 57);
place = (0, 57);
type = Stem;
},
{
horizontal = 1;
place = (649, -20);
target = down;
type = TopGhost;
},
{
horizontal = 1;
place = (640, -20);
target = down;
type = TopGhost;
},
{
horizontal = 1;
place = (-9, 21);
target = up;
type = BottomGhost;
}
);
layerId = UUID0;
shapes = (
{
closed = 1;
nodes = (
(112,276,o),
(155,297,o),
(199,318,c),
(207,322,l),
(287,359,o),
(370,396,o),
(424,420,c),
(420,451,l),
(403,456,l),
(378,443,o),
(284,398,o),
(198,359,c),
(192,356,l),
(136,330,o),
(84,306,o),
(58,294,c),
(65,264,l),
(75,258,l)
);
},
{
pos = (8,0);
ref = L;
}
);
width = 558;
},
{
layerId = "013925A1-B736-4B8B-AD25-E95AD017ACB4";
shapes = (
{
closed = 1;
nodes = (
(126,269,o),
(180,296,o),
(235,322,c),
(235,302,l),
(312,339,o),
(388,375,o),
(465,412,c),
(437,490,l),
(421,497,l),
(359,468,o),
(297,439,o),
(235,410,c),
(235,430,l),
(165,397,o),
(95,364,o),
(25,331,c),
(57,248,l),
(71,243,l)
);
},
{
ref = L;
}
);
width = 585;
},
{
background = {
shapes = (
{
closed = 1;
nodes = (
(241,140,o),
(241,245,o),
(241,341,c),
(320,378,o),
(396,411,o),
(416,420,c),
(412,451,l),
(395,456,l),
(374,445,o),
(310,414,o),
(241,382,c),
(241,448,o),
(243,516,o),
(249,582,c),
(330,602,l),
(330,621,o),
(324,649,o),
(324,649,c),
(324,649,o),
(209,640,o),
(64,640,cs),
(64,640,o),
(59,625,o),
(59,602,c),
(152,571,l),
(156,501,o),
(158,423,o),
(158,343,c),
(113,322,o),
(72,304,o),
(50,294,c),
(57,264,l),
(67,258,l),
(91,270,o),
(123,286,o),
(158,302,c),
(158,280,ls),
(158,206,o),
(156,128,o),
(150,54,c),
(63,38,l),
(63,19,o),
(69,-9,o),
(69,-9,c),
(69,-9,o),
(186,0,o),
(304,0,cs),
(441,0,o),
(533,-6,o),
(533,-6,c),
(540,190,l),
(540,190,o),
(525,198,o),
(495,198,c),
(465,74,l),
(422,64,o),
(320,57,o),
(247,57,c)
);
}
);
};
hints = (
{
place = (158, 83);
place = (158, 83);
type = Stem;
},
{
horizontal = 1;
place = (0, 57);
place = (0, 57);
type = Stem;
},
{
horizontal = 1;
place = (649, -20);
target = down;
type = TopGhost;
},
{
horizontal = 1;
place = (640, -20);
target = down;
type = TopGhost;
},
{
horizontal = 1;
place = (-9, 21);
target = up;
type = BottomGhost;
}
);
layerId = "897B5A99-9760-4657-AC3F-5CEB049E61B1";
shapes = (
{
closed = 1;
nodes = (
(99,298,o),
(142,319,o),
(186,340,c),
(194,344,l),
(274,381,o),
(357,418,o),
(411,442,c),
(412,451,l),
(395,456,l),
(370,443,o),
(276,398,o),
(190,359,c),
(184,356,l),
(128,330,o),
(76,306,o),
(50,294,c),
(52,286,l),
(62,280,l)
);
},
{
ref = L;
}
);
width = 545;
}
);
metricLeft = L;
metricRight = L;
unicode = 321;
},
{
color = 4;
glyphname = M;
kernLeft = H;
kernRight = H;
lastChange = "2022-12-16 16:05:58 +0000";
layers = (
{
background = {
shapes = (
{
closed = 1;
nodes = (
(124,-3,o),
(204,0,o),
(284,0,c),
(288,13,o),
(289,25,o),
(289,38,c),
(199,72,l),
(199,241,o),
(203,435,o),
(210,577,c),
(213,568,l),
(401,-4,l),
(404,-12,l),
(418,-12,o),
(473,3,o),
(488,13,c),
(488,44,l),
(660,540,l),
(664,551,l),
(676,486,o),
(678,126,o),
(678,53,c),
(612,38,l),
(612,22,o),
(615,7,o),
(618,-9,c),
(701,-4,o),
(785,-1,o),
(868,0,c),
(871,13,o),
(873,25,o),
(873,38,c),
(778,72,l),
(772,120,o),
(766,196,o),
(762,299,cs),
(758,401,o),
(758,511,o),
(758,583,c),
(839,603,l),
(839,619,o),
(838,636,o),
(835,652,c),
(765,645,o),
(696,641,o),
(626,640,c),
(614,590,o),
(524,312,o),
(458,137,c),
(455,129,l),
(407,283,o),
(342,459,o),
(290,649,c),
(213,644,o),
(137,640,o),
(60,640,c),
(56,627,o),
(55,615,o),
(55,602,c),
(142,582,l),
(142,511,o),
(137,356,o),
(135,274,cs),
(133,201,o),
(126,128,o),
(119,59,c),
(38,38,l),
(38,22,o),
(41,7,o),
(44,-9,c)
);
}
);
};
guides = (
{
angle = 180;
pos = (165,563);
}
);
hints = (
{
place = (135, 64);
place = (135, 64);
type = Stem;
},
{
place = (678, 84);
place = (678, 84);
type = Stem;
},
{
horizontal = 1;
place = (0, 21);
target = up;
type = BottomGhost;
},
{
horizontal = 1;
place = (652, -20);
target = down;
type = TopGhost;
},
{
horizontal = 1;
place = (640, -20);
target = down;
type = TopGhost;
},
{
horizontal = 1;
place = (-12, 21);
target = up;
type = BottomGhost;
}
);
layerId = UUID0;
shapes = (
{
closed = 1;
nodes = (
(124,-3,o),
(204,0,o),
(284,0,c),
(288,13,o),
(289,25,o),
(289,38,c),
(199,72,l),
(199,241,o),
(202,421,o),
(209,563,c),
(213,563,l),
(401,-4,l),
(404,-12,l),
(418,-12,o),
(473,3,o),
(488,13,c),
(488,44,l),
(664,563,l),
(668,563,l),
(675,498,o),
(678,126,o),
(678,53,c),
(612,38,l),
(612,22,o),
(615,7,o),
(618,-9,c),
(701,-4,o),
(785,-1,o),
(868,0,c),
(871,13,o),
(873,25,o),
(873,38,c),
(778,72,l),
(772,120,o),
(766,196,o),
(762,299,cs),
(758,401,o),
(758,511,o),
(758,583,c),
(839,603,l),
(839,619,o),
(838,636,o),
(835,652,c),
(765,645,o),
(692,641,o),
(622,640,c),
(610,590,o),
(524,312,o),
(458,137,c),
(455,129,l),
(401,283,o),
(343,459,o),
(287,649,c),
(210,644,o),
(137,640,o),
(60,640,c),
(56,627,o),
(55,615,o),
(55,602,c),
(142,582,l),
(142,511,o),
(137,356,o),
(135,274,cs),
(133,201,o),
(126,128,o),
(119,59,c),
(38,38,l),
(38,22,o),
(41,7,o),
(44,-9,c)
);
}
);
width = 901;
},
{
background = {
shapes = (
{
closed = 1;
nodes = (
(17,22,o),
(19,7,o),
(21,-9,c),
(87,-6,o),
(153,-3,o),
(219,0,c),
(221,13,o),
(222,25,o),
(224,38,c),
(169,57,l),
(159,192,o),
(159,328,o),
(159,463,c),
(171,463,l),
(297,5,l),
(307,-4,l),
(361,5,o),
(415,13,o),
(469,22,c),
(469,54,l),
(495,133,o),
(538,287,o),
(585,463,c),
(597,463,l),
(599,404,o),
(600,326,o),
(600,244,cs),
(600,179,o),
(599,111,o),
(599,49,c),
(540,38,l),
(542,22,o),
(544,7,o),
(546,-9,c),
(655,-6,o),
(763,-3,o),
(872,0,c),
(874,13,o),
(875,27,o),
(877,40,c),
(822,49,l),
(819,104,o),
(815,204,o),
(810,307,cs),
(805,422,o),
(799,541,o),
(795,605,c),
(851,627,l),
(850,642,o),
(848,657,o),
(847,672,c),
(749,668,o),
(652,664,o),
(554,660,c),
(521,533,o),
(488,406,o),
(455,279,c),
(451,279,o),
(447,279,o),
(443,279,c),
(408,409,o),
(372,539,o),
(337,669,c),
(238,666,o),
(138,663,o),
(39,660,c),
(37,647,o),
(36,635,o),
(34,622,c),
(87,600,l),
(87,494,o),
(87,394,o),
(84,296,cs),
(81,213,o),
(77,131,o),
(68,49,c),
(15,38,l)
);
}
);
};
guides = (
{
angle = 180;
pos = (115,463);
}
);
layerId = "013925A1-B736-4B8B-AD25-E95AD017ACB4";
shapes = (
{
closed = 1;
nodes = (
(87,-6,o),
(153,-3,o),
(219,0,c),
(223,13,o),
(224,25,o),
(224,38,c),
(169,57,l),
(159,192,o),
(159,328,o),
(159,463,c),
(171,463,l),
(297,5,l),
(307,-4,l),
(361,5,o),
(415,13,o),
(469,22,c),
(469,54,l),
(585,463,l),
(597,463,l),
(599,404,o),
(599,111,o),
(599,49,c),
(540,38,l),
(540,22,o),
(542,7,o),
(546,-9,c),
(655,-6,o),
(763,-3,o),
(872,0,c),
(876,13,o),
(877,27,o),
(877,40,c),
(822,49,l),
(819,104,o),
(815,204,o),
(810,307,cs),
(805,422,o),
(799,541,o),
(795,605,c),
(851,627,l),
(852,642,o),
(850,657,o),
(847,672,c),
(749,668,o),
(652,664,o),
(554,660,c),
(521,533,o),
(488,406,o),
(455,279,c),
(443,279,l),
(408,409,o),
(372,539,o),
(337,669,c),
(238,666,o),
(138,663,o),
(39,660,c),
(35,647,o),
(34,635,o),
(34,622,c),
(87,600,l),
(87,494,o),
(87,394,o),
(84,296,cs),
(81,213,o),
(77,131,o),
(68,49,c),
(15,38,l),
(15,22,o),
(17,7,o),
(21,-9,c)
);
}
);
width = 902;
},
{
background = {
shapes = (
{
closed = 1;
nodes = (
(117,-1,o),
(192,2,o),
(279,0,c),
(280,5,o),
(282,10,o),
(283,15,c),
(161,23,l),
(166,196,o),
(176,446,o),
(190,619,c),
(194,609,l),
(419,4,l),
(422,-4,l),
(427,-4,o),
(433,-3,o),
(436,-2,c),
(437,9,l),
(680,608,l),
(684,618,l),
(689,532,o),
(699,114,o),
(701,21,c),
(595,9,l),
(595,3,o),
(596,-4,o),
(597,-6,c),
(680,-1,o),
(755,2,o),
(842,0,c),
(843,4,o),
(845,11,o),
(845,15,c),
(722,23,l),
(719,91,o),
(713,242,o),
(711,330,cs),
(708,433,o),
(706,546,o),
(707,619,c),
(824,631,l),
(824,637,o),
(822,644,o),
(821,646,c),
(738,641,o),
(700,641,o),
(671,640,c),
(624,515,o),
(477,155,o),
(431,41,c),
(428,34,l),
(390,140,o),
(252,511,o),
(204,640,c),
(188,639,o),
(148,638,o),
(61,640,c),
(60,636,o),
(57,629,o),
(57,625,c),
(167,617,l),
(165,531,o),
(157,409,o),
(154,330,cs),
(151,241,o),
(144,114,o),
(140,21,c),
(32,9,l),
(32,3,o),
(33,-4,o),
(34,-6,c)
);
}
);
};
guides = (
{
angle = 180;
pos = (115,618);
}
);
hints = (
{
place = (135, 64);
place = (135, 64);
type = Stem;
},
{
place = (678, 84);
place = (678, 84);
type = Stem;
},
{
horizontal = 1;
place = (0, 21);
target = up;
type = BottomGhost;
},
{
horizontal = 1;
place = (652, -20);
target = down;
type = TopGhost;
},
{
horizontal = 1;
place = (640, -20);
target = down;
type = TopGhost;
},
{
horizontal = 1;
place = (-12, 21);
target = up;
type = BottomGhost;
},
{
place = (146, 83);
place = (146, 83);
type = Stem;
},
{
horizontal = 1;
place = (-9, 21);
target = up;
type = BottomGhost;
},
{
horizontal = 1;
place = (0, 21);
target = up;
type = BottomGhost;
},
{
horizontal = 1;
place = (649, -20);
target = down;
type = TopGhost;
},
{
horizontal = 1;
place = (640, -20);
target = down;
type = TopGhost;
},
{
place = (147, 85);
place = (147, 85);
type = Stem;
},
{
place = (556, 86);
place = (556, 86);
type = Stem;
},
{
horizontal = 1;
place = (296, 63);
place = (296, 63);
type = Stem;
},
{
horizontal = 1;
place = (-9, 21);
target = up;
type = BottomGhost;
},
{
horizontal = 1;
place = (0, 21);
target = up;
type = BottomGhost;
},
{
horizontal = 1;
place = (649, -20);
target = down;
type = TopGhost;
},
{
horizontal = 1;
place = (640, -20);
target = down;
type = TopGhost;
},
{
place = (728, 83);
place = (728, 83);
type = Stem;
},
{
horizontal = 1;
place = (-9, 21);
target = up;
type = BottomGhost;
},
{
horizontal = 1;
place = (0, 21);
target = up;
type = BottomGhost;
},
{
horizontal = 1;
place = (649, -20);
target = down;
type = TopGhost;
},
{
horizontal = 1;
place = (640, -20);
target = down;
type = TopGhost;
},
{
place = (729, 85);
place = (729, 85);
type = Stem;
},
{
place = (1138, 86);
place = (1138, 86);
type = Stem;
},
{
horizontal = 1;
place = (296, 63);
place = (296, 63);
type = Stem;
},
{
horizontal = 1;
place = (-9, 21);
target = up;
type = BottomGhost;
},
{
horizontal = 1;
place = (0, 21);
target = up;
type = BottomGhost;
},
{
horizontal = 1;
place = (649, -20);
target = down;
type = TopGhost;
},
{
horizontal = 1;
place = (640, -20);
target = down;
type = TopGhost;
}
);
layerId = "897B5A99-9760-4657-AC3F-5CEB049E61B1";
shapes = (
{
closed = 1;
nodes = (
(117,-1,o),
(192,2,o),
(279,0,c),
(280,5,o),
(282,10,o),
(283,15,c),
(161,23,l),
(166,196,o),
(175,445,o),
(189,618,c),
(191,618,l),
(419,4,l),
(422,-4,l),
(427,-4,o),
(433,-3,o),
(436,-2,c),
(437,9,l),
(683,618,l),
(685,618,l),
(690,532,o),
(699,114,o),
(701,21,c),
(595,9,l),
(595,3,o),
(596,-4,o),
(597,-6,c),
(680,-1,o),
(755,2,o),
(842,0,c),
(843,4,o),
(845,11,o),
(845,15,c),
(722,23,l),
(719,91,o),
(713,242,o),
(711,330,cs),
(708,433,o),
(706,546,o),
(707,619,c),
(824,631,l),
(824,637,o),
(822,644,o),
(821,646,c),
(738,641,o),
(700,641,o),
(671,640,c),
(624,515,o),
(477,155,o),
(431,41,c),
(428,34,l),
(390,140,o),
(252,511,o),
(204,640,c),
(188,639,o),
(148,638,o),
(61,640,c),
(60,636,o),
(57,629,o),
(57,625,c),
(167,617,l),
(165,531,o),
(157,409,o),
(154,330,cs),
(151,241,o),
(144,114,o),
(140,21,c),
(32,9,l),
(32,3,o),
(33,-4,o),
(34,-6,c)
);
}
);
width = 901;
}
);
unicode = 77;
},
{
color = 4;
glyphname = N;
kernLeft = H;
kernRight = N;
lastChange = "2022-12-16 16:06:17 +0000";
layers = (
{
anchors = (
{
name = bottom;
pos = (407,0);
},
{
name = top;
pos = (387,652);
}
);
background = {
shapes = (
{
closed = 1;
nodes = (
(581,-19,o),
(622,1,o),
(639,15,c),
(628,64,l),
(624,121,o),
(624,208,o),
(624,277,cs),
(624,382,o),
(630,492,o),
(640,580,c),
(711,602,l),
(711,621,o),
(705,649,o),
(705,649,c),
(705,649,o),
(610,640,o),
(465,640,cs),
(465,640,o),
(460,625,o),
(460,602,c),
(555,568,l),
(559,488,o),
(561,409,o),
(561,329,cs),
(561,276,o),
(559,216,o),
(559,162,c),
(435,329,o),
(354,455,o),
(231,649,c),
(231,649,o),
(127,640,o),
(48,640,cs),
(48,640,o),
(43,625,o),
(43,602,c),
(127,582,l),
(129,551,o),
(137,379,o),
(137,295,cs),
(137,177,o),
(133,101,o),
(130,59,c),
(42,38,l),
(42,19,o),
(48,-9,o),
(48,-9,c),
(48,-9,o),
(153,0,o),
(298,0,cs),
(298,0,o),
(303,15,o),
(303,38,c),
(207,72,l),
(205,183,o),
(200,400,o),
(200,536,c),
(332,326,o),
(519,77,o),
(572,-19,c)
);
}
);
};
hints = (
{
place = (137, 63);
place = (137, 63);
type = Stem;
},
{
place = (561, 63);
place = (561, 63);
type = Stem;
},
{
horizontal = 1;
place = (-19, 21);
target = up;
type = BottomGhost;
},
{
horizontal = 1;
place = (649, -20);
target = down;
type = TopGhost;
},
{
horizontal = 1;
place = (640, -20);
target = down;
type = TopGhost;
},
{
horizontal = 1;
place = (0, 21);
target = up;
type = BottomGhost;
}
);
layerId = UUID0;
shapes = (
{
closed = 1;
nodes = (
(581,-19,o),
(622,1,o),
(639,15,c),
(628,64,l),
(624,121,o),
(624,208,o),
(624,277,cs),
(624,382,o),
(630,492,o),
(640,580,c),
(711,602,l),
(710,618,o),
(709,633,o),
(705,649,c),
(625,642,o),
(545,641,o),
(465,640,c),
(461,627,o),
(460,615,o),
(460,602,c),
(555,568,l),
(559,488,o),
(561,409,o),
(561,329,cs),
(561,276,o),
(559,216,o),
(559,162,c),
(435,329,o),
(354,455,o),
(231,649,c),
(170,645,o),
(109,640,o),
(48,640,c),
(44,628,o),
(43,615,o),
(43,602,c),
(127,582,l),
(129,551,o),
(137,379,o),
(137,295,cs),
(137,177,o),
(133,101,o),
(130,59,c),
(42,38,l),
(42,22,o),
(45,7,o),
(48,-9,c),
(131,-2,o),
(215,-1,o),
(298,0,c),
(301,13,o),
(303,25,o),
(303,38,c),
(207,72,l),
(206,127,o),
(204,209,o),
(203,293,cs),
(201,379,o),
(200,468,o),
(200,536,c),
(332,326,o),
(519,77,o),
(572,-19,c)
);
}
);
width = 753;
},
{
anchors = (
{
name = bottom;
pos = (373,0);
},
{
name = top;
pos = (398,660);
}
);
background = {
shapes = (
{
closed = 1;
nodes = (
(502,-22,o),
(662,8,o),
(669,15,c),
(666,64,o),
(664,175,o),
(664,222,cs),
(664,350,o),
(675,474,o),
(692,606,c),
(749,618,l),
(743,665,l),
(526,660,l),
(520,624,l),
(576,605,l),
(586,479,o),
(586,352,o),
(586,226,c),
(518,328,o),
(368,547,o),
(312,665,c),
(25,660,l),
(20,622,l),
(76,603,l),
(84,479,o),
(82,161,o),
(74,54,c),
(15,42,l),
(21,-5,l),
(242,0,l),
(247,38,l),
(187,57,l),
(181,121,o),
(165,292,o),
(165,465,c),
(467,-22,l)
);
}
);
};
layerId = "013925A1-B736-4B8B-AD25-E95AD017ACB4";
shapes = (
{
closed = 1;
nodes = (
(502,-22,o),
(662,8,o),
(669,15,c),
(667,65,l),
(665,118,o),
(664,187,o),
(664,222,cs),
(664,350,o),
(675,474,o),
(692,606,c),
(749,618,l),
(749,634,o),
(747,649,o),
(743,665,c),
(671,663,o),
(598,662,o),
(526,660,c),
(522,648,o),
(520,636,o),
(520,624,c),
(576,605,l),
(582,525,o),
(585,444,o),
(586,364,cs),
(586,318,o),
(586,272,o),
(586,226,c),
(518,328,o),
(368,547,o),
(312,665,c),
(216,663,o),
(121,662,o),
(25,660,c),
(21,647,o),
(20,635,o),
(20,622,c),
(76,603,l),
(80,536,o),
(82,413,o),
(81,296,cs),
(80,197,o),
(78,103,o),
(74,54,c),
(15,42,l),
(15,26,o),
(17,11,o),
(21,-5,c),
(95,-3,o),
(168,-2,o),
(242,0,c),
(246,13,o),
(247,25,o),
(247,38,c),
(187,57,l),
(183,99,o),
(175,189,o),
(169,295,cs),
(167,348,o),
(165,407,o),
(165,465,c),
(266,303,o),
(366,140,o),
(467,-22,c)
);
}
);
width = 754;
},
{
anchors = (
{
name = bottom;
pos = (407,0);
},
{
name = top;
pos = (358,652);
}
);
background = {
shapes = (
{
closed = 1;
nodes = (
(575,-10,o),
(584,-6,o),
(593,0,c),
(587,28,l),
(586,91,o),
(584,242,o),
(585,330,cs),
(585,433,o),
(587,546,o),
(590,619,c),
(707,631,l),
(707,637,o),
(706,644,o),
(705,646,c),
(622,641,o),
(547,638,o),
(460,640,c),
(459,636,o),
(457,629,o),
(457,625,c),
(567,617,l),
(569,531,o),
(566,409,o),
(567,330,cs),
(567,241,o),
(566,111,o),
(566,-10,c)
);
},
{
closed = 1;
nodes = (
(117,-1,o),
(192,2,o),
(279,0,c),
(280,4,o),
(282,11,o),
(282,15,c),
(160,23,l),
(159,91,o),
(157,242,o),
(158,330,cs),
(158,433,o),
(160,550,o),
(163,644,c),
(132,642,o),
(75,639,o),
(33,640,c),
(32,636,o),
(30,629,o),
(30,625,c),
(140,617,l),
(142,531,o),
(139,409,o),
(140,330,cs),
(140,241,o),
(139,114,o),
(139,21,c),
(32,9,l),
(32,3,o),
(33,-4,o),
(34,-6,c)
);
},
{
closed = 1;
nodes = (
(305,403,o),
(428,194,o),
(566,-10,c),
(583,3,l),
(547,54,o),
(219,555,o),
(163,644,c),
(159,609,l)
);
}
);
};
hints = (
{
place = (137, 63);
place = (137, 63);
type = Stem;
},
{
place = (561, 63);
place = (561, 63);
type = Stem;
},
{
horizontal = 1;
place = (-19, 21);
target = up;
type = BottomGhost;
},
{
horizontal = 1;
place = (649, -20);
target = down;
type = TopGhost;
},
{
horizontal = 1;
place = (640, -20);
target = down;
type = TopGhost;
},
{
horizontal = 1;
place = (0, 21);
target = up;
type = BottomGhost;
},
{
place = (573, 83);
place = (573, 83);
type = Stem;
},
{
horizontal = 1;
place = (-9, 21);
target = up;
type = BottomGhost;
},
{
horizontal = 1;
place = (0, 21);
target = up;
type = BottomGhost;
},
{
horizontal = 1;
place = (649, -20);
target = down;
type = TopGhost;
},
{
horizontal = 1;
place = (640, -20);
target = down;
type = TopGhost;
},
{
place = (574, 85);
place = (574, 85);
type = Stem;
},
{
place = (983, 86);
place = (983, 86);
type = Stem;
},
{
horizontal = 1;
place = (296, 63);
place = (296, 63);
type = Stem;
},
{
horizontal = 1;
place = (-9, 21);
target = up;
type = BottomGhost;
},
{
horizontal = 1;
place = (0, 21);
target = up;
type = BottomGhost;
},
{
horizontal = 1;
place = (649, -20);
target = down;
type = TopGhost;
},
{
horizontal = 1;
place = (640, -20);
target = down;
type = TopGhost;
},
{
place = (146, 83);
place = (146, 83);
type = Stem;
},
{
horizontal = 1;
place = (-9, 21);
target = up;
type = BottomGhost;
},
{
horizontal = 1;
place = (0, 21);
target = up;
type = BottomGhost;
},
{
horizontal = 1;
place = (649, -20);
target = down;
type = TopGhost;
},
{
horizontal = 1;
place = (640, -20);
target = down;
type = TopGhost;
},
{
place = (147, 85);
place = (147, 85);
type = Stem;
},
{
place = (556, 86);
place = (556, 86);
type = Stem;
},
{
horizontal = 1;
place = (296, 63);
place = (296, 63);
type = Stem;
},
{
horizontal = 1;
place = (-9, 21);
target = up;
type = BottomGhost;
},
{
horizontal = 1;
place = (0, 21);
target = up;
type = BottomGhost;
},
{
horizontal = 1;
place = (649, -20);
target = down;
type = TopGhost;
},
{
horizontal = 1;
place = (640, -20);
target = down;
type = TopGhost;
}
);
layerId = "897B5A99-9760-4657-AC3F-5CEB049E61B1";
shapes = (
{
closed = 1;
nodes = (
(572,-6,o),
(583,0,o),
(591,6,c),
(587,38,l),
(586,91,o),
(584,242,o),
(585,330,cs),
(585,433,o),
(587,546,o),
(590,621,c),
(685,633,l),
(685,639,o),
(684,644,o),
(683,646,c),
(600,641,o),
(525,638,o),
(438,640,c),
(437,636,o),
(436,631,o),
(436,627,c),
(567,619,l),
(569,531,o),
(566,409,o),
(567,330,cs),
(567,250,o),
(566,138,o),
(566,27,c),
(489,143,o),
(214,563,o),
(163,644,c),
(132,642,o),
(75,639,o),
(37,640,c),
(36,636,o),
(34,631,o),
(34,627,c),
(140,621,l),
(142,533,o),
(139,409,o),
(140,330,cs),
(140,241,o),
(139,112,o),
(139,19,c),
(32,8,l),
(32,2,o),
(33,-4,o),
(34,-6,c),
(117,-1,o),
(192,2,o),
(279,0,c),
(280,4,o),
(281,10,o),
(281,14,c),
(160,21,l),
(159,89,o),
(157,242,o),
(158,330,cs),
(158,419,o),
(159,519,o),
(162,605,c),
(307,400,o),
(429,193,o),
(564,-7,c)
);
}
);
width = 725;
}
);
unicode = 78;
},
{
color = 4;
glyphname = Nhookleft;
kernLeft = H;
kernRight = N;
lastChange = "2022-12-16 16:06:30 +0000";
layers = (
{
layerId = UUID0;
shapes = (
{
closed = 1;
nodes = (
(75,-203,o),
(125,-190,o),
(158,-173,c),
(176,-135,o),
(185,-70,o),
(190,13,cs),
(193,64,o),
(194,120,o),
(195,181,cs),
(196,290,o),
(194,415,o),
(194,536,c),
(326,326,o),
(513,77,o),
(566,-19,c),
(575,-19,o),
(616,1,o),
(633,15,c),
(622,64,l),
(618,121,o),
(618,208,o),
(618,277,cs),
(618,382,o),
(624,492,o),
(634,580,c),
(705,602,l),
(704,618,o),
(703,633,o),
(699,649,c),
(619,642,o),
(539,641,o),
(459,640,c),
(455,627,o),
(454,615,o),
(454,602,c),
(549,568,l),
(553,488,o),
(555,409,o),
(555,329,cs),
(555,276,o),
(553,216,o),
(553,162,c),
(429,329,o),
(348,455,o),
(225,649,c),
(164,645,o),
(103,640,o),
(42,640,c),
(38,628,o),
(37,615,o),
(37,602,c),
(121,582,l),
(127,487,o),
(130,327,o),
(130,181,cs),
(130,121,o),
(129,64,o),
(126,13,cs),
(123,-33,o),
(118,-73,o),
(112,-103,c),
(72,-113,o),
(42,-119,o),
(2,-124,c),
(-3,-130,o),
(-7,-136,o),
(-9,-142,c),
(3,-166,o),
(16,-188,o),
(32,-212,c)
);
}
);
width = 747;
},
{
layerId = "013925A1-B736-4B8B-AD25-E95AD017ACB4";
shapes = (
{
closed = 1;
nodes = (
(152,-220,o),
(248,-180,o),
(248,-58,cs),
(248,-28,o),
(247,13,o),
(247,58,cs),
(246,98,o),
(245,143,o),
(244,222,cs),
(243,294,o),
(241,402,o),
(241,465,c),
(342,303,o),
(442,140,o),
(543,-22,c),
(578,-22,o),
(738,8,o),
(745,15,c),
(743,65,ls),
(741,118,o),
(740,187,o),
(740,222,cs),
(740,350,o),
(751,474,o),
(768,606,c),
(825,618,l),
(825,634,o),
(823,649,o),
(819,665,c),
(747,663,o),
(674,662,o),
(602,660,c),
(598,648,o),
(596,636,o),
(596,624,c),
(652,605,l),
(658,525,o),
(661,444,o),
(662,364,cs),
(662,318,o),
(662,272,o),
(662,226,c),
(594,328,o),
(444,547,o),
(388,665,c),
(292,663,o),
(197,662,o),
(101,660,c),
(97,647,o),
(96,635,o),
(96,622,c),
(152,603,l),
(156,536,o),
(158,413,o),
(156,242,cs),
(156,194,o),
(155,109,o),
(151,42,cs),
(149,-4,o),
(145,-42,o),
(138,-72,c),
(116,-102,o),
(14,-159,o),
(-10,-172,c),
(-10,-177,o),
(-10,-181,o),
(-10,-186,c),
(2,-197,o),
(13,-209,o),
(25,-220,c)
);
}
);
width = 830;
},
{
background = {
shapes = (
{
closed = 1;
nodes = (
(70,-178,o),
(102,-168,o),
(125,-128,cs),
(136,-110,o),
(158,-65,o),
(161,-40,c),
(161,-17,o),
(161,-4,o),
(161,13,c),
(140,0,l),
(139,-85,o),
(102,-132,o),
(89,-143,c),
(48,-162,o),
(18,-163,o),
(2,-163,c),
(1,-164,o),
(-1,-168,o),
(-2,-170,c),
(0,-174,o),
(1,-176,o),
(4,-180,c)
);
},
{
closed = 1;
nodes = (
(573,-6,o),
(584,0,o),
(592,6,c),
(588,38,l),
(587,91,o),
(585,242,o),
(586,330,cs),
(586,433,o),
(588,546,o),
(591,619,c),
(686,631,l),
(686,637,o),
(685,644,o),
(684,646,c),
(601,641,o),
(526,638,o),
(439,640,c),
(438,636,o),
(436,629,o),
(436,625,c),
(568,617,l),
(570,531,o),
(567,409,o),
(568,330,cs),
(568,250,o),
(567,138,o),
(567,28,c),
(490,143,o),
(215,563,o),
(164,644,c),
(133,642,o),
(76,639,o),
(34,640,c),
(33,636,o),
(31,629,o),
(31,625,c),
(141,617,l),
(143,531,o),
(140,409,o),
(141,330,cs),
(141,241,o),
(140,89,o),
(140,-4,c),
(161,6,l),
(160,74,o),
(158,242,o),
(159,330,cs),
(159,419,o),
(160,519,o),
(163,605,c),
(308,400,o),
(430,193,o),
(565,-7,c)
);
}
);
};
hints = (
{
place = (137, 63);
place = (137, 63);
type = Stem;
},
{
place = (561, 63);
place = (561, 63);
type = Stem;
},
{
horizontal = 1;
place = (-19, 21);
target = up;
type = BottomGhost;
},
{
horizontal = 1;
place = (649, -20);
target = down;
type = TopGhost;
},
{
horizontal = 1;
place = (640, -20);
target = down;
type = TopGhost;
},
{
horizontal = 1;
place = (0, 21);
target = up;
type = BottomGhost;
},
{
place = (573, 83);
place = (573, 83);
type = Stem;
},
{
horizontal = 1;
place = (-9, 21);
target = up;
type = BottomGhost;
},
{
horizontal = 1;
place = (0, 21);
target = up;
type = BottomGhost;
},
{
horizontal = 1;
place = (649, -20);
target = down;
type = TopGhost;
},
{
horizontal = 1;
place = (640, -20);
target = down;
type = TopGhost;
},
{
place = (574, 85);
place = (574, 85);
type = Stem;
},
{
place = (983, 86);
place = (983, 86);
type = Stem;
},
{
horizontal = 1;
place = (296, 63);
place = (296, 63);
type = Stem;
},
{
horizontal = 1;
place = (-9, 21);
target = up;
type = BottomGhost;
},
{
horizontal = 1;
place = (0, 21);
target = up;
type = BottomGhost;
},
{
horizontal = 1;
place = (649, -20);
target = down;
type = TopGhost;
},
{
horizontal = 1;
place = (640, -20);
target = down;
type = TopGhost;
},
{
place = (146, 83);
place = (146, 83);
type = Stem;
},
{
horizontal = 1;
place = (-9, 21);
target = up;
type = BottomGhost;
},
{
horizontal = 1;
place = (0, 21);
target = up;
type = BottomGhost;
},
{
horizontal = 1;
place = (649, -20);
target = down;
type = TopGhost;
},
{
horizontal = 1;
place = (640, -20);
target = down;
type = TopGhost;
},
{
place = (147, 85);
place = (147, 85);
type = Stem;
},
{
place = (556, 86);
place = (556, 86);
type = Stem;
},
{
horizontal = 1;
place = (296, 63);
place = (296, 63);
type = Stem;
},
{
horizontal = 1;
place = (-9, 21);
target = up;
type = BottomGhost;
},
{
horizontal = 1;
place = (0, 21);
target = up;
type = BottomGhost;
},
{
horizontal = 1;
place = (649, -20);
target = down;
type = TopGhost;
},
{
horizontal = 1;
place = (640, -20);
target = down;
type = TopGhost;
}
);
layerId = "897B5A99-9760-4657-AC3F-5CEB049E61B1";
shapes = (
{
closed = 1;
nodes = (
(70,-178,o),
(102,-168,o),
(125,-128,cs),
(136,-110,o),
(158,-65,o),
(161,-40,c),
(160,85,o),
(158,249,o),
(159,330,cs),
(159,419,o),
(160,519,o),
(163,605,c),
(308,400,o),
(430,193,o),
(565,-7,c),
(573,-6,o),
(584,0,o),
(592,6,c),
(588,38,l),
(587,91,o),
(585,242,o),
(586,330,cs),
(586,433,o),
(588,546,o),
(591,619,c),
(686,631,l),
(686,637,o),
(685,644,o),
(684,646,c),
(601,641,o),
(526,638,o),
(439,640,c),
(438,636,o),
(436,629,o),
(436,625,c),
(568,617,l),
(570,531,o),
(567,409,o),
(568,330,cs),
(568,250,o),
(567,138,o),
(567,28,c),
(490,143,o),
(215,563,o),
(164,644,c),
(133,642,o),
(76,639,o),
(34,640,c),
(33,636,o),
(31,629,o),
(31,625,c),
(141,617,l),
(143,531,o),
(140,409,o),
(141,330,cs),
(141,220,o),
(140,110,o),
(140,0,cs),
(139,-85,o),
(102,-132,o),
(89,-143,c),
(48,-162,o),
(18,-163,o),
(2,-163,c),
(1,-164,o),
(-1,-168,o),
(-2,-170,c),
(0,-174,o),
(1,-176,o),
(4,-180,c)
);
}
);
width = 726;
}
);
metricLeft = J;
metricRight = N;
unicode = 413;
},
{
color = 4;
glyphname = Eng;
kernLeft = H;
kernRight = N;
lastChange = "2022-12-16 16:06:40 +0000";
layers = (
{
background = {
shapes = (
{
closed = 1;
nodes = (
(42,22,o),
(45,7,o),
(48,-9,c),
(131,-2,o),
(215,-1,o),
(298,0,c),
(301,13,o),
(303,25,o),
(303,38,c),
(207,72,l),
(205,183,o),
(200,400,o),
(200,536,c),
(332,326,o),
(519,77,o),
(572,-19,c),
(581,-19,o),
(622,1,o),
(639,15,c),
(628,64,l),
(624,121,o),
(624,208,o),
(624,277,cs),
(624,382,o),
(630,492,o),
(640,580,c),
(711,602,l),
(710,618,o),
(709,633,o),
(705,649,c),
(625,642,o),
(545,641,o),
(465,640,c),
(461,627,o),
(460,615,o),
(460,602,c),
(555,568,l),
(559,488,o),
(561,409,o),
(561,329,cs),
(561,276,o),
(559,216,o),
(559,162,c),
(435,329,o),
(354,455,o),
(231,649,c),
(170,645,o),
(109,640,o),
(48,640,c),
(44,628,o),
(43,615,o),
(43,602,c),
(127,582,l),
(129,551,o),
(137,379,o),
(137,295,cs),
(137,177,o),
(133,101,o),
(130,59,c),
(42,38,l)
);
}
);
};
layerId = UUID0;
shapes = (
{
closed = 1;
nodes = (
(586,-19,o),
(611,2,o),
(628,16,c),
(628,64,l),
(624,121,o),
(624,208,o),
(624,277,cs),
(624,382,o),
(630,492,o),
(640,580,c),
(711,602,l),
(710,618,o),
(709,633,o),
(705,649,c),
(625,642,o),
(545,641,o),
(465,640,c),
(461,627,o),
(460,615,o),
(460,602,c),
(555,568,l),
(559,488,o),
(561,409,o),
(561,329,cs),
(561,276,o),
(559,216,o),
(559,162,c),
(435,329,o),
(354,455,o),
(231,649,c),
(170,645,o),
(109,640,o),
(48,640,c),
(44,628,o),
(43,615,o),
(43,602,c),
(127,582,l),
(129,551,o),
(137,379,o),
(137,295,cs),
(137,177,o),
(133,101,o),
(130,59,c),
(42,38,l),
(42,22,o),
(45,7,o),
(48,-9,c),
(131,-2,o),
(215,-1,o),
(298,0,c),
(301,13,o),
(303,25,o),
(303,38,c),
(207,72,l),
(206,129,o),
(204,214,o),
(203,301,cs),
(201,384,o),
(200,470,o),
(200,536,c),
(332,326,o),
(524,77,o),
(577,-19,c)
);
},
{
closed = 1;
nodes = (
(499,-203,o),
(541,-190,o),
(574,-173,c),
(595,-139,o),
(610,-102,o),
(620,-61,cs),
(625,-37,o),
(628,-11,o),
(628,16,c),
(556,16,l),
(556,-29,o),
(555,-72,o),
(547,-111,c),
(507,-121,o),
(466,-127,o),
(426,-132,c),
(421,-138,o),
(417,-144,o),
(415,-150,c),
(427,-174,o),
(440,-188,o),
(456,-212,c)
);
}
);
width = 753;
},
{
background = {
shapes = (
{
closed = 1;
nodes = (
(15,26,o),
(17,11,o),
(21,-5,c),
(95,-3,o),
(168,-2,o),
(242,0,c),
(246,13,o),
(247,25,o),
(247,38,c),
(187,57,l),
(181,121,o),
(165,292,o),
(165,465,c),
(266,303,o),
(366,140,o),
(467,-22,c),
(502,-22,o),
(662,8,o),
(669,15,c),
(667,65,l),
(665,118,o),
(664,187,o),
(664,222,cs),
(664,350,o),
(675,474,o),
(692,606,c),
(749,618,l),
(749,634,o),
(747,649,o),
(743,665,c),
(671,663,o),
(598,662,o),
(526,660,c),
(522,648,o),
(520,636,o),
(520,624,c),
(576,605,l),
(582,525,o),
(585,444,o),
(586,364,cs),
(586,318,o),
(586,272,o),
(586,226,c),
(518,328,o),
(368,547,o),
(312,665,c),
(216,663,o),
(121,662,o),
(25,660,c),
(21,647,o),
(20,635,o),
(20,622,c),
(76,603,l),
(80,536,o),
(82,413,o),
(81,296,cs),
(80,197,o),
(78,103,o),
(74,54,c),
(15,42,l)
);
}
);
};
layerId = "013925A1-B736-4B8B-AD25-E95AD017ACB4";
shapes = (
{
closed = 1;
nodes = (
(522,-22,o),
(662,8,o),
(669,15,c),
(667,65,l),
(663,159,o),
(663,278,o),
(669,367,cs),
(673,446,o),
(681,524,o),
(692,606,c),
(749,618,l),
(749,634,o),
(747,649,o),
(743,665,c),
(671,663,o),
(598,662,o),
(526,660,c),
(522,648,o),
(520,636,o),
(520,624,c),
(576,605,l),
(582,525,o),
(585,444,o),
(586,364,cs),
(586,318,o),
(586,272,o),
(586,226,c),
(518,328,o),
(368,547,o),
(312,665,c),
(216,663,o),
(121,662,o),
(25,660,c),
(21,647,o),
(20,635,o),
(20,622,c),
(76,603,l),
(80,536,o),
(82,413,o),
(81,296,cs),
(80,197,o),
(78,103,o),
(74,54,c),
(15,42,l),
(15,26,o),
(17,11,o),
(21,-5,c),
(95,-3,o),
(168,-2,o),
(242,0,c),
(246,13,o),
(247,25,o),
(247,38,c),
(187,57,l),
(183,100,o),
(174,191,o),
(169,299,cs),
(167,352,o),
(165,408,o),
(165,465,c),
(266,303,o),
(386,140,o),
(487,-22,c)
);
},
{
closed = 1;
nodes = (
(456,-158,o),
(531,-141,o),
(586,-116,cs),
(635,-94,o),
(669,-66,o),
(669,-38,cs),
(669,-27,o),
(669,3,o),
(669,15,c),
(495,15,l),
(495,-23,o),
(482,-34,o),
(438,-62,cs),
(406,-83,o),
(369,-102,o),
(354,-110,c),
(354,-115,o),
(354,-119,o),
(354,-124,c),
(366,-135,o),
(377,-147,o),
(389,-158,c)
);
}
);
width = 754;
},
{
background = {
shapes = (
{
closed = 1;
nodes = (
(44,22,o),
(47,7,o),
(50,-9,c),
(133,-2,o),
(217,-1,o),
(300,0,c),
(303,13,o),
(305,25,o),
(305,38,c),
(209,72,l),
(207,183,o),
(202,400,o),
(202,536,c),
(334,326,o),
(521,77,o),
(574,-19,c),
(583,-19,o),
(624,1,o),
(641,15,c),
(630,64,l),
(626,121,o),
(626,208,o),
(626,277,cs),
(626,382,o),
(632,492,o),
(642,580,c),
(713,602,l),
(712,618,o),
(711,633,o),
(707,649,c),
(627,642,o),
(547,641,o),
(467,640,c),
(463,627,o),
(462,615,o),
(462,602,c),
(557,568,l),
(561,488,o),
(563,409,o),
(563,329,cs),
(563,276,o),
(561,216,o),
(561,162,c),
(437,329,o),
(356,455,o),
(233,649,c),
(172,645,o),
(111,640,o),
(50,640,c),
(46,628,o),
(45,615,o),
(45,602,c),
(129,582,l),
(131,551,o),
(139,379,o),
(139,295,cs),
(139,177,o),
(135,101,o),
(132,59,c),
(44,38,l)
);
}
);
};
hints = (
{
place = (137, 63);
place = (137, 63);
type = Stem;
},
{
place = (561, 63);
place = (561, 63);
type = Stem;
},
{
horizontal = 1;
place = (-19, 21);
target = up;
type = BottomGhost;
},
{
horizontal = 1;
place = (649, -20);
target = down;
type = TopGhost;
},
{
horizontal = 1;
place = (640, -20);
target = down;
type = TopGhost;
},
{
horizontal = 1;
place = (0, 21);
target = up;
type = BottomGhost;
},
{
place = (573, 83);
place = (573, 83);
type = Stem;
},
{
horizontal = 1;
place = (-9, 21);
target = up;
type = BottomGhost;
},
{
horizontal = 1;
place = (0, 21);
target = up;
type = BottomGhost;
},
{
horizontal = 1;
place = (649, -20);
target = down;
type = TopGhost;
},
{
horizontal = 1;
place = (640, -20);
target = down;
type = TopGhost;
},
{
place = (574, 85);
place = (574, 85);
type = Stem;
},
{
place = (983, 86);
place = (983, 86);
type = Stem;
},
{
horizontal = 1;
place = (296, 63);
place = (296, 63);
type = Stem;
},
{
horizontal = 1;
place = (-9, 21);
target = up;
type = BottomGhost;
},
{
horizontal = 1;
place = (0, 21);
target = up;
type = BottomGhost;
},
{
horizontal = 1;
place = (649, -20);
target = down;
type = TopGhost;
},
{
horizontal = 1;
place = (640, -20);
target = down;
type = TopGhost;
},
{
place = (146, 83);
place = (146, 83);
type = Stem;
},
{
horizontal = 1;
place = (-9, 21);
target = up;
type = BottomGhost;
},
{
horizontal = 1;
place = (0, 21);
target = up;
type = BottomGhost;
},
{
horizontal = 1;
place = (649, -20);
target = down;
type = TopGhost;
},
{
horizontal = 1;
place = (640, -20);
target = down;
type = TopGhost;
},
{
place = (147, 85);
place = (147, 85);
type = Stem;
},
{
place = (556, 86);
place = (556, 86);
type = Stem;
},
{
horizontal = 1;
place = (296, 63);
place = (296, 63);
type = Stem;
},
{
horizontal = 1;
place = (-9, 21);
target = up;
type = BottomGhost;
},
{
horizontal = 1;
place = (0, 21);
target = up;
type = BottomGhost;
},
{
horizontal = 1;
place = (649, -20);
target = down;
type = TopGhost;
},
{
horizontal = 1;
place = (640, -20);
target = down;
type = TopGhost;
}
);
layerId = "897B5A99-9760-4657-AC3F-5CEB049E61B1";
shapes = (
{
closed = 1;
nodes = (
(576,-9,o),
(585,0,o),
(589,4,c),
(589,38,l),
(588,91,o),
(586,242,o),
(587,330,cs),
(587,433,o),
(589,546,o),
(592,619,c),
(687,631,l),
(687,637,o),
(686,644,o),
(685,646,c),
(602,641,o),
(527,638,o),
(440,640,c),
(439,636,o),
(437,629,o),
(437,625,c),
(569,617,l),
(571,531,o),
(568,409,o),
(569,330,cs),
(569,250,o),
(568,138,o),
(568,28,c),
(491,143,o),
(216,563,o),
(165,644,c),
(134,642,o),
(77,639,o),
(35,640,c),
(34,636,o),
(32,629,o),
(32,625,c),
(142,617,l),
(144,531,o),
(141,409,o),
(142,330,cs),
(142,241,o),
(141,114,o),
(141,21,c),
(34,9,l),
(34,3,o),
(35,-4,o),
(36,-6,c),
(119,-1,o),
(194,2,o),
(281,0,c),
(282,4,o),
(284,11,o),
(284,15,c),
(162,23,l),
(161,91,o),
(159,242,o),
(160,330,cs),
(160,419,o),
(161,519,o),
(164,605,c),
(309,400,o),
(431,193,o),
(570,-13,c)
);
},
{
closed = 1;
nodes = (
(498,-178,o),
(530,-168,o),
(553,-128,cs),
(564,-110,o),
(586,-65,o),
(589,-40,c),
(589,-17,o),
(589,-4,o),
(589,13,c),
(567,0,l),
(566,-85,o),
(530,-132,o),
(517,-143,c),
(476,-162,o),
(446,-163,o),
(430,-163,c),
(429,-164,o),
(427,-168,o),
(426,-170,c),
(428,-174,o),
(429,-176,o),
(432,-180,c)
);
}
);
width = 727;
}
);
metricLeft = N;
metricRight = N;
unicode = 330;
},
{
color = 4;
glyphname = O;
kernLeft = O;
kernRight = O;
lastChange = "2022-12-17 01:47:59 +0000";
layers = (
{
anchors = (
{
name = bottom;
pos = (326,0);
},
{
name = center;
pos = (326,326);
},
{
name = ogonek;
pos = (442,10);
},
{
name = top;
pos = (326,652);
},
{
name = topleft;
pos = (20,652);
},
{
name = topright;
pos = (413,640);
}
);
hints = (
{
place = (35, 98);
place = (35, 98);
type = Stem;
},
{
place = (517, 98);
place = (517, 98);
type = Stem;
},
{
horizontal = 1;
place = (574, 78);
place = (574, 78);
type = Stem;
},
{
horizontal = 1;
place = (-12, 21);
target = up;
type = BottomGhost;
}
);
layerId = UUID0;
shapes = (
{
closed = 1;
nodes = (
(412,1,o),
(509,74,o),
(565,167,cs),
(596,221,o),
(615,281,o),
(615,341,cs),
(615,485,o),
(494,652,o),
(343,652,c),
(240,640,o),
(145,568,o),
(89,476,cs),
(55,421,o),
(35,359,o),
(35,297,cs),
(35,153,o),
(156,-12,o),
(307,-12,c)
);
},
{
closed = 1;
nodes = (
(197,109,o),
(133,205,o),
(133,326,c),
(133,429,o),
(170,512,o),
(215,557,c),
(244,568,o),
(297,574,o),
(346,574,c),
(455,527,o),
(517,431,o),
(517,312,cs),
(517,209,o),
(480,128,o),
(435,83,c),
(406,72,o),
(359,63,o),
(310,63,c)
);
}
);
width = 652;
},
{
anchors = (
{
name = bottom;
pos = (365,0);
},
{
name = center;
pos = (361,325);
},
{
name = ogonek;
pos = (506,10);
},
{
name = top;
pos = (365,660);
},
{
name = topleft;
pos = (21,660);
},
{
name = topright;
pos = (522,660);
}
);
layerId = "013925A1-B736-4B8B-AD25-E95AD017ACB4";
shapes = (
{
closed = 1;
nodes = (
(420,-12,o),
(554,19,o),
(627,70,c),
(681,165,o),
(697,298,o),
(697,384,cs),
(697,569,o),
(599,671,o),
(437,671,cs),
(327,671,o),
(184,634,o),
(94,584,c),
(53,508,o),
(34,433,o),
(34,320,cs),
(34,109,o),
(112,-12,o),
(306,-12,cs)
);
},
{
closed = 1;
nodes = (
(312,101,o),
(284,191,o),
(284,336,cs),
(284,446,o),
(299,533,o),
(315,582,c),
(328,588,o),
(361,590,o),
(376,590,c),
(419,558,o),
(446,467,o),
(446,322,cs),
(446,213,o),
(432,124,o),
(416,74,c),
(412,71,o),
(371,67,o),
(358,67,c)
);
}
);
width = 731;
},
{
anchors = (
{
name = bottom;
pos = (326,0);
},
{
name = center;
pos = (326,326);
},
{
name = ogonek;
pos = (466,10);
},
{
name = top;
pos = (326,652);
},
{
name = topleft;
pos = (20,652);
},
{
name = topright;
pos = (391,640);
}
);
background = {
shapes = (
{
closed = 1;
nodes = (
(376,-5,o),
(472,36,o),
(517,77,c),
(566,148,o),
(598,261,o),
(598,352,cs),
(598,541,o),
(470,652,o),
(316,649,c),
(275,647,o),
(179,606,o),
(138,568,c),
(84,495,o),
(53,382,o),
(53,291,cs),
(53,103,o),
(181,-9,o),
(335,-6,c)
);
},
{
closed = 1;
nodes = (
(164,16,o),
(74,131,o),
(74,296,cs),
(74,381,o),
(103,487,o),
(154,558,c),
(210,596,o),
(268,626,o),
(319,630,c),
(469,626,o),
(576,526,o),
(576,351,cs),
(576,263,o),
(548,151,o),
(503,91,c),
(447,48,o),
(382,16,o),
(332,13,c)
);
}
);
};
hints = (
{
place = (35, 98);
place = (35, 98);
type = Stem;
},
{
place = (517, 98);
place = (517, 98);
type = Stem;
},
{
horizontal = 1;
place = (574, 78);
place = (574, 78);
type = Stem;
},
{
horizontal = 1;
place = (-12, 21);
target = up;
type = BottomGhost;
},
{
place = (55, 80);
place = (55, 80);
type = Stem;
},
{
place = (367, 82);
place = (367, 82);
type = Stem;
},
{
horizontal = 1;
place = (-12, 21);
target = up;
type = BottomGhost;
},
{
horizontal = 1;
place = (462, -20);
target = down;
type = TopGhost;
},
{
place = (42, 84);
place = (42, 84);
type = Stem;
},
{
horizontal = 1;
place = (-12, 69);
place = (-12, 69);
type = Stem;
},
{
horizontal = 1;
place = (205, 41);
place = (205, 41);
type = Stem;
},
{
horizontal = 1;
place = (462, -20);
target = down;
type = TopGhost;
}
);
layerId = "897B5A99-9760-4657-AC3F-5CEB049E61B1";
shapes = (
{
closed = 1;
nodes = (
(381,-11,o),
(477,47,o),
(522,92,c),
(568,167,o),
(596,230,o),
(596,348,cs),
(597,509,o),
(471,651,o),
(322,651,c),
(268,651,o),
(175,593,o),
(134,552,c),
(83,476,o),
(54,413,o),
(54,297,cs),
(53,161,o),
(150,-11,o),
(333,-11,c)
);
},
{
closed = 1;
nodes = (
(174,7,o),
(72,152,o),
(73,301,cs),
(73,413,o),
(105,481,o),
(150,543,c),
(199,583,o),
(263,627,o),
(320,633,c),
(459,633,o),
(578,500,o),
(577,346,cs),
(577,243,o),
(547,166,o),
(505,102,c),
(465,62,o),
(381,13,o),
(336,8,c)
);
}
);
width = 652;
}
);
unicode = 79;
userData = {
KernOnName = O;
};
},
{
color = 3;
glyphname = Oslash;
kernLeft = O;
kernRight = O;
lastChange = "2022-12-16 16:04:31 +0000";
layers = (
{
hints = (
{
place = (35, 98);
place = (35, 98);
type = Stem;
},
{
place = (517, 98);
place = (517, 98);
type = Stem;
},
{
horizontal = 1;
place = (712, -20);
target = down;
type = TopGhost;
},
{
horizontal = 1;
place = (652, -20);
target = down;
type = TopGhost;
},
{
horizontal = 1;
place = (-90, 21);
target = up;
type = BottomGhost;
},
{
horizontal = 1;
place = (-12, 21);
target = up;
type = BottomGhost;
}
);
layerId = UUID0;
shapes = (
{
closed = 1;
nodes = (
(138,-90,l),
(164,-32,o),
(241,120,o),
(322,277,cs),
(411,450,o),
(506,629,o),
(542,692,c),
(540,704,l),
(504,712,l),
(390,482,o),
(344,389,o),
(294,292,cs),
(249,206,o),
(201,117,o),
(98,-74,c),
(124,-90,l)
);
},
{
ref = O;
}
);
width = 652;
},
{
layerId = "013925A1-B736-4B8B-AD25-E95AD017ACB4";
shapes = (
{
closed = 1;
nodes = (
(134,-125,l),
(174,-54,o),
(284,123,o),
(398,303,cs),
(515,487,o),
(636,675,o),
(692,759,c),
(681,771,l),
(597,771,l),
(539,668,o),
(455,534,o),
(336,350,cs),
(254,223,o),
(156,73,o),
(38,-107,c),
(51,-125,l)
);
},
{
ref = O;
}
);
width = 731;
},
{
associatedMasterId = UUID0;
attr = {
axisRules = (
{
min = 136;
}
);
};
background = {
shapes = (
{
closed = 1;
nodes = (
(472,8,o),
(615,177,o),
(615,341,cs),
(615,433,o),
(565,535,o),
(489,596,c),
(508,632,o),
(526,664,o),
(542,692,c),
(540,704,l),
(504,712,l),
(458,618,l),
(423,639,o),
(384,652,o),
(343,652,c),
(178,632,o),
(35,461,o),
(35,297,cs),
(35,204,o),
(85,102,o),
(162,42,c),
(98,-74,l),
(124,-90,l),
(138,-90,l),
(153,-57,o),
(172,-20,o),
(192,21,c),
(227,0,o),
(266,-12,o),
(307,-12,c)
);
},
{
closed = 1;
nodes = (
(133,429,o),
(170,512,o),
(215,557,c),
(244,568,o),
(297,574,o),
(346,574,c),
(372,563,o),
(395,549,o),
(415,532,c),
(348,398,o),
(278,260,o),
(209,130,c),
(160,180,o),
(133,248,o),
(133,326,c)
);
},
{
closed = 1;
nodes = (
(490,457,o),
(517,389,o),
(517,312,cs),
(517,209,o),
(480,128,o),
(435,83,c),
(406,72,o),
(359,63,o),
(310,63,c),
(281,74,o),
(256,89,o),
(234,106,c),
(299,236,o),
(375,383,o),
(442,508,c)
);
}
);
};
hints = (
{
place = (35, 98);
place = (35, 98);
type = Stem;
},
{
place = (517, 98);
place = (517, 98);
type = Stem;
},
{
horizontal = 1;
place = (712, -20);
target = down;
type = TopGhost;
},
{
horizontal = 1;
place = (652, -20);
target = down;
type = TopGhost;
},
{
horizontal = 1;
place = (-90, 21);
target = up;
type = BottomGhost;
},
{
horizontal = 1;
place = (-12, 21);
target = up;
type = BottomGhost;
}
);
layerId = "5A624B88-B2F3-43ED-A24B-D9A70791F290";
name = "[123]";
shapes = (
{
closed = 1;
nodes = (
(138,-90,l),
(150,-64,o),
(172,-18,o),
(200,38,c),
(200,116,l),
(173,65,o),
(140,4,o),
(98,-74,c),
(124,-90,l)
);
},
{
closed = 1;
nodes = (
(491,600,o),
(524,661,o),
(542,692,c),
(540,704,l),
(504,712,l),
(485,673,o),
(467,638,o),
(451,606,c),
(451,525,l)
);
},
{
ref = O;
}
);
width = 652;
},
{
associatedMasterId = "013925A1-B736-4B8B-AD25-E95AD017ACB4";
attr = {
axisRules = (
{
min = 136;
}
);
};
layerId = "D58077C8-BDEF-4C43-B712-EBA0A65E6698";
name = "[123]";
shapes = (
{
closed = 1;
nodes = (
(134,-125,l),
(169,-63,o),
(221,22,o),
(280,117,c),
(269,242,l),
(184,114,o),
(102,-10,o),
(38,-107,c),
(51,-125,l)
);
},
{
closed = 1;
nodes = (
(565,566,o),
(640,681,o),
(692,759,c),
(681,771,l),
(597,771,l),
(556,698,o),
(502,608,o),
(442,512,c),
(485,440,l)
);
},
{
ref = O;
}
);
width = 731;
},
{
background = {
shapes = (
{
closed = 1;
nodes = (
(138,-90,l),
(193,32,o),
(473,573,o),
(542,692,c),
(540,704,l),
(504,712,l),
(288,276,o),
(317,332,o),
(98,-74,c),
(124,-90,l)
);
}
);
};
hints = (
{
place = (35, 98);
place = (35, 98);
type = Stem;
},
{
place = (517, 98);
place = (517, 98);
type = Stem;
},
{
horizontal = 1;
place = (712, -20);
target = down;
type = TopGhost;
},
{
horizontal = 1;
place = (652, -20);
target = down;
type = TopGhost;
},
{
horizontal = 1;
place = (-90, 21);
target = up;
type = BottomGhost;
},
{
horizontal = 1;
place = (-12, 21);
target = up;
type = BottomGhost;
}
);
layerId = "897B5A99-9760-4657-AC3F-5CEB049E61B1";
shapes = (
{
closed = 1;
nodes = (
(133,-90,l),
(216,68,o),
(277,184,o),
(334,294,cs),
(398,417,o),
(459,533,o),
(542,692,c),
(540,703,l),
(526,707,l),
(460,578,o),
(387,434,o),
(319,305,cs),
(223,118,o),
(139,-39,o),
(114,-84,c),
(124,-90,l)
);
},
{
ref = O;
}
);
width = 652;
},
{
associatedMasterId = "897B5A99-9760-4657-AC3F-5CEB049E61B1";
attr = {
axisRules = (
{
min = 136;
}
);
};
background = {
shapes = (
{
closed = 1;
nodes = (
(472,8,o),
(615,177,o),
(615,341,cs),
(615,433,o),
(565,535,o),
(489,596,c),
(508,632,o),
(526,664,o),
(542,692,c),
(540,704,l),
(504,712,l),
(458,618,l),
(423,639,o),
(384,652,o),
(343,652,c),
(178,632,o),
(35,461,o),
(35,297,cs),
(35,204,o),
(85,102,o),
(162,42,c),
(98,-74,l),
(124,-90,l),
(138,-90,l),
(153,-57,o),
(172,-20,o),
(192,21,c),
(227,0,o),
(266,-12,o),
(307,-12,c)
);
},
{
closed = 1;
nodes = (
(133,429,o),
(170,512,o),
(215,557,c),
(244,568,o),
(297,574,o),
(346,574,c),
(372,563,o),
(395,549,o),
(415,532,c),
(348,398,o),
(278,260,o),
(209,130,c),
(160,180,o),
(133,248,o),
(133,326,c)
);
},
{
closed = 1;
nodes = (
(490,457,o),
(517,389,o),
(517,312,cs),
(517,209,o),
(480,128,o),
(435,83,c),
(406,72,o),
(359,63,o),
(310,63,c),
(281,74,o),
(256,89,o),
(234,106,c),
(299,236,o),
(375,383,o),
(442,508,c)
);
}
);
};
hints = (
{
place = (35, 98);
place = (35, 98);
type = Stem;
},
{
place = (517, 98);
place = (517, 98);
type = Stem;
},
{
horizontal = 1;
place = (712, -20);
target = down;
type = TopGhost;
},
{
horizontal = 1;
place = (652, -20);
target = down;
type = TopGhost;
},
{
horizontal = 1;
place = (-90, 21);
target = up;
type = BottomGhost;
},
{
horizontal = 1;
place = (-12, 21);
target = up;
type = BottomGhost;
}
);
layerId = "06930FF8-FAE0-4C5E-8755-EB2F6DBB6362";
name = "[123]";
shapes = (
{
closed = 1;
nodes = (
(138,-90,l),
(150,-64,o),
(172,-18,o),
(200,38,c),
(200,116,l),
(173,65,o),
(140,4,o),
(98,-74,c),
(124,-90,l)
);
},
{
closed = 1;
nodes = (
(491,600,o),
(524,661,o),
(542,692,c),
(540,704,l),
(504,712,l),
(485,673,o),
(467,638,o),
(451,606,c),
(451,525,l)
);
},
{
ref = O;
}
);
width = 652;
}
);
metricLeft = O;
metricRight = O;
unicode = 216;
},
{
color = 4;
glyphname = OE;
kernLeft = O;
kernRight = E;
lastChange = "2022-12-16 16:04:31 +0000";
layers = (
{
background = {
shapes = (
{
closed = 1;
nodes = (
(520,435,o),
(522,514,o),
(525,574,c),
(549,576,o),
(643,586,o),
(715,586,c),
(752,473,l),
(756,462,l),
(772,462,o),
(787,464,o),
(803,470,c),
(797,641,l),
(797,649,l),
(648,643,o),
(499,640,o),
(350,640,c),
(346,625,o),
(344,611,o),
(344,596,c),
(427,574,l),
(429,484,o),
(430,397,o),
(431,310,cs),
(432,226,o),
(432,142,o),
(432,54,c),
(346,38,l),
(346,22,o),
(348,16,o),
(352,0,c),
(591,0,l),
(669,0,o),
(748,-2,o),
(826,-6,c),
(826,4,l),
(833,164,l),
(833,170,l),
(817,175,o),
(802,177,o),
(786,178,c),
(755,74,l),
(705,64,o),
(603,57,o),
(516,57,c),
(517,295,l),
(712,289,l),
(738,310,l),
(738,358,l),
(518,353,l)
);
},
{
closed = 1;
nodes = (
(377,-3,o),
(444,32,o),
(497,82,c),
(483,602,l),
(442,633,o),
(394,652,o),
(343,652,c),
(240,640,o),
(146,568,o),
(89,476,cs),
(55,421,o),
(35,359,o),
(35,297,cs),
(35,153,o),
(156,-12,o),
(307,-12,c)
);
},
{
closed = 1;
nodes = (
(197,109,o),
(133,205,o),
(133,326,c),
(133,429,o),
(170,512,o),
(215,557,c),
(244,568,o),
(297,574,o),
(346,574,c),
(389,555,o),
(425,529,o),
(453,497,c),
(479,145,l),
(466,120,o),
(451,99,o),
(435,83,c),
(406,72,o),
(359,63,o),
(310,63,c)
);
}
);
};
hints = (
{
place = (42, 96);
place = (42, 96);
type = Stem;
},
{
place = (466, 79);
place = (466, 79);
type = Stem;
},
{
horizontal = 1;
place = (-12, 69);
place = (-12, 69);
type = Stem;
},
{
horizontal = 1;
place = (0, 57);
place = (0, 57);
type = Stem;
},
{
horizontal = 1;
place = (295, 62);
place = (295, 62);
type = Stem;
},
{
horizontal = 1;
place = (586, 55);
place = (586, 55);
type = Stem;
},
{
horizontal = 1;
place = (462, -20);
target = down;
type = TopGhost;
},
{
horizontal = 1;
place = (652, -20);
target = down;
type = TopGhost;
}
);
layerId = UUID0;
shapes = (
{
closed = 1;
nodes = (
(35,153,o),
(156,-12,o),
(307,-12,c),
(325,-10,o),
(343,-6,o),
(360,0,c),
(437,0,o),
(514,0,o),
(591,0,cs),
(669,0,o),
(748,-2,o),
(826,-6,c),
(826,4,l),
(833,164,l),
(833,170,l),
(817,175,o),
(802,177,o),
(786,178,c),
(755,74,l),
(705,64,o),
(603,57,o),
(516,57,c),
(517,295,l),
(738,288,l),
(738,335,l),
(716,357,l),
(518,353,l),
(520,435,o),
(522,514,o),
(525,574,c),
(549,576,o),
(643,586,o),
(715,586,c),
(752,473,l),
(756,462,l),
(772,462,o),
(787,464,o),
(803,470,c),
(797,641,l),
(797,649,l),
(669,644,o),
(541,641,o),
(412,640,c),
(390,648,o),
(367,652,o),
(343,652,c),
(240,640,o),
(146,568,o),
(89,476,cs),
(55,421,o),
(35,359,o),
(35,297,cs)
);
},
{
closed = 1;
nodes = (
(133,376,o),
(142,421,o),
(156,460,cs),
(171,501,o),
(192,534,o),
(215,557,c),
(282,579,o),
(357,580,o),
(427,563,c),
(429,477,o),
(430,393,o),
(431,310,cs),
(432,231,o),
(432,152,o),
(432,70,c),
(393,59,o),
(349,57,o),
(310,63,c),
(197,109,o),
(133,205,o),
(133,326,cs)
);
}
);
width = 911;
},
{
background = {
shapes = (
{
closed = 1;
nodes = (
(54,508,o),
(34,433,o),
(34,320,cs),
(34,109,o),
(112,-5,o),
(311,-5,cs),
(410,-5,o),
(504,19,o),
(567,70,c),
(621,165,o),
(637,298,o),
(637,384,cs),
(637,569,o),
(589,661,o),
(422,661,cs),
(322,661,o),
(184,634,o),
(94,584,c)
);
},
{
closed = 1;
nodes = (
(333,588,o),
(348,590,o),
(361,590,c),
(404,558,o),
(431,467,o),
(431,322,cs),
(431,213,o),
(417,124,o),
(401,74,c),
(397,71,o),
(376,67,o),
(363,67,c),
(317,101,o),
(289,191,o),
(289,336,cs),
(289,446,o),
(304,533,o),
(320,582,c)
);
},
{
closed = 1;
nodes = (
(836,374,l),
(649,358,l),
(649,424,o),
(653,540,o),
(656,587,c),
(671,589,o),
(732,596,o),
(759,596,c),
(790,469,l),
(801,462,l),
(893,468,l),
(903,656,l),
(894,665,l),
(843,662,o),
(650,656,o),
(472,660,cs),
(422,661,l),
(427,594,l),
(431,500,o),
(431,373,o),
(431,290,cs),
(431,218,o),
(428,132,o),
(423,58,c),
(311,-5,l),
(344,-3,o),
(514,0,o),
(655,0,c),
(737,0,o),
(831,-3,o),
(893,-5,c),
(900,5,l),
(909,179,l),
(905,188,l),
(813,195,l),
(776,83,l),
(755,79,o),
(696,69,o),
(647,66,c),
(647,289,l),
(851,280,l),
(855,358,l)
);
}
);
};
layerId = "013925A1-B736-4B8B-AD25-E95AD017ACB4";
shapes = (
{
closed = 1;
nodes = (
(34,109,o),
(112,-5,o),
(311,-5,cs),
(325,-5,o),
(339,-5,o),
(353,-4,c),
(420,-2,o),
(546,0,o),
(655,0,cs),
(737,0,o),
(831,-3,o),
(893,-5,c),
(900,5,l),
(909,179,l),
(905,188,l),
(874,190,o),
(844,193,o),
(813,195,c),
(776,83,l),
(755,79,o),
(696,69,o),
(647,66,c),
(647,289,l),
(851,280,l),
(855,358,l),
(836,374,l),
(649,358,l),
(649,424,o),
(653,540,o),
(656,587,c),
(671,589,o),
(732,596,o),
(759,596,c),
(790,469,l),
(801,462,l),
(832,464,o),
(862,466,o),
(893,468,c),
(903,656,l),
(894,665,l),
(805,659,o),
(602,658,o),
(448,661,cs),
(439,661,o),
(430,661,o),
(422,661,cs),
(322,661,o),
(184,634,o),
(94,584,c),
(54,508,o),
(34,433,o),
(34,320,cs)
);
},
{
closed = 1;
nodes = (
(289,386,o),
(292,431,o),
(297,470,cs),
(303,517,o),
(311,555,o),
(320,582,c),
(333,588,o),
(348,590,o),
(361,590,c),
(407,556,o),
(431,459,o),
(431,318,cs),
(431,211,o),
(417,123,o),
(401,74,c),
(397,71,o),
(376,67,o),
(363,67,c),
(317,101,o),
(289,191,o),
(289,336,cs)
);
}
);
width = 934;
},
{
background = {
shapes = (
{
closed = 1;
nodes = (
(448,0,l),
(491,1,o),
(530,0,o),
(594,0,cs),
(668,0,o),
(747,-2,o),
(823,-3,c),
(825,53,l),
(828,134,l),
(830,190,l),
(828,191,o),
(820,193,o),
(817,193,c),
(804,20,l),
(751,14,o),
(504,16,o),
(464,21,c),
(462,324,l),
(739,326,l),
(742,335,l),
(732,345,l),
(462,342,l),
(462,442,o),
(464,549,o),
(467,620,c),
(581,627,o),
(679,629,o),
(774,629,c),
(792,464,l),
(793,456,l),
(797,456,o),
(803,457,o),
(806,458,c),
(797,631,l),
(796,647,l),
(724,646,o),
(575,643,o),
(448,641,c),
(444,619,l),
(446,531,o),
(444,409,o),
(444,330,cs),
(444,225,o),
(443,121,o),
(443,16,c)
);
},
{
closed = 1;
nodes = (
(461,639,l),
(409,647,o),
(366,651,o),
(322,651,c),
(268,651,o),
(175,593,o),
(134,552,c),
(83,476,o),
(54,413,o),
(54,297,cs),
(53,161,o),
(150,-11,o),
(333,-11,c),
(347,-11,o),
(407,-7,o),
(459,2,c)
);
},
{
closed = 1;
nodes = (
(174,7,o),
(72,152,o),
(73,301,cs),
(73,413,o),
(105,481,o),
(150,543,c),
(199,583,o),
(263,627,o),
(320,633,c),
(364,633,o),
(407,628,o),
(448,620,c),
(451,22,l),
(404,10,o),
(364,8,o),
(336,8,c)
);
}
);
};
hints = (
{
place = (42, 96);
place = (42, 96);
type = Stem;
},
{
place = (466, 79);
place = (466, 79);
type = Stem;
},
{
horizontal = 1;
place = (-12, 69);
place = (-12, 69);
type = Stem;
},
{
horizontal = 1;
place = (0, 57);
place = (0, 57);
type = Stem;
},
{
horizontal = 1;
place = (295, 62);
place = (295, 62);
type = Stem;
},
{
horizontal = 1;
place = (586, 55);
place = (586, 55);
type = Stem;
},
{
horizontal = 1;
place = (462, -20);
target = down;
type = TopGhost;
},
{
horizontal = 1;
place = (652, -20);
target = down;
type = TopGhost;
},
{
place = (446, 86);
place = (446, 86);
type = Stem;
},
{
horizontal = 1;
place = (0, 57);
place = (0, 57);
type = Stem;
},
{
horizontal = 1;
place = (295, 60);
place = (295, 60);
type = Stem;
},
{
horizontal = 1;
place = (586, 54);
place = (586, 54);
type = Stem;
},
{
horizontal = 1;
place = (462, -20);
target = down;
type = TopGhost;
},
{
horizontal = 1;
place = (649, -20);
target = down;
type = TopGhost;
},
{
horizontal = 1;
place = (-9, 21);
target = up;
type = BottomGhost;
},
{
place = (457, 83);
place = (457, 83);
type = Stem;
},
{
horizontal = 1;
place = (0, 57);
place = (0, 57);
type = Stem;
},
{
horizontal = 1;
place = (649, -20);
target = down;
type = TopGhost;
},
{
horizontal = 1;
place = (640, -20);
target = down;
type = TopGhost;
},
{
horizontal = 1;
place = (-9, 21);
target = up;
type = BottomGhost;
},
{
place = (448, 83);
place = (448, 83);
type = Stem;
},
{
horizontal = 1;
place = (-9, 21);
target = up;
type = BottomGhost;
},
{
horizontal = 1;
place = (0, 21);
target = up;
type = BottomGhost;
},
{
horizontal = 1;
place = (649, -20);
target = down;
type = TopGhost;
},
{
horizontal = 1;
place = (640, -20);
target = down;
type = TopGhost;
},
{
place = (449, 85);
place = (449, 85);
type = Stem;
},
{
place = (858, 86);
place = (858, 86);
type = Stem;
},
{
horizontal = 1;
place = (296, 63);
place = (296, 63);
type = Stem;
},
{
horizontal = 1;
place = (-9, 21);
target = up;
type = BottomGhost;
},
{
horizontal = 1;
place = (0, 21);
target = up;
type = BottomGhost;
},
{
horizontal = 1;
place = (649, -20);
target = down;
type = TopGhost;
},
{
horizontal = 1;
place = (640, -20);
target = down;
type = TopGhost;
},
{
place = (35, 98);
place = (35, 98);
type = Stem;
},
{
place = (517, 98);
place = (517, 98);
type = Stem;
},
{
horizontal = 1;
place = (574, 78);
place = (574, 78);
type = Stem;
},
{
horizontal = 1;
place = (-12, 21);
target = up;
type = BottomGhost;
},
{
place = (55, 80);
place = (55, 80);
type = Stem;
},
{
place = (367, 82);
place = (367, 82);
type = Stem;
},
{
horizontal = 1;
place = (-12, 21);
target = up;
type = BottomGhost;
},
{
horizontal = 1;
place = (462, -20);
target = down;
type = TopGhost;
},
{
place = (42, 84);
place = (42, 84);
type = Stem;
},
{
horizontal = 1;
place = (-12, 69);
place = (-12, 69);
type = Stem;
},
{
horizontal = 1;
place = (205, 41);
place = (205, 41);
type = Stem;
},
{
horizontal = 1;
place = (462, -20);
target = down;
type = TopGhost;
}
);
layerId = "897B5A99-9760-4657-AC3F-5CEB049E61B1";
shapes = (
{
closed = 1;
nodes = (
(53,161,o),
(150,-11,o),
(333,-11,cs),
(346,-11,o),
(399,-8,o),
(448,0,c),
(491,1,o),
(530,0,o),
(594,0,cs),
(668,0,o),
(747,-2,o),
(823,-3,c),
(825,53,l),
(828,134,l),
(830,190,l),
(828,191,o),
(820,193,o),
(817,193,c),
(804,20,l),
(751,14,o),
(504,16,o),
(464,21,c),
(462,324,l),
(709,326,l),
(711,335,l),
(701,345,l),
(462,342,l),
(462,442,o),
(464,549,o),
(467,620,c),
(581,627,o),
(679,629,o),
(774,629,c),
(792,464,l),
(793,456,l),
(797,456,o),
(803,457,o),
(806,458,c),
(797,631,l),
(796,647,l),
(680,645,o),
(564,643,o),
(448,641,c),
(402,648,o),
(362,651,o),
(322,651,cs),
(268,651,o),
(175,593,o),
(134,552,c),
(83,476,o),
(54,413,o),
(54,297,cs)
);
},
{
closed = 1;
nodes = (
(73,413,o),
(105,481,o),
(150,543,c),
(199,583,o),
(263,627,o),
(320,633,c),
(363,633,o),
(404,628,o),
(444,621,c),
(446,531,o),
(444,409,o),
(444,330,cs),
(444,226,o),
(443,124,o),
(443,20,c),
(399,10,o),
(362,8,o),
(336,8,cs),
(174,7,o),
(72,152,o),
(73,301,cs)
);
}
);
width = 920;
}
);
metricLeft = O;
metricRight = E;
unicode = 338;
},
{
color = 4;
glyphname = P;
kernLeft = H;
kernRight = P;
lastChange = "2022-12-16 16:04:31 +0000";
layers = (
{
background = {
shapes = (
{
closed = 1;
nodes = (
(60,38,l),
(66,-9,l),
(149,-3,o),
(247,0,o),
(346,0,c),
(351,38,l),
(246,67,l),
(240,144,o),
(231,272,o),
(231,369,cs),
(231,517,o),
(234,583,o),
(234,583,c),
(234,583,o),
(318,597,o),
(401,597,cs),
(406,597,o),
(462,533,o),
(462,459,cs),
(462,405,o),
(450,353,o),
(450,353,c),
(410,327,o),
(343,313,o),
(287,313,c),
(277,305,l),
(275,269,l),
(275,269,o),
(333,262,o),
(396,262,c),
(459,302,o),
(518,358,o),
(518,358,c),
(518,358,o),
(553,416,o),
(553,476,cs),
(553,587,o),
(460,640,o),
(460,640,c),
(460,640,o),
(422,652,o),
(361,652,cs),
(282,652,o),
(173,640,o),
(64,640,c),
(58,596,l),
(141,574,l),
(141,574,o),
(152,527,o),
(152,356,cs),
(152,241,o),
(147,121,o),
(144,54,c)
);
}
);
};
hints = (
{
place = (153, 79);
place = (153, 79);
type = Stem;
},
{
place = (463, 91);
place = (463, 91);
type = Stem;
},
{
place = (153, 94);
place = (153, 94);
type = Stem;
},
{
horizontal = 1;
place = (262, 51);
place = (262, 51);
type = Stem;
},
{
horizontal = 1;
place = (597, 43);
place = (597, 43);
type = Stem;
},
{
horizontal = 1;
place = (597, 55);
place = (597, 55);
type = Stem;
},
{
horizontal = 1;
place = (-9, 21);
target = up;
type = BottomGhost;
},
{
horizontal = 1;
place = (0, 21);
target = up;
type = BottomGhost;
}
);
layerId = UUID0;
shapes = (
{
closed = 1;
nodes = (
(149,-3,o),
(247,0,o),
(346,0,c),
(350,13,o),
(351,25,o),
(351,38,c),
(246,67,l),
(240,144,o),
(231,272,o),
(231,369,cs),
(231,517,o),
(234,583,o),
(234,583,c),
(253,586,o),
(280,590,o),
(307,592,cs),
(342,595,o),
(378,597,o),
(401,597,c),
(430,574,o),
(462,512,o),
(462,459,cs),
(462,405,o),
(450,353,o),
(450,353,c),
(430,340,o),
(402,330,o),
(373,323,cs),
(345,316,o),
(315,313,o),
(287,313,c),
(277,305,l),
(275,269,l),
(275,269,o),
(333,262,o),
(396,262,c),
(459,302,o),
(518,358,o),
(518,358,c),
(518,358,o),
(553,416,o),
(553,476,cs),
(553,547,o),
(511,609,o),
(460,640,c),
(454,642,o),
(419,652,o),
(361,652,cs),
(282,652,o),
(173,640,o),
(64,640,c),
(60,625,o),
(58,611,o),
(58,596,c),
(141,574,l),
(147,548,o),
(152,461,o),
(152,356,cs),
(152,241,o),
(147,121,o),
(144,54,c),
(60,38,l),
(60,22,o),
(61,7,o),
(66,-9,c)
);
}
);
width = 589;
},
{
background = {
shapes = (
{
closed = 1;
nodes = (
(25,38,l),
(30,-5,l),
(156,-3,o),
(281,-2,o),
(407,0,c),
(412,48,l),
(316,77,l),
(312,142,o),
(311,180,o),
(311,249,c),
(311,340,ls),
(311,409,o),
(312,513,o),
(317,589,c),
(325,593,o),
(370,599,o),
(403,602,c),
(429,560,o),
(438,484,o),
(438,421,cs),
(438,377,o),
(435,335,o),
(431,310,c),
(361,290,l),
(361,233,l),
(410,229,o),
(459,229,o),
(508,229,c),
(550,249,o),
(599,289,o),
(627,319,c),
(652,358,o),
(665,407,o),
(665,465,cs),
(665,539,o),
(635,613,o),
(571,656,c),
(555,661,o),
(514,666,o),
(450,666,cs),
(342,666,o),
(153,664,o),
(30,660,c),
(25,622,l),
(79,602,l),
(86,513,o),
(87,393,o),
(87,290,cs),
(87,216,o),
(84,124,o),
(79,49,c)
);
}
);
};
layerId = "013925A1-B736-4B8B-AD25-E95AD017ACB4";
shapes = (
{
closed = 1;
nodes = (
(156,-3,o),
(281,-2,o),
(407,0,c),
(411,16,o),
(412,32,o),
(412,48,c),
(316,77,l),
(312,145,o),
(311,187,o),
(311,340,cs),
(311,409,o),
(312,513,o),
(317,589,c),
(326,592,o),
(338,594,o),
(345,595,cs),
(356,597,o),
(383,600,o),
(403,602,c),
(429,560,o),
(438,484,o),
(438,421,cs),
(438,377,o),
(435,335,o),
(431,310,c),
(420,307,o),
(408,303,o),
(396,300,cs),
(384,297,o),
(373,294,o),
(361,290,c),
(361,281,l),
(361,233,l),
(410,229,o),
(459,229,o),
(508,229,c),
(550,249,o),
(599,289,o),
(627,319,c),
(652,358,o),
(665,407,o),
(665,465,cs),
(665,539,o),
(635,613,o),
(571,656,c),
(555,661,o),
(514,666,o),
(450,666,cs),
(342,666,o),
(153,664,o),
(30,660,c),
(26,647,o),
(25,635,o),
(25,622,c),
(79,602,l),
(86,513,o),
(87,393,o),
(87,290,cs),
(87,216,o),
(84,124,o),
(79,49,c),
(25,38,l),
(25,24,o),
(26,9,o),
(30,-5,c)
);
}
);
width = 679;
},
{
background = {
shapes = (
{
closed = 1;
nodes = (
(97,38,l),
(97,22,o),
(98,7,o),
(103,-9,c),
(186,-3,o),
(284,0,o),
(383,0,c),
(387,13,o),
(388,25,o),
(388,38,c),
(283,67,l),
(277,144,o),
(268,272,o),
(268,369,cs),
(268,517,o),
(271,583,o),
(271,583,c),
(271,583,o),
(355,597,o),
(438,597,cs),
(443,597,o),
(499,533,o),
(499,459,cs),
(499,405,o),
(487,353,o),
(487,353,c),
(447,327,o),
(380,313,o),
(324,313,c),
(314,305,l),
(312,269,l),
(312,269,o),
(370,262,o),
(433,262,c),
(496,302,o),
(555,358,o),
(555,358,c),
(555,358,o),
(590,416,o),
(590,476,cs),
(590,587,o),
(497,640,o),
(497,640,c),
(497,640,o),
(459,652,o),
(398,652,cs),
(319,652,o),
(210,640,o),
(101,640,c),
(97,625,o),
(95,611,o),
(95,596,c),
(178,574,l),
(178,574,o),
(189,527,o),
(189,356,cs),
(189,241,o),
(184,121,o),
(181,54,c)
);
}
);
};
hints = (
{
place = (153, 79);
place = (153, 79);
type = Stem;
},
{
place = (463, 91);
place = (463, 91);
type = Stem;
},
{
place = (153, 94);
place = (153, 94);
type = Stem;
},
{
horizontal = 1;
place = (262, 51);
place = (262, 51);
type = Stem;
},
{
horizontal = 1;
place = (597, 43);
place = (597, 43);
type = Stem;
},
{
horizontal = 1;
place = (597, 55);
place = (597, 55);
type = Stem;
},
{
horizontal = 1;
place = (-9, 21);
target = up;
type = BottomGhost;
},
{
horizontal = 1;
place = (0, 21);
target = up;
type = BottomGhost;
}
);
layerId = "897B5A99-9760-4657-AC3F-5CEB049E61B1";
shapes = (
{
closed = 1;
nodes = (
(120,-1,o),
(195,2,o),
(282,0,c),
(283,4,o),
(284,9,o),
(284,13,c),
(163,21,l),
(162,87,o),
(161,242,o),
(161,330,cs),
(161,430,o),
(163,550,o),
(166,620,c),
(202,623,o),
(249,627,o),
(291,627,cs),
(333,627,o),
(374,621,o),
(392,612,c),
(435,583,o),
(465,531,o),
(465,473,cs),
(465,430,o),
(446,392,o),
(426,360,c),
(398,332,o),
(377,318,o),
(355,311,cs),
(331,304,o),
(289,305,o),
(251,307,c),
(242,300,l),
(242,292,l),
(247,292,o),
(340,289,o),
(353,289,c),
(387,300,o),
(419,327,o),
(444,352,c),
(474,404,o),
(486,438,o),
(486,473,cs),
(486,539,o),
(455,594,o),
(409,626,c),
(387,639,o),
(339,646,o),
(295,646,cs),
(220,646,o),
(120,640,o),
(48,640,c),
(47,636,o),
(46,631,o),
(46,627,c),
(143,619,l),
(145,533,o),
(143,409,o),
(143,330,cs),
(143,244,o),
(142,124,o),
(142,20,c),
(35,9,l),
(35,3,o),
(36,-2,o),
(37,-6,c)
);
}
);
width = 523;
}
);
metricLeft = H;
unicode = 80;
},
{
color = 4;
glyphname = Thorn;
kernLeft = H;
kernRight = Thorn;
lastChange = "2022-12-16 16:04:31 +0000";
layers = (
{
background = {
shapes = (
{
closed = 1;
nodes = (
(152,483,o),
(152,381,o),
(152,280,cs),
(152,206,o),
(150,131,o),
(144,57,c),
(58,38,l),
(58,19,o),
(64,-9,o),
(64,-9,c),
(64,-9,o),
(190,0,o),
(319,0,cs),
(319,0,o),
(324,15,o),
(324,38,c),
(241,70,l),
(235,158,o),
(235,257,o),
(235,358,cs),
(235,433,l),
(242,435,o),
(316,446,o),
(392,446,cs),
(397,446,o),
(450,390,o),
(450,326,cs),
(450,280,o),
(439,234,o),
(439,234,c),
(401,210,o),
(339,196,o),
(276,196,cs),
(276,196,o),
(273,180,o),
(273,155,cs),
(273,155,o),
(328,148,o),
(387,148,c),
(447,186,o),
(503,239,o),
(503,239,c),
(503,239,o),
(537,290,o),
(537,343,cs),
(537,441,o),
(448,488,o),
(448,488,c),
(448,488,o),
(412,498,o),
(354,498,cs),
(308,498,o),
(270,493,o),
(237,490,c),
(239,521,o),
(240,552,o),
(243,582,c),
(324,602,l),
(324,621,o),
(318,649,o),
(318,649,c),
(318,649,o),
(208,640,o),
(63,640,cs),
(63,640,o),
(58,625,o),
(58,602,c),
(146,571,l)
);
}
);
};
hints = (
{
place = (146, 83);
place = (146, 83);
type = Stem;
},
{
place = (444, 87);
place = (444, 87);
type = Stem;
},
{
horizontal = 1;
place = (0, 196);
place = (0, 196);
type = Stem;
},
{
horizontal = 1;
place = (148, 48);
place = (148, 48);
type = Stem;
},
{
horizontal = 1;
place = (446, 52);
place = (446, 52);
type = Stem;
},
{
horizontal = 1;
place = (446, 194);
place = (446, 194);
type = Stem;
},
{
horizontal = 1;
place = (-9, 21);
target = up;
type = BottomGhost;
},
{
horizontal = 1;
place = (649, -20);
target = down;
type = TopGhost;
}
);
layerId = UUID0;
shapes = (
{
closed = 1;
nodes = (
(149,-3,o),
(234,0,o),
(319,0,c),
(323,13,o),
(324,25,o),
(324,38,c),
(241,70,l),
(236,142,o),
(235,208,o),
(235,433,c),
(240,434,o),
(274,440,o),
(318,443,cs),
(341,445,o),
(366,446,o),
(392,446,c),
(422,422,o),
(450,370,o),
(450,326,cs),
(450,295,o),
(446,265,o),
(439,234,c),
(420,222,o),
(395,213,o),
(367,206,cs),
(341,200,o),
(312,197,o),
(283,196,c),
(275,189,l),
(274,182,o),
(273,169,o),
(273,155,c),
(311,150,o),
(349,148,o),
(387,148,c),
(427,174,o),
(467,205,o),
(503,239,c),
(524,274,o),
(537,308,o),
(537,343,cs),
(537,398,o),
(507,453,o),
(448,488,c),
(448,488,o),
(412,498,o),
(354,498,cs),
(308,498,o),
(270,493,o),
(237,490,c),
(239,521,o),
(240,552,o),
(243,582,c),
(324,602,l),
(324,618,o),
(322,633,o),
(318,649,c),
(233,643,o),
(148,641,o),
(63,640,c),
(59,627,o),
(58,615,o),
(58,602,c),
(146,571,l),
(152,483,o),
(152,381,o),
(152,280,cs),
(152,206,o),
(150,131,o),
(144,57,c),
(58,38,l),
(58,22,o),
(60,7,o),
(64,-9,c)
);
}
);
width = 573;
},
{
layerId = "013925A1-B736-4B8B-AD25-E95AD017ACB4";
shapes = (
{
closed = 1;
nodes = (
(140,-1,o),
(250,0,o),
(359,0,c),
(363,13,o),
(364,25,o),
(364,38,c),
(318,57,l),
(313,148,o),
(312,339,o),
(316,472,c),
(321,474,o),
(334,477,o),
(351,480,cs),
(364,482,o),
(378,484,o),
(392,485,c),
(418,443,o),
(427,382,o),
(427,319,cs),
(427,285,o),
(424,253,o),
(420,228,c),
(408,223,o),
(397,218,o),
(385,213,cs),
(376,209,o),
(364,204,o),
(359,202,c),
(350,192,l),
(350,173,o),
(350,160,o),
(350,141,c),
(399,137,o),
(448,137,o),
(497,137,c),
(539,157,o),
(590,197,o),
(618,227,c),
(643,266,o),
(656,315,o),
(656,363,cs),
(656,437,o),
(626,501,o),
(562,544,c),
(546,549,o),
(505,554,o),
(439,554,cs),
(404,554,o),
(362,554,o),
(317,553,c),
(318,573,o),
(319,593,o),
(320,613,c),
(364,622,l),
(364,636,o),
(362,651,o),
(358,665,c),
(249,661,o),
(140,660,o),
(31,660,c),
(27,647,o),
(26,635,o),
(26,622,c),
(80,602,l),
(87,513,o),
(87,393,o),
(87,290,cs),
(87,216,o),
(84,124,o),
(79,49,c),
(25,38,l),
(25,24,o),
(27,9,o),
(31,-5,c)
);
}
);
width = 670;
},
{
background = {
shapes = (
{
closed = 1;
nodes = (
(165,477,l),
(165,554,o),
(166,595,o),
(168,619,c),
(284,632,l),
(284,638,o),
(283,644,o),
(282,646,c),
(199,641,o),
(124,638,o),
(37,640,c),
(36,636,o),
(35,631,o),
(35,627,c),
(144,619,l),
(144,598,o),
(144,552,o),
(144,477,c)
);
},
{
closed = 1;
nodes = (
(121,-1,o),
(196,2,o),
(283,0,c),
(284,4,o),
(285,9,o),
(285,13,c),
(164,21,l),
(163,43,o),
(162,103,o),
(162,196,c),
(162,285,o),
(164,393,o),
(165,463,c),
(204,466,o),
(252,469,o),
(295,469,c),
(339,469,o),
(381,463,o),
(399,454,c),
(442,425,o),
(466,382,o),
(466,333,c),
(466,298,o),
(447,266,o),
(427,240,c),
(399,216,o),
(378,205,o),
(356,199,c),
(332,192,o),
(290,193,o),
(252,195,c),
(243,188,l),
(243,180,l),
(248,180,o),
(341,177,o),
(354,177,c),
(388,186,o),
(420,209,o),
(445,230,c),
(475,275,o),
(487,303,o),
(487,333,c),
(487,389,o),
(462,436,o),
(416,468,c),
(394,481,o),
(345,488,o),
(300,488,c),
(253,488,o),
(199,486,o),
(144,484,c),
(146,375,o),
(144,265,o),
(144,195,c),
(144,104,o),
(143,76,o),
(143,20,c),
(36,9,l),
(36,3,o),
(37,-2,o),
(38,-6,c)
);
}
);
};
hints = (
{
place = (146, 83);
place = (146, 83);
type = Stem;
},
{
place = (444, 87);
place = (444, 87);
type = Stem;
},
{
horizontal = 1;
place = (0, 196);
place = (0, 196);
type = Stem;
},
{
horizontal = 1;
place = (148, 48);
place = (148, 48);
type = Stem;
},
{
horizontal = 1;
place = (446, 52);
place = (446, 52);
type = Stem;
},
{
horizontal = 1;
place = (446, 194);
place = (446, 194);
type = Stem;
},
{
horizontal = 1;
place = (-9, 21);
target = up;
type = BottomGhost;
},
{
horizontal = 1;
place = (649, -20);
target = down;
type = TopGhost;
}
);
layerId = "897B5A99-9760-4657-AC3F-5CEB049E61B1";
shapes = (
{
closed = 1;
nodes = (
(121,-1,o),
(196,2,o),
(283,0,c),
(284,4,o),
(285,9,o),
(285,13,c),
(164,21,l),
(161,82,o),
(164,402,o),
(165,463,c),
(204,466,o),
(252,469,o),
(295,469,cs),
(339,469,o),
(381,463,o),
(399,454,c),
(442,425,o),
(466,382,o),
(466,333,cs),
(466,298,o),
(447,266,o),
(427,240,c),
(399,216,o),
(378,205,o),
(356,199,cs),
(332,192,o),
(290,193,o),
(252,195,c),
(243,188,l),
(243,185,o),
(243,183,o),
(243,180,c),
(248,180,o),
(341,177,o),
(354,177,c),
(388,186,o),
(420,209,o),
(445,230,c),
(475,275,o),
(487,303,o),
(487,333,cs),
(487,389,o),
(462,436,o),
(416,468,c),
(394,481,o),
(345,488,o),
(300,488,cs),
(259,488,o),
(213,486,o),
(165,485,c),
(165,557,o),
(166,596,o),
(168,619,c),
(284,632,l),
(284,638,o),
(283,644,o),
(282,646,c),
(199,641,o),
(124,638,o),
(37,640,c),
(36,636,o),
(35,631,o),
(35,627,c),
(144,619,l),
(145,533,o),
(144,435,o),
(144,333,cs),
(144,217,o),
(143,76,o),
(143,20,c),
(36,9,l),
(36,3,o),
(37,-2,o),
(38,-6,c)
);
}
);
width = 524;
}
);
metricLeft = P;
metricRight = P;
unicode = 222;
},
{
color = 4;
glyphname = Q;
kernLeft = O;
kernRight = O;
lastChange = "2022-12-16 16:04:31 +0000";
layers = (
{
background = {
shapes = (
{
closed = 1;
nodes = (
(508,-151,o),
(556,-147,o),
(616,-139,c),
(625,-98,l),
(584,-89,o),
(539,-79,o),
(496,-66,cs),
(443,-50,o),
(392,-30,o),
(347,-4,c),
(411,13,o),
(470,53,o),
(517,104,cs),
(577,170,o),
(615,256,o),
(615,341,cs),
(615,485,o),
(494,652,o),
(343,652,c),
(261,642,o),
(185,595,o),
(129,530,cs),
(71,464,o),
(35,380,o),
(35,297,cs),
(35,164,o),
(137,14,o),
(271,-9,c),
(355,-74,o),
(394,-108,o),
(465,-151,c)
);
},
{
closed = 1;
nodes = (
(197,109,o),
(133,205,o),
(133,326,cs),
(133,429,o),
(170,512,o),
(215,557,c),
(244,568,o),
(297,574,o),
(346,574,c),
(455,527,o),
(517,431,o),
(517,312,cs),
(517,209,o),
(480,128,o),
(435,83,c),
(406,72,o),
(359,63,o),
(310,63,c)
);
}
);
};
hints = (
{
place = (35, 98);
place = (35, 98);
type = Stem;
},
{
place = (517, 98);
place = (517, 98);
type = Stem;
},
{
horizontal = 1;
place = (-151, 21);
target = up;
type = BottomGhost;
},
{
horizontal = 1;
place = (652, -20);
target = down;
type = TopGhost;
}
);
layerId = UUID0;
shapes = (
{
closed = 1;
nodes = (
(508,-151,o),
(556,-147,o),
(616,-139,c),
(625,-98,l),
(584,-89,o),
(539,-79,o),
(496,-66,cs),
(443,-50,o),
(392,-30,o),
(354,-4,c),
(411,13,o),
(470,53,o),
(517,104,cs),
(577,170,o),
(615,256,o),
(615,341,cs),
(615,485,o),
(494,652,o),
(343,652,c),
(261,642,o),
(185,595,o),
(129,530,cs),
(71,464,o),
(35,380,o),
(35,297,cs),
(35,164,o),
(137,14,o),
(278,-9,c),
(355,-74,o),
(394,-108,o),
(465,-151,c)
);
},
{
closed = 1;
nodes = (
(197,109,o),
(133,205,o),
(133,326,cs),
(133,429,o),
(170,512,o),
(215,557,c),
(244,568,o),
(297,574,o),
(346,574,c),
(455,527,o),
(517,431,o),
(517,312,cs),
(517,209,o),
(480,128,o),
(435,83,c),
(406,72,o),
(359,63,o),
(310,63,c)
);
}
);
width = 652;
},
{
background = {
shapes = (
{
closed = 1;
nodes = (
(272,27,l),
(368,-54,o),
(467,-136,o),
(555,-171,c),
(619,-169,o),
(683,-158,o),
(747,-135,c),
(758,-63,l),
(644,-46,o),
(511,-24,o),
(368,35,c)
);
},
{
closed = 1;
nodes = (
(420,-12,o),
(554,19,o),
(627,70,c),
(681,165,o),
(697,298,o),
(697,384,cs),
(697,569,o),
(599,671,o),
(437,671,cs),
(327,671,o),
(184,634,o),
(94,584,c),
(53,508,o),
(34,433,o),
(34,320,cs),
(34,109,o),
(112,-12,o),
(306,-12,cs)
);
},
{
closed = 1;
nodes = (
(312,101,o),
(284,191,o),
(284,336,cs),
(284,446,o),
(299,533,o),
(315,582,c),
(328,588,o),
(361,590,o),
(376,590,c),
(419,558,o),
(446,467,o),
(446,322,cs),
(446,213,o),
(432,124,o),
(416,74,c),
(412,71,o),
(371,67,o),
(358,67,c)
);
}
);
};
layerId = "013925A1-B736-4B8B-AD25-E95AD017ACB4";
shapes = (
{
closed = 1;
nodes = (
(619,-169,o),
(683,-158,o),
(747,-135,c),
(758,-63,l),
(710,-56,o),
(659,-48,o),
(605,-37,cs),
(557,-27,o),
(506,-14,o),
(454,3,c),
(521,17,o),
(585,40,o),
(627,70,c),
(681,165,o),
(697,298,o),
(697,384,cs),
(697,569,o),
(599,671,o),
(437,671,cs),
(327,671,o),
(184,634,o),
(94,584,c),
(53,508,o),
(34,433,o),
(34,320,cs),
(34,89,o),
(123,-12,o),
(318,-12,c),
(399,-79,o),
(481,-142,o),
(555,-171,c)
);
},
{
closed = 1;
nodes = (
(312,101,o),
(284,191,o),
(284,336,cs),
(284,446,o),
(299,533,o),
(315,582,c),
(328,588,o),
(361,590,o),
(376,590,c),
(419,558,o),
(446,467,o),
(446,322,cs),
(446,213,o),
(432,124,o),
(416,74,c),
(412,71,o),
(371,67,o),
(358,67,c)
);
}
);
width = 728;
},
{
background = {
shapes = (
{
closed = 1;
nodes = (
(355,-74,o),
(486,-128,o),
(547,-145,c),
(566,-145,o),
(597,-142,o),
(616,-139,c),
(619,-121,l),
(607,-122,o),
(552,-125,o),
(527,-118,cs),
(504,-112,o),
(376,-63,o),
(327,-6,c),
(304,-8,l)
);
},
{
closed = 1;
nodes = (
(376,-10,o),
(472,31,o),
(517,72,c),
(566,145,o),
(598,259,o),
(598,351,cs),
(598,542,o),
(470,654,o),
(316,651,c),
(275,649,o),
(179,608,o),
(138,569,c),
(84,496,o),
(53,381,o),
(53,289,cs),
(53,98,o),
(181,-14,o),
(335,-11,c)
);
},
{
closed = 1;
nodes = (
(164,11,o),
(74,127,o),
(74,294,cs),
(74,380,o),
(103,488,o),
(154,559,c),
(210,598,o),
(268,628,o),
(319,632,c),
(469,628,o),
(576,527,o),
(576,350,cs),
(576,261,o),
(548,148,o),
(503,86,c),
(447,43,o),
(382,11,o),
(332,8,c)
);
},
{
closed = 1;
nodes = (
(371,-75,o),
(500,-128,o),
(560,-145,c),
(579,-145,o),
(610,-142,o),
(629,-139,c),
(632,-123,l),
(620,-124,o),
(565,-127,o),
(540,-120,cs),
(518,-114,o),
(394,-66,o),
(340,-8,c),
(317,-8,l)
);
},
{
closed = 1;
nodes = (
(568,167,o),
(596,230,o),
(596,348,cs),
(597,509,o),
(471,651,o),
(322,651,c),
(268,651,o),
(175,593,o),
(134,552,c),
(83,476,o),
(54,413,o),
(54,297,cs),
(53,161,o),
(150,-11,o),
(333,-11,c),
(381,-11,o),
(477,47,o),
(522,92,c)
);
},
{
closed = 1;
nodes = (
(174,7,o),
(72,152,o),
(73,301,cs),
(73,413,o),
(105,481,o),
(150,543,c),
(199,583,o),
(263,627,o),
(320,633,c),
(459,633,o),
(578,500,o),
(577,346,cs),
(577,243,o),
(547,166,o),
(505,102,c),
(465,62,o),
(381,13,o),
(336,8,c)
);
}
);
};
hints = (
{
place = (35, 98);
place = (35, 98);
type = Stem;
},
{
place = (517, 98);
place = (517, 98);
type = Stem;
},
{
horizontal = 1;
place = (-151, 21);
target = up;
type = BottomGhost;
},
{
horizontal = 1;
place = (652, -20);
target = down;
type = TopGhost;
},
{
place = (35, 98);
place = (35, 98);
type = Stem;
},
{
place = (517, 98);
place = (517, 98);
type = Stem;
},
{
horizontal = 1;
place = (574, 78);
place = (574, 78);
type = Stem;
},
{
horizontal = 1;
place = (-12, 21);
target = up;
type = BottomGhost;
},
{
place = (55, 80);
place = (55, 80);
type = Stem;
},
{
place = (367, 82);
place = (367, 82);
type = Stem;
},
{
horizontal = 1;
place = (-12, 21);
target = up;
type = BottomGhost;
},
{
horizontal = 1;
place = (462, -20);
target = down;
type = TopGhost;
},
{
place = (42, 84);
place = (42, 84);
type = Stem;
},
{
horizontal = 1;
place = (-12, 69);
place = (-12, 69);
type = Stem;
},
{
horizontal = 1;
place = (205, 41);
place = (205, 41);
type = Stem;
},
{
horizontal = 1;
place = (462, -20);
target = down;
type = TopGhost;
}
);
layerId = "897B5A99-9760-4657-AC3F-5CEB049E61B1";
shapes = (
{
closed = 1;
nodes = (
(579,-145,o),
(610,-142,o),
(629,-139,c),
(632,-123,l),
(620,-124,o),
(565,-127,o),
(540,-120,cs),
(518,-114,o),
(397,-67,o),
(342,-10,c),
(392,-4,o),
(480,50,o),
(522,92,c),
(568,167,o),
(596,230,o),
(596,348,cs),
(597,509,o),
(471,651,o),
(322,651,cs),
(268,651,o),
(175,593,o),
(134,552,c),
(83,476,o),
(54,413,o),
(54,297,cs),
(53,164,o),
(145,-2,o),
(319,-11,c),
(374,-76,o),
(501,-128,o),
(560,-145,c)
);
},
{
closed = 1;
nodes = (
(174,7,o),
(72,152,o),
(73,301,cs),
(73,413,o),
(105,481,o),
(150,543,c),
(199,583,o),
(263,627,o),
(320,633,c),
(459,633,o),
(578,500,o),
(577,346,cs),
(577,243,o),
(547,166,o),
(505,102,c),
(465,62,o),
(381,13,o),
(336,8,c)
);
}
);
width = 652;
}
);
metricLeft = O;
unicode = 81;
},
{
color = 4;
glyphname = R;
kernLeft = H;
kernRight = R;
lastChange = "2022-12-16 16:04:31 +0000";
layers = (
{
anchors = (
{
name = bottom;
pos = (378,0);
},
{
name = top;
pos = (319,640);
}
);
background = {
shapes = (
{
closed = 1;
nodes = (
(62,633,o),
(58,619,o),
(58,596,c),
(141,574,l),
(141,574,o),
(152,527,o),
(152,356,cs),
(152,244,o),
(147,127,o),
(143,59,c),
(60,38,l),
(60,19,o),
(66,-9,o),
(66,-9,c),
(66,-9,o),
(197,0,o),
(326,0,cs),
(326,0,o),
(331,15,o),
(331,38,c),
(247,71,l),
(242,124,o),
(237,198,o),
(233,271,c),
(298,270,o),
(329,260,o),
(329,260,c),
(461,66,o),
(481,-3,o),
(496,-12,c),
(564,-12,o),
(639,3,o),
(649,5,c),
(649,5,o),
(658,22,o),
(658,44,c),
(558,67,l),
(526,112,o),
(495,160,o),
(469,202,cs),
(448,236,o),
(431,266,o),
(419,287,c),
(473,325,o),
(505,355,o),
(518,368,c),
(529,386,o),
(553,430,o),
(553,481,cs),
(553,577,o),
(483,628,o),
(460,640,c),
(447,644,o),
(412,652,o),
(361,652,cs),
(282,652,o),
(173,640,o),
(64,640,c)
);
},
{
closed = 1;
nodes = (
(231,369,l),
(231,517,o),
(234,583,o),
(234,583,c),
(234,583,o),
(318,597,o),
(401,597,cs),
(406,597,o),
(462,538,o),
(462,464,cs),
(462,410,o),
(450,363,o),
(450,363,c),
(419,340,o),
(378,326,o),
(378,326,c),
(231,326,l)
);
}
);
};
hints = (
{
place = (153, 79);
place = (153, 79);
type = Stem;
},
{
place = (463, 91);
place = (463, 91);
type = Stem;
},
{
horizontal = 1;
place = (271, 55);
place = (271, 55);
type = Stem;
},
{
horizontal = 1;
place = (597, 43);
place = (597, 43);
type = Stem;
},
{
horizontal = 1;
place = (597, 55);
place = (597, 55);
type = Stem;
},
{
horizontal = 1;
place = (0, 21);
target = up;
type = BottomGhost;
},
{
horizontal = 1;
place = (-12, 21);
target = up;
type = BottomGhost;
}
);
layerId = UUID0;
shapes = (
{
closed = 1;
nodes = (
(564,-12,o),
(639,3,o),
(649,5,c),
(655,18,o),
(658,31,o),
(658,44,c),
(558,67,l),
(506,140,o),
(463,210,o),
(419,287,c),
(473,325,o),
(505,355,o),
(518,368,c),
(529,386,o),
(553,430,o),
(553,481,cs),
(553,577,o),
(483,628,o),
(460,640,c),
(447,644,o),
(412,652,o),
(361,652,cs),
(282,652,o),
(173,640,o),
(64,640,c),
(60,625,o),
(58,611,o),
(58,596,c),
(141,574,l),
(141,574,o),
(152,527,o),
(152,356,cs),
(152,244,o),
(147,127,o),
(143,59,c),
(60,38,l),
(60,22,o),
(63,7,o),
(66,-9,c),
(153,-4,o),
(239,-1,o),
(326,0,c),
(329,13,o),
(331,25,o),
(331,38,c),
(247,71,l),
(242,124,o),
(237,198,o),
(233,271,c),
(265,271,o),
(297,267,o),
(329,260,c),
(461,66,o),
(481,-3,o),
(496,-12,c)
);
},
{
closed = 1;
nodes = (
(231,420,o),
(232,544,o),
(234,583,c),
(234,583,o),
(276,590,o),
(329,594,cs),
(352,596,o),
(376,597,o),
(401,597,cs),
(406,597,o),
(462,538,o),
(462,464,cs),
(462,410,o),
(450,363,o),
(450,363,c),
(427,348,o),
(403,335,o),
(378,326,c),
(329,326,o),
(280,326,o),
(231,326,c)
);
}
);
width = 659;
},
{
anchors = (
{
name = bottom;
pos = (401,0);
},
{
name = top;
pos = (347,660);
}
);
layerId = "013925A1-B736-4B8B-AD25-E95AD017ACB4";
shapes = (
{
closed = 1;
nodes = (
(614,-12,o),
(697,-6,o),
(727,0,c),
(729,13,o),
(729,27,o),
(727,40,c),
(683,53,l),
(630,120,o),
(575,243,o),
(544,296,c),
(569,314,o),
(594,331,o),
(619,349,c),
(643,388,o),
(656,441,o),
(656,484,cs),
(656,550,o),
(627,613,o),
(563,656,c),
(547,661,o),
(506,666,o),
(440,666,cs),
(332,666,o),
(153,664,o),
(30,660,c),
(26,647,o),
(25,635,o),
(25,622,c),
(79,602,l),
(86,513,o),
(87,393,o),
(87,290,cs),
(87,216,o),
(84,124,o),
(79,49,c),
(25,38,l),
(25,24,o),
(26,9,o),
(30,-5,c),
(143,-3,o),
(256,-2,o),
(369,0,c),
(372,13,o),
(374,25,o),
(374,38,c),
(318,57,l),
(314,122,o),
(313,183,o),
(313,252,c),
(338,251,o),
(362,250,o),
(387,240,c),
(422,119,o),
(451,19,o),
(465,-12,c)
);
},
{
closed = 1;
nodes = (
(313,429,o),
(315,530,o),
(319,591,c),
(323,593,o),
(348,598,o),
(354,599,cs),
(370,602,o),
(380,603,o),
(396,604,c),
(416,570,o),
(428,504,o),
(428,447,cs),
(428,394,o),
(418,343,o),
(391,316,c),
(381,316,o),
(370,316,o),
(360,316,c),
(344,316,o),
(329,316,o),
(313,316,c)
);
}
);
width = 728;
},
{
anchors = (
{
name = bottom;
pos = (355,0);
},
{
name = top;
pos = (296,640);
}
);
background = {
shapes = (
{
closed = 1;
nodes = (
(311,294,l),
(358,228,o),
(464,75,o),
(519,-7,c),
(552,-6,o),
(601,-3,o),
(629,0,c),
(630,4,o),
(631,9,o),
(631,14,c),
(532,14,l),
(488,72,o),
(368,240,o),
(328,304,c)
);
},
{
closed = 1;
nodes = (
(120,-1,o),
(195,2,o),
(282,0,c),
(283,4,o),
(284,9,o),
(284,13,c),
(163,21,l),
(162,87,o),
(161,242,o),
(161,330,c),
(161,430,o),
(163,550,o),
(166,620,c),
(202,623,o),
(249,627,o),
(291,627,c),
(333,627,o),
(374,621,o),
(392,612,c),
(435,583,o),
(465,532,o),
(465,475,c),
(465,432,o),
(446,395,o),
(426,363,c),
(398,336,o),
(359,318,o),
(327,312,c),
(298,309,o),
(289,310,o),
(197,312,cs),
(153,313,l),
(153,294,l),
(158,294,o),
(284,293,o),
(329,290,c),
(365,302,o),
(412,323,o),
(444,355,c),
(474,407,o),
(486,440,o),
(486,475,c),
(486,540,o),
(455,594,o),
(409,626,c),
(387,639,o),
(339,646,o),
(295,646,c),
(220,646,o),
(120,640,o),
(48,640,c),
(47,636,o),
(46,631,o),
(46,627,c),
(143,619,l),
(145,533,o),
(143,409,o),
(143,330,c),
(143,244,o),
(142,124,o),
(142,20,c),
(35,9,l),
(35,3,o),
(36,-2,o),
(37,-6,c)
);
}
);
};
hints = (
{
place = (153, 79);
place = (153, 79);
type = Stem;
},
{
place = (463, 91);
place = (463, 91);
type = Stem;
},
{
horizontal = 1;
place = (271, 55);
place = (271, 55);
type = Stem;
},
{
horizontal = 1;
place = (597, 43);
place = (597, 43);
type = Stem;
},
{
horizontal = 1;
place = (597, 55);
place = (597, 55);
type = Stem;
},
{
horizontal = 1;
place = (0, 21);
target = up;
type = BottomGhost;
},
{
horizontal = 1;
place = (-12, 21);
target = up;
type = BottomGhost;
},
{
place = (153, 79);
place = (153, 79);
type = Stem;
},
{
place = (463, 91);
place = (463, 91);
type = Stem;
},
{
place = (153, 94);
place = (153, 94);
type = Stem;
},
{
horizontal = 1;
place = (262, 51);
place = (262, 51);
type = Stem;
},
{
horizontal = 1;
place = (597, 43);
place = (597, 43);
type = Stem;
},
{
horizontal = 1;
place = (597, 55);
place = (597, 55);
type = Stem;
},
{
horizontal = 1;
place = (-9, 21);
target = up;
type = BottomGhost;
},
{
horizontal = 1;
place = (0, 21);
target = up;
type = BottomGhost;
}
);
layerId = "897B5A99-9760-4657-AC3F-5CEB049E61B1";
shapes = (
{
closed = 1;
nodes = (
(552,-6,o),
(601,-3,o),
(629,0,c),
(630,4,o),
(631,9,o),
(631,14,c),
(532,14,l),
(490,69,o),
(381,221,o),
(335,292,c),
(371,305,o),
(414,325,o),
(444,355,c),
(474,407,o),
(486,440,o),
(486,475,cs),
(486,540,o),
(455,594,o),
(409,626,c),
(387,639,o),
(339,646,o),
(295,646,cs),
(220,646,o),
(120,640,o),
(48,640,c),
(47,636,o),
(46,631,o),
(46,627,c),
(143,619,l),
(145,533,o),
(143,409,o),
(143,330,cs),
(143,244,o),
(142,124,o),
(142,20,c),
(35,9,l),
(35,3,o),
(36,-2,o),
(37,-6,c),
(120,-1,o),
(195,2,o),
(282,0,c),
(283,4,o),
(284,9,o),
(284,13,c),
(163,21,l),
(162,79,o),
(161,204,o),
(161,294,c),
(187,294,o),
(268,293,o),
(313,291,c),
(361,223,o),
(465,74,o),
(519,-7,c)
);
},
{
closed = 1;
nodes = (
(161,430,o),
(163,550,o),
(166,620,c),
(202,623,o),
(249,627,o),
(291,627,cs),
(333,627,o),
(374,621,o),
(392,612,c),
(435,583,o),
(465,532,o),
(465,475,cs),
(465,432,o),
(446,395,o),
(426,363,c),
(398,336,o),
(359,318,o),
(327,312,cs),
(298,309,o),
(289,310,o),
(161,313,c)
);
}
);
width = 636;
}
);
metricLeft = H;
unicode = 82;
},
{
color = 4;
glyphname = S;
kernLeft = S;
kernRight = S;
lastChange = "2022-12-17 01:37:48 +0000";
layers = (
{
anchors = (
{
name = bottom;
pos = (255,0);
},
{
name = top;
pos = (255,652);
}
);
background = {
shapes = (
{
closed = 1;
nodes = (
(201,-12,o),
(122,4,o),
(77,22,c),
(72,31,l),
(60,181,l),
(64,188,l),
(110,198,l),
(152,89,l),
(180,74,o),
(205,66,o),
(246,66,cs),
(287,66,o),
(330,70,o),
(358,79,c),
(366,91,o),
(386,149,o),
(386,191,c),
(331,236,o),
(247,264,o),
(178,302,cs),
(112,337,o),
(61,382,o),
(61,458,cs),
(61,492,o),
(71,525,o),
(100,558,cs),
(148,612,o),
(213,644,o),
(284,652,c),
(324,652,o),
(398,636,o),
(433,618,c),
(437,609,l),
(431,450,l),
(383,444,l),
(378,450,l),
(352,551,l),
(325,566,o),
(301,574,o),
(262,574,cs),
(221,574,o),
(181,568,o),
(157,557,c),
(153,539,o),
(149,516,o),
(149,497,cs),
(149,461,o),
(158,422,o),
(197,399,cs),
(315,329,o),
(477,298,o),
(477,193,c),
(467,121,o),
(392,9,o),
(244,-12,c)
);
}
);
};
hints = (
{
place = (61, 90);
place = (61, 90);
type = Stem;
},
{
horizontal = 1;
place = (-12, 21);
target = up;
type = BottomGhost;
},
{
horizontal = 1;
place = (652, -20);
target = down;
type = TopGhost;
}
);
layerId = UUID0;
shapes = (
{
closed = 1;
nodes = (
(305,-3,o),
(353,21,o),
(390,51,cs),
(443,94,o),
(471,151,o),
(477,193,c),
(477,298,o),
(315,329,o),
(197,399,cs),
(158,422,o),
(149,461,o),
(149,497,cs),
(149,516,o),
(153,539,o),
(157,557,c),
(181,568,o),
(221,574,o),
(262,574,cs),
(301,574,o),
(325,566,o),
(352,551,c),
(378,450,l),
(383,444,l),
(431,450,l),
(437,609,l),
(433,618,l),
(398,636,o),
(324,652,o),
(284,652,c),
(213,644,o),
(148,612,o),
(100,558,cs),
(71,525,o),
(61,492,o),
(61,458,cs),
(61,382,o),
(112,337,o),
(178,302,cs),
(247,264,o),
(331,236,o),
(386,191,c),
(386,149,o),
(366,91,o),
(358,79,c),
(330,70,o),
(287,66,o),
(246,66,cs),
(205,66,o),
(180,74,o),
(152,89,c),
(110,198,l),
(64,188,l),
(60,181,l),
(72,31,l),
(77,22,l),
(122,4,o),
(201,-12,o),
(244,-12,c)
);
}
);
width = 509;
},
{
anchors = (
{
name = bottom;
pos = (307,0);
},
{
name = top;
pos = (307,660);
}
);
layerId = "013925A1-B736-4B8B-AD25-E95AD017ACB4";
shapes = (
{
closed = 1;
nodes = (
(395,-12,o),
(458,24,o),
(499,72,cs),
(542,122,o),
(559,186,o),
(559,235,cs),
(559,293,o),
(471,351,o),
(383,397,cs),
(315,433,o),
(238,476,o),
(205,526,cs),
(194,542,o),
(188,559,o),
(188,577,c),
(223,577,o),
(255,575,o),
(285,568,cs),
(316,560,o),
(346,548,o),
(379,528,c),
(424,423,l),
(429,418,l),
(511,424,l),
(521,640,l),
(516,648,l),
(460,664,o),
(379,672,o),
(315,672,cs),
(260,672,o),
(179,656,o),
(135,630,c),
(91,598,o),
(34,486,o),
(34,415,cs),
(34,349,o),
(119,285,o),
(203,242,cs),
(264,211,o),
(340,168,o),
(375,123,cs),
(386,109,o),
(394,94,o),
(394,79,c),
(349,79,o),
(308,86,o),
(271,95,cs),
(235,104,o),
(203,116,o),
(174,127,c),
(138,234,l),
(53,226,l),
(49,217,l),
(49,18,l),
(54,8,l),
(85,-1,o),
(235,-12,o),
(301,-12,cs)
);
}
);
width = 584;
},
{
anchors = (
{
name = bottom;
pos = (255,0);
},
{
name = top;
pos = (255,652);
}
);
background = {
shapes = (
{
closed = 1;
nodes = (
(125,29,o),
(188,13,o),
(235,13,cs),
(288,13,o),
(358,36,o),
(394,76,cs),
(426,111,o),
(437,148,o),
(437,207,c),
(419,254,o),
(337,291,o),
(259,326,cs),
(115,387,o),
(82,396,o),
(83,470,cs),
(84,494,o),
(105,562,o),
(120,582,cs),
(133,599,o),
(216,640,o),
(239,644,c),
(266,649,o),
(370,647,o),
(432,627,c),
(435,621,l),
(429,471,l),
(419,470,l),
(414,474,l),
(411,611,l),
(377,625,o),
(302,629,o),
(254,629,c),
(234,629,o),
(148,584,o),
(133,567,c),
(121,551,o),
(102,491,o),
(102,469,cs),
(100,403,o),
(144,399,o),
(278,339,cs),
(433,270,o),
(459,236,o),
(459,199,cs),
(459,138,o),
(438,94,o),
(409,64,cs),
(369,21,o),
(301,-7,o),
(238,-7,c),
(188,-7,o),
(138,1,o),
(89,15,c),
(85,19,l),
(83,44,o),
(74,130,o),
(69,182,c),
(80,184,l),
(106,35,l)
);
}
);
};
hints = (
{
place = (61, 90);
place = (61, 90);
type = Stem;
},
{
horizontal = 1;
place = (-12, 21);
target = up;
type = BottomGhost;
},
{
horizontal = 1;
place = (652, -20);
target = down;
type = TopGhost;
}
);
layerId = "897B5A99-9760-4657-AC3F-5CEB049E61B1";
shapes = (
{
closed = 1;
nodes = (
(301,-7,o),
(369,21,o),
(409,64,cs),
(438,94,o),
(459,138,o),
(459,199,cs),
(459,236,o),
(433,270,o),
(278,339,cs),
(144,399,o),
(100,416,o),
(102,482,cs),
(102,504,o),
(115,543,o),
(133,567,c),
(148,584,o),
(234,629,o),
(254,629,c),
(302,629,o),
(377,625,o),
(411,611,c),
(414,474,l),
(419,470,l),
(429,471,l),
(435,621,l),
(432,627,l),
(370,647,o),
(266,649,o),
(239,644,c),
(216,640,o),
(133,599,o),
(120,582,cs),
(98,555,o),
(84,507,o),
(83,483,cs),
(82,409,o),
(115,387,o),
(259,326,cs),
(337,291,o),
(419,254,o),
(437,207,c),
(437,148,o),
(426,111,o),
(394,76,cs),
(358,36,o),
(288,13,o),
(235,13,cs),
(188,13,o),
(125,29,o),
(106,35,c),
(80,184,l),
(69,182,l),
(70,172,l),
(85,19,l),
(89,15,l),
(138,1,o),
(188,-7,o),
(238,-7,c)
);
}
);
width = 509;
}
);
unicode = 83;
},
{
color = 4;
glyphname = Saltillo;
lastChange = "2022-12-16 16:07:03 +0000";
layers = (
{
background = {
shapes = (
{
closed = 1;
nodes = (
(115,316,l),
(138,431,o),
(148,585,o),
(150,639,c),
(134,652,l),
(110,652,o),
(71,650,o),
(53,647,c),
(55,620,o),
(60,566,o),
(67,510,c),
(67,434,o),
(67,366,o),
(67,319,c),
(74,311,l)
);
}
);
};
layerId = UUID0;
shapes = (
{
closed = 1;
nodes = (
(115,316,l),
(138,431,o),
(148,585,o),
(150,639,c),
(134,652,l),
(110,652,o),
(71,650,o),
(53,647,c),
(58,601,o),
(62,556,o),
(67,510,c),
(67,319,l),
(74,311,l)
);
}
);
width = 243;
},
{
layerId = "013925A1-B736-4B8B-AD25-E95AD017ACB4";
shapes = (
{
closed = 1;
nodes = (
(135,304,l),
(158,419,o),
(185,605,o),
(187,659,c),
(171,672,l),
(150,672,o),
(71,670,o),
(53,667,c),
(58,621,o),
(62,576,o),
(67,530,c),
(67,307,l),
(74,299,l)
);
}
);
width = 280;
},
{
background = {
shapes = (
{
closed = 1;
nodes = (
(115,316,l),
(138,431,o),
(148,585,o),
(150,639,c),
(134,652,l),
(110,652,o),
(71,650,o),
(53,647,c),
(55,620,o),
(60,566,o),
(67,510,c),
(67,434,o),
(67,366,o),
(67,319,c),
(74,311,l)
);
}
);
};
layerId = "897B5A99-9760-4657-AC3F-5CEB049E61B1";
shapes = (
{
closed = 1;
nodes = (
(106,316,l),
(115,431,o),
(118,579,o),
(119,633,c),
(108,646,l),
(102,646,o),
(88,644,o),
(84,643,c),
(86,599,o),
(87,554,o),
(89,510,c),
(89,319,l),
(94,314,l)
);
}
);
width = 243;
}
);
unicode = 42891;
},
{
color = 4;
glyphname = T;
kernLeft = T;
kernRight = T;
lastChange = "2022-12-17 01:33:51 +0000";
layers = (
{
anchors = (
{
name = bottom;
pos = (292,0);
},
{
name = top;
pos = (305,640);
}
);
background = {
shapes = (
{
closed = 1;
nodes = (
(146,575,o),
(198,578,o),
(250,579,c),
(250,431,o),
(245,192,o),
(238,56,c),
(139,38,l),
(139,19,o),
(142,2,o),
(147,-9,c),
(243,-4,o),
(343,0,o),
(445,0,c),
(448,9,o),
(450,25,o),
(450,38,c),
(337,70,l),
(333,239,o),
(332,406,o),
(332,581,c),
(389,582,o),
(444,582,o),
(495,582,c),
(529,446,l),
(544,446,o),
(558,448,o),
(573,451,c),
(585,634,l),
(570,647,l),
(488,644,o),
(366,640,o),
(298,640,cs),
(12,640,l),
(1,455,l),
(16,451,o),
(30,448,o),
(45,447,c),
(93,571,l)
);
}
);
};
hints = (
{
place = (238, 94);
place = (238, 94);
type = Stem;
},
{
place = (250, 82);
place = (250, 82);
type = Stem;
},
{
horizontal = 1;
place = (571, 69);
place = (571, 69);
type = Stem;
},
{
horizontal = 1;
place = (-9, 21);
target = up;
type = BottomGhost;
},
{
horizontal = 1;
place = (0, 21);
target = up;
type = BottomGhost;
},
{
horizontal = 1;
place = (647, -20);
target = down;
type = TopGhost;
}
);
layerId = UUID0;
shapes = (
{
closed = 1;
nodes = (
(243,-4,o),
(343,0,o),
(445,0,c),
(448,9,o),
(450,25,o),
(450,38,c),
(337,70,l),
(335,150,o),
(334,230,o),
(333,310,cs),
(332,399,o),
(332,489,o),
(332,581,c),
(389,582,o),
(444,582,o),
(495,582,c),
(529,446,l),
(544,446,o),
(558,448,o),
(573,451,c),
(573,458,l),
(585,634,l),
(570,647,l),
(488,644,o),
(366,640,o),
(298,640,cs),
(203,640,o),
(107,640,o),
(12,640,c),
(12,636,l),
(1,458,l),
(1,455,l),
(16,451,o),
(30,448,o),
(45,447,c),
(93,571,l),
(146,575,o),
(198,578,o),
(250,579,c),
(250,505,o),
(249,408,o),
(247,313,cs),
(244,218,o),
(241,124,o),
(238,56,c),
(139,38,l),
(139,19,o),
(142,2,o),
(147,-9,c)
);
}
);
width = 586;
},
{
anchors = (
{
name = bottom;
pos = (339,0);
},
{
name = top;
pos = (351,660);
}
);
background = {
shapes = (
{
closed = 1;
nodes = (
(175,588,o),
(203,592,o),
(216,592,c),
(222,504,o),
(223,389,o),
(223,290,cs),
(223,216,o),
(220,139,o),
(215,64,c),
(131,43,l),
(133,27,o),
(134,11,o),
(136,-5,c),
(269,-3,o),
(402,-2,o),
(535,0,c),
(537,14,o),
(539,29,o),
(541,43,c),
(454,72,l),
(450,139,o),
(449,187,o),
(449,255,cs),
(449,333,ls),
(449,398,o),
(452,520,o),
(455,597,c),
(468,597,o),
(496,595,o),
(506,592,c),
(545,381,l),
(583,383,o),
(621,386,o),
(659,388,c),
(666,397,l),
(653,662,l),
(646,672,l),
(503,665,o),
(361,660,o),
(218,660,cs),
(145,660,o),
(68,663,o),
(25,665,c),
(18,655,l),
(5,397,l),
(12,388,l),
(50,390,o),
(88,393,o),
(126,395,c),
(165,585,l)
);
}
);
};
layerId = "013925A1-B736-4B8B-AD25-E95AD017ACB4";
shapes = (
{
closed = 1;
nodes = (
(269,-3,o),
(402,-2,o),
(535,0,c),
(539,14,o),
(541,29,o),
(541,43,c),
(454,72,l),
(450,139,o),
(449,187,o),
(449,255,cs),
(449,374,o),
(451,499,o),
(455,597,c),
(468,597,o),
(496,595,o),
(506,592,c),
(545,381,l),
(583,383,o),
(621,386,o),
(659,388,c),
(666,397,l),
(653,662,l),
(646,672,l),
(503,665,o),
(361,660,o),
(218,660,cs),
(145,660,o),
(68,663,o),
(25,665,c),
(18,655,l),
(5,397,l),
(12,388,l),
(50,390,o),
(88,393,o),
(126,395,c),
(165,585,l),
(175,588,o),
(203,592,o),
(216,592,c),
(222,504,o),
(223,389,o),
(223,290,cs),
(223,216,o),
(220,139,o),
(215,64,c),
(131,43,l),
(131,27,o),
(132,11,o),
(136,-5,c)
);
}
);
width = 671;
},
{
anchors = (
{
name = bottom;
pos = (292,0);
},
{
name = top;
pos = (305,640);
}
);
background = {
shapes = (
{
closed = 1;
nodes = (
(146,575,o),
(198,578,o),
(250,579,c),
(250,505,o),
(249,408,o),
(247,313,cs),
(244,218,o),
(241,124,o),
(238,56,c),
(139,38,l),
(139,19,o),
(142,2,o),
(147,-9,c),
(243,-4,o),
(343,0,o),
(445,0,c),
(448,9,o),
(450,25,o),
(450,38,c),
(337,70,l),
(335,150,o),
(334,230,o),
(333,310,cs),
(332,399,o),
(332,489,o),
(332,581,c),
(389,582,o),
(444,582,o),
(495,582,c),
(529,446,l),
(544,446,o),
(558,448,o),
(573,451,c),
(573,458,l),
(585,634,l),
(570,647,l),
(488,644,o),
(366,640,o),
(298,640,cs),
(203,640,o),
(107,640,o),
(12,640,c),
(12,636,l),
(1,458,l),
(1,455,l),
(16,451,o),
(30,448,o),
(45,447,c),
(93,571,l)
);
}
);
};
hints = (
{
place = (238, 94);
place = (238, 94);
type = Stem;
},
{
place = (250, 82);
place = (250, 82);
type = Stem;
},
{
horizontal = 1;
place = (571, 69);
place = (571, 69);
type = Stem;
},
{
horizontal = 1;
place = (-9, 21);
target = up;
type = BottomGhost;
},
{
horizontal = 1;
place = (0, 21);
target = up;
type = BottomGhost;
},
{
horizontal = 1;
place = (647, -20);
target = down;
type = TopGhost;
},
{
place = (285, 83);
place = (285, 83);
type = Stem;
},
{
horizontal = 1;
place = (-9, 21);
target = up;
type = BottomGhost;
},
{
horizontal = 1;
place = (0, 21);
target = up;
type = BottomGhost;
},
{
horizontal = 1;
place = (649, -20);
target = down;
type = TopGhost;
},
{
horizontal = 1;
place = (640, -20);
target = down;
type = TopGhost;
},
{
place = (286, 85);
place = (286, 85);
type = Stem;
},
{
place = (695, 86);
place = (695, 86);
type = Stem;
},
{
horizontal = 1;
place = (296, 63);
place = (296, 63);
type = Stem;
},
{
horizontal = 1;
place = (-9, 21);
target = up;
type = BottomGhost;
},
{
horizontal = 1;
place = (0, 21);
target = up;
type = BottomGhost;
},
{
horizontal = 1;
place = (649, -20);
target = down;
type = TopGhost;
},
{
horizontal = 1;
place = (640, -20);
target = down;
type = TopGhost;
}
);
layerId = "897B5A99-9760-4657-AC3F-5CEB049E61B1";
shapes = (
{
closed = 1;
nodes = (
(250,-1,o),
(331,2,o),
(418,0,c),
(419,4,o),
(420,9,o),
(420,13,c),
(299,21,l),
(298,89,o),
(297,242,o),
(298,330,cs),
(298,433,o),
(299,547,o),
(301,624,c),
(369,628,o),
(438,629,o),
(531,629,c),
(544,452,l),
(548,452,o),
(554,453,o),
(557,454,c),
(557,458,l),
(554,631,l),
(553,647,l),
(457,646,o),
(358,643,o),
(290,643,cs),
(223,643,o),
(124,646,o),
(28,647,c),
(27,631,l),
(24,458,l),
(24,454,l),
(27,453,o),
(33,452,o),
(37,452,c),
(50,629,l),
(143,629,o),
(212,628,o),
(278,624,c),
(281,533,o),
(278,409,o),
(279,330,cs),
(279,241,o),
(278,112,o),
(278,19,c),
(165,7,l),
(165,1,o),
(166,-4,o),
(167,-6,c)
);
}
);
width = 586;
}
);
unicode = 84;
userData = {
KernOnName = T;
};
},
{
color = 4;
glyphname = U;
kernLeft = U;
kernRight = U;
lastChange = "2022-12-16 16:04:31 +0000";
layers = (
{
anchors = (
{
name = bottom;
pos = (359,0);
},
{
name = ogonek;
pos = (530,10);
},
{
name = top;
pos = (359,652);
},
{
name = topright;
pos = (568,642);
}
);
background = {
shapes = (
{
closed = 1;
nodes = (
(269,57,o),
(221,110,o),
(201,215,cs),
(201,335,o),
(206,523,o),
(210,584,c),
(295,602,l),
(289,649,l),
(289,649,o),
(158,640,o),
(29,640,c),
(24,602,l),
(111,571,l),
(113,526,o),
(116,367,o),
(116,223,cs),
(116,34,o),
(275,-12,o),
(352,-12,cs),
(409,-12,o),
(456,1,o),
(456,1,c),
(513,26,o),
(554,55,o),
(586,84,c),
(604,128,o),
(610,178,o),
(610,248,cs),
(610,412,o),
(617,571,o),
(618,582,c),
(696,602,l),
(690,649,l),
(690,649,o),
(577,640,o),
(434,640,c),
(429,602,l),
(531,569,l),
(531,516,o),
(542,404,o),
(542,299,cs),
(542,223,o),
(537,150,o),
(516,103,c),
(480,76,o),
(421,57,o),
(369,57,c)
);
}
);
};
hints = (
{
place = (116, 85);
place = (116, 85);
type = Stem;
},
{
place = (542, 68);
place = (542, 68);
type = Stem;
},
{
horizontal = 1;
place = (-12, 69);
place = (-12, 69);
type = Stem;
},
{
horizontal = 1;
place = (649, -20);
target = down;
type = TopGhost;
},
{
horizontal = 1;
place = (640, -20);
target = down;
type = TopGhost;
}
);
layerId = UUID0;
shapes = (
{
closed = 1;
nodes = (
(387,-12,o),
(421,-7,o),
(456,1,c),
(513,26,o),
(554,55,o),
(586,84,c),
(604,128,o),
(610,178,o),
(610,248,cs),
(610,412,o),
(617,571,o),
(618,582,c),
(696,602,l),
(696,618,o),
(694,633,o),
(690,649,c),
(605,643,o),
(519,640,o),
(434,640,c),
(430,627,o),
(429,615,o),
(429,602,c),
(531,569,l),
(535,516,o),
(542,404,o),
(542,299,cs),
(542,223,o),
(537,150,o),
(516,103,c),
(480,76,o),
(421,57,o),
(369,57,c),
(269,57,o),
(221,110,o),
(201,215,c),
(201,335,o),
(206,523,o),
(210,584,c),
(295,602,l),
(295,618,o),
(293,633,o),
(289,649,c),
(202,643,o),
(116,640,o),
(29,640,c),
(25,627,o),
(24,615,o),
(24,602,c),
(111,571,l),
(113,526,o),
(116,367,o),
(116,223,cs),
(116,34,o),
(275,-12,o),
(352,-12,cs)
);
}
);
width = 718;
},
{
anchors = (
{
name = bottom;
pos = (383,0);
},
{
name = ogonek;
pos = (567,22);
},
{
name = top;
pos = (393,660);
},
{
name = topright;
pos = (535,660);
}
);
layerId = "013925A1-B736-4B8B-AD25-E95AD017ACB4";
shapes = (
{
closed = 1;
nodes = (
(394,-12,o),
(438,-6,o),
(469,2,c),
(522,27,o),
(575,69,o),
(602,114,c),
(600,169,o),
(600,223,o),
(600,278,cs),
(600,408,o),
(612,538,o),
(627,610,c),
(684,622,l),
(684,636,o),
(682,651,o),
(678,665,c),
(604,663,o),
(530,662,o),
(456,660,c),
(452,647,o),
(451,635,o),
(451,622,c),
(507,604,l),
(511,553,o),
(513,432,o),
(512,323,cs),
(511,232,o),
(507,149,o),
(499,124,c),
(486,115,o),
(447,100,o),
(403,100,cs),
(357,100,o),
(323,130,o),
(323,204,cs),
(323,317,o),
(325,521,o),
(328,613,c),
(371,622,l),
(371,636,o),
(369,651,o),
(365,665,c),
(253,663,o),
(142,662,o),
(30,660,c),
(26,647,o),
(25,635,o),
(25,622,c),
(79,602,l),
(91,527,o),
(97,333,o),
(97,201,cs),
(97,20,o),
(235,-12,o),
(365,-12,cs)
);
}
);
width = 699;
},
{
anchors = (
{
name = bottom;
pos = (359,0);
},
{
name = ogonek;
pos = (520,10);
},
{
name = top;
pos = (359,652);
},
{
name = topright;
pos = (568,642);
}
);
background = {
shapes = (
{
closed = 1;
nodes = (
(295,602,l),
(295,618,o),
(293,633,o),
(289,649,c),
(202,643,o),
(116,640,o),
(29,640,c),
(25,627,o),
(24,615,o),
(24,602,c),
(111,571,l),
(113,526,o),
(116,367,o),
(116,223,cs),
(116,34,o),
(275,-12,o),
(352,-12,cs),
(387,-12,o),
(421,-7,o),
(456,1,c),
(513,26,o),
(554,55,o),
(586,84,c),
(604,128,o),
(610,178,o),
(610,248,cs),
(610,412,o),
(617,571,o),
(618,582,c),
(696,602,l),
(696,618,o),
(694,633,o),
(690,649,c),
(605,643,o),
(519,640,o),
(434,640,c),
(430,627,o),
(429,615,o),
(429,602,c),
(531,569,l),
(535,516,o),
(542,404,o),
(542,299,cs),
(542,223,o),
(537,150,o),
(516,103,c),
(480,76,o),
(421,57,o),
(369,57,c),
(269,57,o),
(221,110,o),
(201,215,c),
(201,335,o),
(206,523,o),
(210,584,c)
);
}
);
};
hints = (
{
place = (116, 85);
place = (116, 85);
type = Stem;
},
{
place = (542, 68);
place = (542, 68);
type = Stem;
},
{
horizontal = 1;
place = (-12, 69);
place = (-12, 69);
type = Stem;
},
{
horizontal = 1;
place = (649, -20);
target = down;
type = TopGhost;
},
{
horizontal = 1;
place = (640, -20);
target = down;
type = TopGhost;
},
{
horizontal = 1;
place = (649, -20);
target = down;
type = TopGhost;
},
{
horizontal = 1;
place = (640, -20);
target = down;
type = TopGhost;
},
{
horizontal = 1;
place = (-12, 21);
target = up;
type = BottomGhost;
},
{
horizontal = 1;
place = (454, -20);
target = down;
type = TopGhost;
},
{
horizontal = 1;
place = (450, -20);
target = down;
type = TopGhost;
},
{
horizontal = 1;
place = (-12, 21);
target = up;
type = BottomGhost;
}
);
layerId = "897B5A99-9760-4657-AC3F-5CEB049E61B1";
shapes = (
{
closed = 1;
nodes = (
(398,-6,o),
(429,-1,o),
(454,8,cs),
(501,24,o),
(533,52,o),
(558,77,c),
(573,131,o),
(584,217,o),
(584,337,cs),
(584,443,o),
(583,484,o),
(585,621,c),
(688,633,l),
(688,639,o),
(687,644,o),
(686,646,c),
(603,641,o),
(528,638,o),
(441,640,c),
(440,636,o),
(439,630,o),
(439,626,c),
(566,621,l),
(567,545,o),
(568,449,o),
(568,332,cs),
(568,227,o),
(556,141,o),
(543,87,c),
(510,52,o),
(454,13,o),
(362,12,cs),
(191,11,o),
(158,120,o),
(158,226,c),
(158,379,o),
(160,547,o),
(163,622,c),
(285,632,l),
(285,636,o),
(284,642,o),
(283,646,c),
(196,641,o),
(121,638,o),
(38,640,c),
(37,638,o),
(36,633,o),
(36,627,c),
(140,621,l),
(142,534,o),
(140,367,o),
(140,226,cs),
(140,107,o),
(177,-6,o),
(362,-6,cs)
);
}
);
width = 718;
}
);
unicode = 85;
},
